<?xml version="1.0" encoding="UTF-8" standalone="no"?>
<!-- Created with Inkscape (http://www.inkscape.org/) -->

<svg
   xmlns:dc="http://purl.org/dc/elements/1.1/"
   xmlns:cc="http://creativecommons.org/ns#"
   xmlns:rdf="http://www.w3.org/1999/02/22-rdf-syntax-ns#"
   xmlns:svg="http://www.w3.org/2000/svg"
   xmlns="http://www.w3.org/2000/svg"
   xmlns:sodipodi="http://sodipodi.sourceforge.net/DTD/sodipodi-0.dtd"
   xmlns:inkscape="http://www.inkscape.org/namespaces/inkscape"
   width="48.684608mm"
   height="39.249378mm"
   viewBox="0 0 172.50452 139.0726"
   id="svg5344"
   version="1.1"
   inkscape:version="0.91 r13725"
   sodipodi:docname="lvl1.svg">
  <defs
     id="defs5346" />
  <sodipodi:namedview
     id="base"
     pagecolor="#ffffff"
     bordercolor="#666666"
     borderopacity="1.0"
     inkscape:pageopacity="0.0"
     inkscape:pageshadow="2"
     inkscape:zoom="1.4"
     inkscape:cx="-14.080131"
     inkscape:cy="-6.614845"
     inkscape:document-units="px"
     inkscape:current-layer="layer1"
     showgrid="false"
     fit-margin-top="0"
     fit-margin-left="0"
     fit-margin-right="0"
     fit-margin-bottom="0"
     showborder="false"
     inkscape:window-width="1366"
     inkscape:window-height="699"
     inkscape:window-x="0"
     inkscape:window-y="0"
     inkscape:window-maximized="1" />
  <metadata
     id="metadata5349">
    <rdf:RDF>
      <cc:Work
         rdf:about="">
        <dc:format>image/svg+xml</dc:format>
        <dc:type
           rdf:resource="http://purl.org/dc/dcmitype/StillImage" />
        <dc:title />
      </cc:Work>
    </rdf:RDF>
  </metadata>
  <g
     inkscape:label="Calque 1"
     inkscape:groupmode="layer"
     id="layer1"
     transform="translate(-62.319171,-234.25447)">
    <g
       id="g4208">
      <g
         style="fill:#333333"
         transform="matrix(1.25,0,0,-1.25,205.90129,270.65582)"
         id="g90">
        <path
           d="M 0,0 C 0.548,1.472 0.428,3.171 -0.499,4.586 -2.032,6.953 -5.202,7.607 -7.565,6.062 -7.671,5.994 -7.753,5.906 -7.849,5.833 c -0.043,0.05 -0.086,0.104 -0.13,0.153 0.082,0.084 0.175,0.147 0.255,0.237 1.838,2.144 1.606,5.356 -0.527,7.21 -2.145,1.838 -5.373,1.605 -7.209,-0.525 -0.078,-0.089 -0.129,-0.191 -0.199,-0.283 -0.055,0.035 -0.106,0.068 -0.154,0.102 0.05,0.095 0.109,0.183 0.16,0.282 1.228,2.54 0.179,5.606 -2.364,6.833 -2.525,1.239 -5.591,0.187 -6.816,-2.352 -0.049,-0.097 -0.072,-0.201 -0.111,-0.301 -0.065,0.024 -0.129,0.049 -0.196,0.071 0.028,0.094 0.067,0.177 0.088,0.275 0.614,2.759 -1.123,5.488 -3.883,6.086 -2.759,0.613 -5.488,-1.125 -6.087,-3.883 -0.02,-0.095 -0.018,-0.189 -0.034,-0.285 -0.072,0.008 -0.142,0.018 -0.213,0.026 0.004,0.097 0.028,0.191 0.028,0.289 0,8.19 -14.104,8.748 -14.104,0 0,-0.098 0.024,-0.192 0.03,-0.289 -0.071,-0.008 -0.145,-0.018 -0.213,-0.026 -0.016,0.096 -0.014,0.19 -0.035,0.285 -0.598,2.758 -3.329,4.496 -6.086,3.883 -2.762,-0.598 -4.497,-3.327 -3.885,-6.086 0.021,-0.098 0.06,-0.181 0.088,-0.275 -0.067,-0.022 -0.131,-0.047 -0.196,-0.071 -0.037,0.1 -0.062,0.204 -0.111,0.301 -1.225,2.539 -4.291,3.591 -6.816,2.352 -2.541,-1.227 -3.59,-4.293 -2.362,-6.833 0.047,-0.099 0.108,-0.187 0.16,-0.282 -0.05,-0.034 -0.101,-0.067 -0.156,-0.102 -0.068,0.092 -0.121,0.194 -0.199,0.283 -1.836,2.13 -5.064,2.363 -7.209,0.525 -2.131,-1.854 -2.363,-5.066 -0.525,-7.21 0.078,-0.09 0.172,-0.153 0.254,-0.237 -0.043,-0.049 -0.088,-0.103 -0.131,-0.153 -0.094,0.073 -0.178,0.161 -0.284,0.229 -2.363,1.545 -5.533,0.891 -7.064,-1.476 -0.77,-1.178 -0.993,-2.556 -0.731,-3.833 -0.016,-0.005 -0.031,-0.008 -0.046,-0.013 -15,-4.539 -30.578,-40.611 -23.043,-46.227 2.676,-2.925 11.158,4.948 19.012,14.484 0.934,-1.387 2.497,-2.274 4.224,-2.274 0.279,0 0.57,0.027 0.861,0.088 0.049,0.007 0.09,0.027 0.135,0.037 0.012,-0.058 0.022,-0.118 0.037,-0.174 -2.746,-0.608 -4.49,-3.329 -3.894,-6.081 l 0.015,0 c 0.51,-2.396 2.625,-4.015 4.977,-4.015 0.342,0 0.685,0.029 1.027,0.104 0.008,-0.058 0.022,-0.122 0.035,-0.186 -0.017,-0.003 -0.035,-0.002 -0.052,-0.006 -2.762,-0.597 -4.512,-3.311 -3.901,-6.074 0.512,-2.394 2.631,-4.026 4.979,-4.026 0.365,0 0.73,0.043 1.094,0.116 0.007,0 0.013,0.004 0.023,0.006 0.012,-0.083 0.025,-0.169 0.043,-0.253 -0.893,-0.203 -1.734,-0.617 -2.385,-1.27 -0.965,-0.949 -1.508,-2.278 -1.508,-3.622 0,-1.343 0.543,-2.655 1.508,-3.605 0.284,-0.283 1.062,-0.708 1.076,-0.778 l 0.534,-0.026 c -0.002,-0.068 -0.004,-0.136 -0.004,-0.205 0,-2.693 2.181,-4.875 4.875,-4.875 1.343,0 2.56,0.544 3.443,1.424 0.262,-2.443 2.332,-4.346 4.846,-4.346 1.175,0 2.237,0.434 3.08,1.127 5.764,-7.005 12.68,-12.001 20.461,-12.22 6.756,0.19 12.859,3.984 18.124,9.565 1.847,0.166 3.401,1.347 4.077,2.995 0.885,-0.904 2.117,-1.467 3.484,-1.467 2.514,0 4.582,1.903 4.846,4.346 0.883,-0.88 2.1,-1.424 3.443,-1.424 2.694,0 4.875,2.182 4.875,4.875 0,0.069 -0.002,0.137 -0.004,0.205 l 0.533,0.026 c 0.015,0.07 0.793,0.495 1.077,0.778 0.963,0.95 1.506,2.262 1.506,3.605 0,1.344 -0.543,2.673 -1.506,3.622 -0.653,0.653 -1.494,1.067 -2.385,1.27 0.018,0.084 0.031,0.17 0.043,0.253 0.01,-0.002 0.014,-0.006 0.022,-0.006 0.363,-0.073 0.728,-0.116 1.093,-0.116 2.35,0 4.469,1.632 4.979,4.026 0.613,2.763 -1.139,5.477 -3.899,6.074 -0.017,0.004 -0.035,0.003 -0.052,0.006 0.013,0.064 0.027,0.128 0.035,0.186 0.34,-0.075 0.685,-0.104 1.025,-0.104 2.352,0 4.467,1.619 4.977,4.015 l 0.017,0 c 0.596,2.752 -1.148,5.473 -3.894,6.081 0.013,0.056 0.025,0.116 0.035,0.174 0.047,-0.01 0.086,-0.03 0.135,-0.037 0.293,-0.061 0.584,-0.088 0.863,-0.088 1.147,0 2.22,0.398 3.089,1.064 7.559,-8.977 15.442,-16.074 18.003,-13.274 C 28.401,-40.104 14.385,-6.753 0,0"
           style="fill:#333333;fill-opacity:1;fill-rule:evenodd;stroke:none"
           id="path92"
           inkscape:connector-curvature="0" />
      </g>
      <g
         style="fill:#cccccc"
         transform="matrix(1.25,0,0,-1.25,105.15304,349.42531)"
         id="g94">
        <path
           d="M 0,0 -0.1,0.005 C -0.018,-0.02 0.003,-0.015 0,0"
           style="fill:#cccccc;fill-opacity:1;fill-rule:evenodd;stroke:none"
           id="path96"
           inkscape:connector-curvature="0" />
      </g>
      <g
         style="fill:#cccccc"
         transform="matrix(1.25,0,0,-1.25,201.04166,349.41931)"
         id="g98">
        <path
           d="M 0,0 -0.099,-0.005 C -0.102,-0.02 -0.082,-0.024 0,0"
           style="fill:#cccccc;fill-opacity:1;fill-rule:evenodd;stroke:none"
           id="path100"
           inkscape:connector-curvature="0" />
      </g>
      <g
         id="g8826"
         transform="matrix(1.25,0,0,-1.25,-456.71096,448.25594)">
        <g
           id="g1546"
           transform="translate(546.2666,99.5928)">
          <path
             d="m 0,0 c -5.359,-5.86 -34.029,31.623 -34.262,38.991 0,0 -3.773,11.776 11.221,7.237 C -8.043,41.688 7.537,5.616 0,0"
             style="fill:#f3e7e3;fill-opacity:1;fill-rule:evenodd;stroke:none"
             id="path1548"
             inkscape:connector-curvature="0" />
        </g>
        <g
           id="g1550"
           transform="translate(538.9229,101.9883)">
          <path
             d="m 0,0 c -8.225,6.58 -20.314,22.364 -24.98,31.33 -0.081,2.358 0.99,5.765 8.646,3.447 C -5.189,31.404 6.389,4.599 0.787,0.426 0.574,0.191 0.309,0.057 0,0"
             style="fill:#d65a6f;fill-opacity:1;fill-rule:evenodd;stroke:none"
             id="path1552"
             inkscape:connector-curvature="0" />
        </g>
        <g
           id="g1554"
           transform="translate(417.1846,99.5928)">
          <path
             d="m 0,0 c 5.361,-5.86 34.031,31.623 34.262,38.991 0,0 3.773,11.776 -11.219,7.237 C 8.043,41.688 -7.535,5.616 0,0"
             style="fill:#f3e7e3;fill-opacity:1;fill-rule:evenodd;stroke:none"
             id="path1556"
             inkscape:connector-curvature="0" />
        </g>
        <g
           id="g1558"
           transform="translate(424.5303,101.9883)">
          <path
             d="m 0,0 c 8.223,6.58 20.312,22.364 24.98,31.33 0.079,2.358 -0.99,5.765 -8.648,3.447 C 5.187,31.404 -6.391,4.599 -0.789,0.426 -0.574,0.191 -0.309,0.057 0,0"
             style="fill:#d65a6f;fill-opacity:1;fill-rule:evenodd;stroke:none"
             id="path1560"
             inkscape:connector-curvature="0" />
        </g>
        <g
           id="g1562"
           transform="translate(475.7451,164.8477)">
          <path
             d="m 0,0 c 0,-0.098 0.023,-0.191 0.029,-0.289 -0.07,-0.008 -0.144,-0.018 -0.213,-0.025 -0.015,0.095 -0.013,0.189 -0.035,0.285 -0.597,2.758 -3.328,4.496 -6.086,3.883 -2.761,-0.598 -4.496,-3.328 -3.884,-6.086 0.021,-0.098 0.06,-0.182 0.087,-0.276 -0.066,-0.021 -0.13,-0.047 -0.195,-0.07 -0.037,0.099 -0.062,0.203 -0.111,0.301 -1.225,2.539 -4.291,3.59 -6.817,2.351 -2.541,-1.226 -3.589,-4.293 -2.361,-6.833 0.047,-0.098 0.107,-0.186 0.16,-0.282 -0.051,-0.033 -0.101,-0.066 -0.156,-0.102 -0.068,0.092 -0.121,0.195 -0.199,0.284 -1.836,2.13 -5.065,2.362 -7.209,0.524 -2.131,-1.853 -2.364,-5.065 -0.526,-7.21 0.079,-0.09 0.172,-0.152 0.254,-0.236 -0.043,-0.049 -0.088,-0.104 -0.131,-0.154 -0.093,0.074 -0.177,0.162 -0.283,0.229 -2.363,1.546 -5.533,0.892 -7.064,-1.476 -1.547,-2.363 -0.891,-5.53 1.474,-7.08 0.106,-0.068 0.219,-0.119 0.327,-0.178 -0.024,-0.056 -0.055,-0.112 -0.081,-0.169 -0.117,0.047 -0.224,0.108 -0.349,0.144 -2.699,0.803 -5.543,-0.746 -6.35,-3.445 -0.801,-2.714 0.744,-5.547 3.461,-6.348 0.119,-0.038 0.242,-0.056 0.367,-0.084 -0.009,-0.062 -0.019,-0.127 -0.025,-0.187 -0.125,0.009 -0.244,0.037 -0.371,0.037 -2.83,-0.016 -5.109,-2.307 -5.094,-5.123 0,-2.818 2.289,-5.096 5.108,-5.096 l 0.015,0 c 0.088,0 0.172,0.023 0.258,0.027 0.006,-0.064 0.014,-0.127 0.021,-0.189 -0.068,-0.009 -0.128,-0.003 -0.191,-0.013 -2.791,-0.481 -4.656,-3.123 -4.189,-5.897 l 0,-0.014 c 0.435,-2.482 2.584,-4.248 5.035,-4.248 0.279,0 0.57,0.027 0.861,0.088 0.049,0.008 0.09,0.027 0.135,0.037 0.012,-0.058 0.021,-0.117 0.037,-0.174 -2.746,-0.607 -4.49,-3.329 -3.895,-6.081 l 0.016,0 c 0.51,-2.395 2.625,-4.014 4.977,-4.014 0.341,0 0.685,0.029 1.027,0.103 0.008,-0.058 0.021,-0.122 0.035,-0.185 -0.017,-0.003 -0.035,-0.002 -0.053,-0.006 -2.761,-0.598 -4.511,-3.312 -3.9,-6.075 0.512,-2.393 2.631,-4.026 4.979,-4.026 0.365,0 0.73,0.043 1.093,0.116 0.008,0 0.014,0.004 0.024,0.006 0.011,-0.083 0.025,-0.169 0.043,-0.253 -0.893,-0.203 -1.735,-0.617 -2.385,-1.269 -0.965,-0.95 -1.508,-2.279 -1.508,-3.622 0,-1.343 0.543,-2.656 1.508,-3.606 0.346,-0.345 1.439,-0.907 0.976,-0.772 l 0.633,-0.032 c -0.002,-0.068 -0.004,-0.135 -0.004,-0.205 0,-2.693 2.182,-4.875 4.875,-4.875 1.344,0 2.561,0.544 3.444,1.424 0.261,-2.442 2.332,-4.346 4.845,-4.346 1.366,0 2.598,0.563 3.485,1.467 0.728,-1.776 2.472,-3.028 4.512,-3.028 0.984,0 1.9,0.294 2.668,0.796 0.871,-1.321 2.367,-2.192 4.068,-2.192 2.693,0 4.875,2.183 4.875,4.875 0,2.693 -2.182,4.875 -4.875,4.875 -0.985,0 -1.901,-0.292 -2.666,-0.794 -0.367,0.555 -0.846,1.032 -1.402,1.396 3.882,-0.016 7.957,0.012 12,0.112 0.65,-0.017 1.298,-0.031 1.949,-0.043 0.648,0.012 1.299,0.026 1.947,0.043 4.045,-0.1 8.117,-0.128 12.002,-0.112 -0.559,-0.364 -1.037,-0.841 -1.402,-1.396 -0.768,0.502 -1.682,0.794 -2.668,0.794 -2.692,0 -4.873,-2.182 -4.873,-4.875 0,-2.692 2.181,-4.875 4.873,-4.875 1.701,0 3.199,0.871 4.07,2.192 0.766,-0.502 1.682,-0.796 2.666,-0.796 2.039,0 3.785,1.252 4.514,3.028 0.884,-0.904 2.117,-1.467 3.484,-1.467 2.514,0 4.582,1.904 4.846,4.346 0.883,-0.88 2.099,-1.424 3.443,-1.424 2.693,0 4.875,2.182 4.875,4.875 0,0.07 -0.002,0.137 -0.004,0.205 l 0.631,0.032 c -0.461,-0.135 0.633,0.427 0.979,0.772 0.962,0.95 1.505,2.263 1.505,3.606 0,1.343 -0.543,2.672 -1.505,3.622 -0.653,0.652 -1.495,1.066 -2.385,1.269 0.017,0.084 0.031,0.17 0.043,0.253 0.01,-0.002 0.013,-0.006 0.021,-0.006 0.364,-0.073 0.729,-0.116 1.094,-0.116 2.35,0 4.469,1.633 4.979,4.026 0.613,2.763 -1.139,5.477 -3.899,6.075 -0.018,0.004 -0.035,0.003 -0.053,0.006 0.014,0.063 0.028,0.127 0.035,0.185 0.34,-0.074 0.686,-0.103 1.026,-0.103 2.351,0 4.467,1.619 4.976,4.014 l 0.018,0 c 0.596,2.752 -1.148,5.474 -3.895,6.081 0.014,0.057 0.026,0.116 0.036,0.174 0.047,-0.01 0.086,-0.029 0.134,-0.037 0.293,-0.061 0.584,-0.088 0.864,-0.088 2.451,0 4.597,1.766 5.035,4.248 l 0,0.014 c 0.467,2.774 -1.401,5.416 -4.192,5.897 -0.062,0.01 -0.123,0.004 -0.189,0.013 0.006,0.062 0.016,0.125 0.021,0.189 0.086,-0.004 0.168,-0.027 0.256,-0.027 l 0.018,0 c 2.818,0 5.107,2.278 5.107,5.096 0.016,2.816 -2.263,5.107 -5.093,5.123 -0.127,0 -0.248,-0.028 -0.372,-0.037 -0.007,0.06 -0.017,0.125 -0.025,0.187 0.123,0.028 0.246,0.046 0.365,0.084 2.717,0.801 4.262,3.634 3.461,6.348 -0.804,2.699 -3.648,4.248 -6.349,3.445 -0.123,-0.036 -0.233,-0.097 -0.35,-0.144 -0.025,0.057 -0.055,0.113 -0.08,0.169 0.107,0.059 0.223,0.11 0.328,0.178 2.363,1.55 3.022,4.717 1.475,7.08 -1.533,2.368 -4.703,3.022 -7.067,1.476 -0.105,-0.067 -0.187,-0.155 -0.283,-0.229 -0.043,0.05 -0.086,0.105 -0.131,0.154 0.082,0.084 0.176,0.146 0.256,0.236 1.838,2.145 1.606,5.357 -0.527,7.21 -2.145,1.838 -5.373,1.606 -7.209,-0.524 -0.078,-0.089 -0.129,-0.192 -0.199,-0.284 -0.055,0.036 -0.106,0.069 -0.155,0.102 0.051,0.096 0.11,0.184 0.16,0.282 1.229,2.54 0.18,5.607 -2.363,6.833 -2.525,1.239 -5.592,0.188 -6.816,-2.351 -0.049,-0.098 -0.073,-0.202 -0.112,-0.301 -0.064,0.023 -0.129,0.049 -0.195,0.07 0.027,0.094 0.066,0.178 0.088,0.276 0.613,2.758 -1.123,5.488 -3.883,6.086 -2.76,0.613 -5.488,-1.125 -6.088,-3.883 -0.019,-0.096 -0.017,-0.19 -0.033,-0.285 -0.072,0.007 -0.143,0.017 -0.213,0.025 C 14.08,-0.191 14.104,-0.098 14.104,0 14.104,8.19 0,8.748 0,0"
             style="fill:#ffffff;fill-opacity:1;fill-rule:evenodd;stroke:none"
             id="path1564"
             inkscape:connector-curvature="0" />
        </g>
        <g
           id="g1566"
           transform="translate(481.7256,138.6816)">
          <path
             d="m 0,0 -19.463,0 c -10.752,0 -19.471,-8.714 -19.471,-19.464 0,-11.917 15.575,-55.619 38.934,-56.274 23.359,0.655 38.934,44.357 38.934,56.274 C 38.934,-8.714 30.217,0 19.465,0 L 0,0 Z"
             style="fill:#fdcf9a;fill-opacity:1;fill-rule:evenodd;stroke:none"
             id="path1568"
             inkscape:connector-curvature="0" />
        </g>
        <g
           id="g1570"
           transform="translate(482.7979,140.5225)">
          <path
             d="m 0,0 c 1.504,0 2.852,-0.663 3.756,-1.709 0.437,2.237 2.437,3.927 4.84,3.927 1.709,0 3.215,-0.855 4.099,-2.154 0.549,2.089 2.479,3.633 4.774,3.633 1.457,0 2.763,-0.622 3.666,-1.608 0.904,1.082 2.275,1.773 3.81,1.773 2.723,0 4.93,-2.17 4.93,-4.847 0,-2.677 -2.207,-4.848 -4.93,-4.848 -1.455,0 -2.765,0.622 -3.666,1.608 -0.904,-1.081 -2.275,-1.772 -3.81,-1.772 -1.709,0 -3.215,0.856 -4.1,2.155 -0.549,-2.09 -2.476,-3.634 -4.773,-3.634 -1.504,0 -2.852,0.664 -3.756,1.709 C 4.402,-8.004 2.402,-9.694 0,-9.694 l -0.066,0.001 -0.065,-0.001 c -2.402,0 -4.402,1.69 -4.84,3.927 -0.904,-1.045 -2.252,-1.709 -3.758,-1.709 -2.294,0 -4.224,1.544 -4.773,3.634 -0.883,-1.299 -2.389,-2.155 -4.098,-2.155 -1.535,0 -2.906,0.691 -3.81,1.772 -0.902,-0.986 -2.211,-1.608 -3.666,-1.608 -2.723,0 -4.93,2.171 -4.93,4.848 0,2.677 2.207,4.847 4.93,4.847 1.533,0 2.906,-0.691 3.808,-1.773 0.903,0.986 2.211,1.608 3.668,1.608 2.295,0 4.225,-1.544 4.774,-3.633 0.883,1.299 2.388,2.154 4.097,2.154 2.403,0 4.405,-1.69 4.84,-3.927 C -2.984,-0.663 -1.637,0 -0.131,0 L -0.074,0 -0.059,0 0,0 Z"
             style="fill:#ffffff;fill-opacity:1;fill-rule:evenodd;stroke:none"
             id="path1572"
             inkscape:connector-curvature="0" />
        </g>
        <g
           id="g1574"
           transform="translate(451.4463,138.584)">
          <path
             d="m 0,0 c 0.437,1.012 5.723,-7.68 -4.408,-8.926 -0.938,-0.115 3.209,-3.933 -1.153,-7.423 -1.291,-1.035 2.614,-4.051 -0.285,-6.737 -1.275,-1.182 2.66,-1.67 0.809,-6.9 -0.01,-0.031 3.59,-6.762 -0.85,-6.216 -1.332,0.165 -4.551,5.544 -3.492,8.394 0.717,1.937 -3.211,10.134 0.041,18.538 2.318,5.991 -1.939,4.811 7.395,8.86 0.252,0.109 2.019,0.6 2.3,0.488 L 0,0 Z"
             style="fill:#ffffff;fill-opacity:1;fill-rule:evenodd;stroke:none"
             id="path1576"
             inkscape:connector-curvature="0" />
        </g>
        <g
           id="g1578"
           transform="translate(511.2334,140.5479)">
          <path
             d="m 0,0 c -0.436,1.011 -5.723,-7.682 4.41,-8.928 0.936,-0.115 -3.211,-3.932 1.149,-7.422 1.295,-1.036 -2.612,-4.05 0.287,-6.736 1.275,-1.182 -2.658,-1.672 -0.807,-6.901 0.01,-0.03 -3.592,-6.762 0.85,-6.215 1.332,0.162 4.55,5.544 3.492,8.393 -0.719,1.937 3.209,10.135 -0.043,18.538 -2.318,5.992 1.939,4.81 -7.395,8.859 -0.252,0.11 -2.017,0.6 -2.3,0.49 L 0,0 Z"
             style="fill:#ffffff;fill-opacity:1;fill-rule:evenodd;stroke:none"
             id="path1580"
             inkscape:connector-curvature="0" />
        </g>
        <g
           id="g1582"
           transform="translate(459.0713,116.5391)">
          <path
             d="M 0,0 C 0.395,1.983 2.322,3.272 4.305,2.878 6.291,2.483 7.58,0.556 7.184,-1.429 7.133,-1.683 7.057,-1.923 6.961,-2.151 6.5,-1.532 5.775,-1.056 4.738,-0.849 2.869,-0.479 1.336,-1.274 0.389,-2.485 -0.018,-1.755 -0.178,-0.882 0,0 m 2.461,-6.402 c 3.141,-0.625 6.193,1.414 6.82,4.555 C 9.904,1.296 7.865,4.347 4.723,4.973 1.582,5.599 -1.469,3.559 -2.096,0.417 -2.721,-2.724 -0.682,-5.777 2.461,-6.402"
             style="fill:#ffffff;fill-opacity:1;fill-rule:nonzero;stroke:none"
             id="path1584"
             inkscape:connector-curvature="0" />
        </g>
        <g
           id="g1586"
           transform="translate(463.8096,115.6904)">
          <path
             d="M 0,0 C 1.037,-0.207 1.762,-0.684 2.223,-1.303 2.318,-1.074 2.395,-0.834 2.445,-0.58 2.842,1.404 1.553,3.332 -0.434,3.727 -2.416,4.121 -4.344,2.832 -4.738,0.849 -4.916,-0.033 -4.756,-0.906 -4.35,-1.637 -3.402,-0.426 -1.869,0.369 0,0"
             style="fill:#000000;fill-opacity:1;fill-rule:nonzero;stroke:none"
             id="path1588"
             inkscape:connector-curvature="0" />
        </g>
        <g
           id="g1590"
           transform="translate(504.8682,114.0537)">
          <path
             d="M 0,0 C -0.947,1.211 -2.48,2.006 -4.35,1.637 -5.387,1.43 -6.111,0.953 -6.572,0.334 -6.668,0.562 -6.744,0.803 -6.795,1.057 -7.191,3.041 -5.902,4.969 -3.916,5.363 -1.934,5.758 -0.006,4.469 0.389,2.485 0.566,1.604 0.406,0.73 0,0 M 2.484,2.902 C 1.857,6.044 -1.193,8.084 -4.334,7.458 -7.477,6.832 -9.516,3.781 -8.893,0.639 c 0.627,-3.142 3.68,-5.181 6.821,-4.556 3.142,0.625 5.181,3.679 4.556,6.819"
             style="fill:#ffffff;fill-opacity:1;fill-rule:nonzero;stroke:none"
             id="path1592"
             inkscape:connector-curvature="0" />
        </g>
        <g
           id="g1594"
           transform="translate(500.5186,115.6904)">
          <path
             d="m 0,0 c -1.037,-0.207 -1.762,-0.684 -2.223,-1.303 -0.095,0.229 -0.172,0.469 -0.222,0.723 -0.397,1.984 0.892,3.912 2.879,4.307 C 2.416,4.121 4.344,2.832 4.738,0.849 4.916,-0.033 4.756,-0.906 4.35,-1.637 3.402,-0.426 1.869,0.369 0,0"
             style="fill:#000000;fill-opacity:1;fill-rule:nonzero;stroke:none"
             id="path1596"
             inkscape:connector-curvature="0" />
        </g>
        <g
           id="g1598"
           transform="translate(481.7256,92.5469)">
          <path
             d="m 0,0 c -0.272,0.015 -0.546,0.023 -0.815,0.027 l -0.002,-12.846 c -1.661,-2.911 -3.761,-4.561 -6.245,-4.906 -5.276,-0.718 -12.543,5.54 -12.809,5.272 5.626,-6.279 14.56,-10.171 19.871,-2.16 5.311,-8.011 14.245,-4.119 19.871,2.16 -0.266,0.268 -7.533,-5.99 -12.809,-5.272 -2.484,0.345 -4.583,1.995 -6.245,4.906 l 0,12.846 C 0.546,0.023 0.272,0.015 0,0"
             style="fill:#000000;fill-opacity:1;fill-rule:evenodd;stroke:none"
             id="path1600"
             inkscape:connector-curvature="0" />
        </g>
        <g
           id="g1602"
           transform="translate(481.7246,104.9385)">
          <path
             d="m 0,0 c -13.467,0.142 -13.351,-4.736 -6.305,-9.708 2.567,-1.812 4.737,-3.021 6.305,-3.788 1.568,0.767 3.739,1.976 6.306,3.788 C 13.352,-4.736 13.468,0.142 0,0"
             style="fill:#d65a6f;fill-opacity:1;fill-rule:evenodd;stroke:none"
             id="path1604"
             inkscape:connector-curvature="0" />
        </g>
      </g>
    </g>
  </g>
</svg>
