<?xml version="1.0" encoding="UTF-8" standalone="no"?>
<!-- Created with Inkscape (http://www.inkscape.org/) -->

<svg
   xmlns:dc="http://purl.org/dc/elements/1.1/"
   xmlns:cc="http://creativecommons.org/ns#"
   xmlns:rdf="http://www.w3.org/1999/02/22-rdf-syntax-ns#"
   xmlns:svg="http://www.w3.org/2000/svg"
   xmlns="http://www.w3.org/2000/svg"
   xmlns:sodipodi="http://sodipodi.sourceforge.net/DTD/sodipodi-0.dtd"
   xmlns:inkscape="http://www.inkscape.org/namespaces/inkscape"
   width="42.036186mm"
   height="35.173214mm"
   viewBox="0 0 148.94712 124.6295"
   id="svg5344"
   version="1.1"
   inkscape:version="0.91 r13725"
   sodipodi:docname="lvl1.svg">
  <defs
     id="defs5346" />
  <sodipodi:namedview
     id="base"
     pagecolor="#ffffff"
     bordercolor="#666666"
     borderopacity="1.0"
     inkscape:pageopacity="0.0"
     inkscape:pageshadow="2"
     inkscape:zoom="0.35"
     inkscape:cx="-95.702757"
     inkscape:cy="114.70819"
     inkscape:document-units="px"
     inkscape:current-layer="layer1"
     showgrid="false"
     fit-margin-top="0"
     fit-margin-left="0"
     fit-margin-right="0"
     fit-margin-bottom="0"
     showborder="false"
     inkscape:window-width="1366"
     inkscape:window-height="699"
     inkscape:window-x="0"
     inkscape:window-y="0"
     inkscape:window-maximized="1" />
  <metadata
     id="metadata5349">
    <rdf:RDF>
      <cc:Work
         rdf:about="">
        <dc:format>image/svg+xml</dc:format>
        <dc:type
           rdf:resource="http://purl.org/dc/dcmitype/StillImage" />
        <dc:title></dc:title>
      </cc:Work>
    </rdf:RDF>
  </metadata>
  <g
     inkscape:label="Calque 1"
     inkscape:groupmode="layer"
     id="layer1"
     transform="translate(77.868671,-522.44089)">
    <g
       transform="translate(-389.19613,204.81027)"
       style="display:inline"
       id="g4921">
      <g
         style="fill:#cccccc"
         transform="matrix(1.25,0,0,-1.25,444.39325,326.73762)"
         id="g50">
        <path
           d="m 0,0 c -8.116,-0.339 -12.435,-4.346 -14.065,-6.29 -8.271,6.612 -18.751,10.575 -30.164,10.575 -11.506,0 -22.069,-4.026 -30.371,-10.738 -1.688,1.756 -6.335,5.572 -14.643,5.24 -10.752,-0.43 -11.701,1.361 -11.701,1.361 0,0 -4.063,-20.701 10.787,-29.099 -1.565,-4.757 -2.423,-9.834 -2.423,-15.115 0,-10.15 3.134,-19.565 8.477,-27.343 8.715,-12.685 23.32,-21.009 39.874,-21.009 16.554,0 31.16,8.324 39.875,21.01 5.343,7.777 8.477,17.192 8.477,27.342 0,5.424 -0.907,10.635 -2.555,15.504 16.141,9.083 9.984,30.873 9.984,30.873 0,0 -0.8,-1.864 -11.552,-2.311"
           style="fill:#cccccc;fill-opacity:1;fill-rule:evenodd;stroke:none"
           id="path52"
           inkscape:connector-curvature="0" />
      </g>
      <g
         id="g7626"
         transform="matrix(1.25,0,0,-1.25,0,1000)">
        <g
           id="g746"
           transform="translate(348.3955,521.2964)">
          <path
             d="m 0,0 c 0.981,-0.047 1.993,0.238 2.847,0.913 2.981,2.358 2.225,9.065 4.559,11.58 0,0 -9.779,-0.687 -11.131,-6.19 C -3.771,6.115 -3.792,5.941 -3.823,5.762 -2.417,3.939 -1.139,2.016 0,0"
             style="fill:#ffbda2;fill-opacity:1;fill-rule:nonzero;stroke:none"
             id="path748"
             inkscape:connector-curvature="0" />
        </g>
        <g
           id="g750"
           transform="translate(256.6396,532.1704)">
          <path
             d="m 0,0 c 2.532,-2.316 2.325,-9.063 5.489,-11.169 0.483,-0.321 1.003,-0.519 1.531,-0.627 1.293,2.41 2.792,4.692 4.46,6.836 C 9.422,0.105 0,0 0,0"
             style="fill:#ffbda2;fill-opacity:1;fill-rule:nonzero;stroke:none"
             id="path752"
             inkscape:connector-curvature="0" />
        </g>
        <g
           id="g754"
           transform="translate(262.1289,521.0015)">
          <path
             d="m 0,0 c -3.164,2.106 -2.957,8.853 -5.489,11.169 0,0 9.422,0.105 11.48,-4.96 C 4.322,4.065 2.824,1.783 1.53,-0.627 1.003,-0.52 0.482,-0.321 0,0 m 21.563,-17.866 c 0.331,-2.676 -1.574,-5.112 -4.249,-5.44 -2.674,-0.33 -5.111,1.575 -5.438,4.249 -0.329,2.675 1.573,5.111 4.246,5.439 2.677,0.328 5.113,-1.574 5.441,-4.248 m 45.188,0 c 0.328,2.674 2.764,4.576 5.442,4.248 2.672,-0.328 4.575,-2.764 4.245,-5.439 -0.327,-2.674 -2.763,-4.579 -5.438,-4.249 -2.677,0.328 -4.579,2.764 -4.249,5.44 M 93.673,12.788 C 91.339,10.272 92.095,3.565 89.113,1.208 88.26,0.533 87.248,0.248 86.267,0.295 85.128,2.311 83.85,4.234 82.443,6.057 c 0.032,0.179 0.053,0.353 0.099,0.541 1.352,5.503 11.131,6.19 11.131,6.19 M 44.157,-58.845 c -14.142,0 -25.608,7.164 -25.608,16.002 0,8.836 11.466,15.999 25.608,15.999 14.143,0 25.609,-7.163 25.609,-15.999 0,-8.838 -11.466,-16.002 -25.609,-16.002 m 0,-12.965 c 16.554,0 31.159,8.325 39.874,21.01 5.344,7.778 8.478,17.193 8.478,27.342 0,5.425 -0.907,10.636 -2.555,15.504 16.141,9.084 9.984,30.873 9.984,30.873 0,0 -0.8,-1.863 -11.552,-2.311 C 80.27,20.27 75.951,16.263 74.32,14.318 66.05,20.931 55.569,24.894 44.157,24.894 c -11.507,0 -22.069,-4.027 -30.371,-10.739 -1.688,1.756 -6.335,5.573 -14.643,5.241 -10.752,-0.43 -11.702,1.361 -11.702,1.361 0,0 -4.062,-20.701 10.788,-29.1 -1.565,-4.757 -2.423,-9.834 -2.423,-15.115 0,-10.149 3.133,-19.564 8.477,-27.343 8.715,-12.684 23.32,-21.009 39.874,-21.009"
             style="fill:#ffd6cd;fill-opacity:1;fill-rule:nonzero;stroke:none"
             id="path756"
             inkscape:connector-curvature="0" />
        </g>
        <g
           id="g758"
           transform="translate(314.5371,472.7524)">
          <path
             d="m 0,0 c -2.986,0 -5.405,2.42 -5.405,5.404 0,2.985 2.419,5.406 5.405,5.406 2.984,0 5.403,-2.421 5.403,-5.406 C 5.403,2.42 2.984,0 0,0 m -16.501,0 c -2.985,0 -5.404,2.42 -5.404,5.404 0,2.985 2.419,5.406 5.404,5.406 2.985,0 5.405,-2.421 5.405,-5.406 C -11.096,2.42 -13.516,0 -16.501,0 m 8.25,21.405 c -14.143,0 -25.608,-7.163 -25.608,-15.999 0,-8.838 11.465,-16.002 25.608,-16.002 14.143,0 25.608,7.164 25.608,16.002 0,8.836 -11.465,15.999 -25.608,15.999"
             style="fill:#ff9669;fill-opacity:1;fill-rule:nonzero;stroke:none"
             id="path760"
             inkscape:connector-curvature="0" />
        </g>
        <g
           id="g762"
           transform="translate(298.0361,483.562)">
          <path
             d="m 0,0 c -2.985,0 -5.404,-2.421 -5.404,-5.405 0,-2.985 2.419,-5.405 5.404,-5.405 2.985,0 5.405,2.42 5.405,5.405 C 5.405,-2.421 2.985,0 0,0"
             style="fill:#cf7128;fill-opacity:1;fill-rule:nonzero;stroke:none"
             id="path764"
             inkscape:connector-curvature="0" />
        </g>
        <g
           id="g766"
           transform="translate(314.5371,483.562)">
          <path
             d="m 0,0 c -2.986,0 -5.405,-2.421 -5.405,-5.405 0,-2.985 2.419,-5.405 5.405,-5.405 2.984,0 5.403,2.42 5.403,5.405 C 5.403,-2.421 2.984,0 0,0"
             style="fill:#cf7128;fill-opacity:1;fill-rule:nonzero;stroke:none"
             id="path768"
             inkscape:connector-curvature="0" />
        </g>
        <g
           id="g770"
           transform="translate(330.6621,502.9165)">
          <path
             d="M 0,0 C 0.209,1.688 1.748,2.891 3.438,2.683 5.128,2.475 6.329,0.937 6.12,-0.754 6.029,-1.505 5.673,-2.16 5.155,-2.638 4.715,-1.418 3.702,-0.379 2.11,-0.184 1.225,-0.075 0.523,-0.264 -0.011,-0.637 -0.026,-0.429 -0.023,-0.216 0,0 m 2.467,-5.221 c 2.675,-0.33 5.111,1.575 5.437,4.249 C 8.234,1.703 6.332,4.139 3.66,4.467 0.981,4.795 -1.454,2.893 -1.782,0.219 c -0.33,-2.676 1.572,-5.112 4.249,-5.44"
             style="fill:#ffffff;fill-opacity:1;fill-rule:nonzero;stroke:none"
             id="path772"
             inkscape:connector-curvature="0" />
        </g>
        <g
           id="g774"
           transform="translate(332.7725,502.7329)">
          <path
             d="M 0,0 C 1.592,-0.195 2.604,-1.234 3.045,-2.454 3.563,-1.977 3.919,-1.321 4.01,-0.57 4.219,1.121 3.018,2.658 1.327,2.866 -0.362,3.074 -1.901,1.872 -2.11,0.184 -2.134,-0.032 -2.137,-0.245 -2.121,-0.453 -1.587,-0.08 -0.886,0.108 0,0"
             style="fill:#353a42;fill-opacity:1;fill-rule:nonzero;stroke:none"
             id="path776"
             inkscape:connector-curvature="0" />
        </g>
        <g
           id="g778"
           transform="translate(278.4717,505.5991)">
          <path
             d="M 0,0 C 1.69,0.208 3.229,-0.994 3.437,-2.683 3.463,-2.898 3.465,-3.111 3.449,-3.319 2.915,-2.946 2.212,-2.758 1.328,-2.866 -0.264,-3.062 -1.278,-4.101 -1.718,-5.32 -2.234,-4.843 -2.591,-4.187 -2.682,-3.437 -2.89,-1.745 -1.69,-0.208 0,0 m -4.467,-3.654 c 0.327,-2.675 2.764,-4.579 5.439,-4.249 2.674,0.328 4.579,2.763 4.249,5.439 C 4.893,0.21 2.456,2.112 -0.221,1.784 -2.894,1.456 -4.796,-0.979 -4.467,-3.654"
             style="fill:#ffffff;fill-opacity:1;fill-rule:nonzero;stroke:none"
             id="path780"
             inkscape:connector-curvature="0" />
        </g>
        <g
           id="g782"
           transform="translate(276.7539,500.2788)">
          <path
             d="M 0,0 C 0.439,1.22 1.454,2.259 3.046,2.454 3.93,2.563 4.633,2.374 5.167,2.001 5.183,2.209 5.181,2.422 5.154,2.638 4.947,4.326 3.408,5.528 1.718,5.32 0.027,5.112 -1.172,3.575 -0.964,1.884 -0.873,1.133 -0.517,0.478 0,0"
             style="fill:#353a42;fill-opacity:1;fill-rule:nonzero;stroke:none"
             id="path784"
             inkscape:connector-curvature="0" />
        </g>
      </g>
    </g>
  </g>
</svg>
