<?xml version="1.0" encoding="UTF-8" standalone="no"?>
<!-- Created with Inkscape (http://www.inkscape.org/) -->

<svg
   xmlns:dc="http://purl.org/dc/elements/1.1/"
   xmlns:cc="http://creativecommons.org/ns#"
   xmlns:rdf="http://www.w3.org/1999/02/22-rdf-syntax-ns#"
   xmlns:svg="http://www.w3.org/2000/svg"
   xmlns="http://www.w3.org/2000/svg"
   xmlns:sodipodi="http://sodipodi.sourceforge.net/DTD/sodipodi-0.dtd"
   xmlns:inkscape="http://www.inkscape.org/namespaces/inkscape"
   width="45.012558mm"
   height="38.264435mm"
   viewBox="0 0 159.49332 135.58264"
   id="svg5344"
   version="1.1"
   inkscape:version="0.91 r13725"
   sodipodi:docname="lvl3.svg">
  <defs
     id="defs5346" />
  <sodipodi:namedview
     id="base"
     pagecolor="#ffffff"
     bordercolor="#666666"
     borderopacity="1.0"
     inkscape:pageopacity="0.0"
     inkscape:pageshadow="2"
     inkscape:zoom="1.979899"
     inkscape:cx="188.16756"
     inkscape:cy="78.650384"
     inkscape:document-units="px"
     inkscape:current-layer="layer1"
     showgrid="false"
     fit-margin-top="0"
     fit-margin-left="0"
     fit-margin-right="0"
     fit-margin-bottom="0"
     showborder="false"
     inkscape:window-width="1366"
     inkscape:window-height="699"
     inkscape:window-x="0"
     inkscape:window-y="0"
     inkscape:window-maximized="1" />
  <metadata
     id="metadata5349">
    <rdf:RDF>
      <cc:Work
         rdf:about="">
        <dc:format>image/svg+xml</dc:format>
        <dc:type
           rdf:resource="http://purl.org/dc/dcmitype/StillImage" />
        <dc:title />
      </cc:Work>
    </rdf:RDF>
  </metadata>
  <g
     inkscape:label="Calque 1"
     inkscape:groupmode="layer"
     id="layer1"
     transform="translate(203.32961,-439.27906)">
    <g
       id="g4352">
      <g
         style="fill:#4d4d4d"
         transform="matrix(1.25,0,0,-1.25,-170.8364,477.02666)"
         id="g46">
        <path
           d="M 0,0 C -0.854,-1.911 -2.042,-3.689 -3.441,-5.354 -2.145,-3.677 -1.025,-1.882 0,0 m -13.322,-22.317 c 2.975,-0.244 5.601,-0.201 7.932,0.012 -0.024,-0.141 -0.048,-0.281 -0.072,-0.423 -0.019,-0.125 -0.043,-0.249 -0.062,-0.374 -0.104,-0.68 -0.188,-1.365 -0.262,-2.055 -0.02,-0.189 -0.035,-0.379 -0.053,-0.568 -0.049,-0.533 -0.09,-1.068 -0.121,-1.606 -0.013,-0.205 -0.025,-0.41 -0.035,-0.615 -0.031,-0.71 -0.054,-1.422 -0.054,-2.138 0,-0.834 0.025,-1.663 0.068,-2.486 0.011,-0.218 0.035,-0.43 0.049,-0.647 0.041,-0.611 0.085,-1.22 0.15,-1.823 0.023,-0.221 0.056,-0.44 0.084,-0.66 0.073,-0.601 0.15,-1.201 0.246,-1.795 0.031,-0.192 0.068,-0.382 0.102,-0.574 0.109,-0.623 0.225,-1.245 0.359,-1.859 0.033,-0.154 0.07,-0.305 0.105,-0.456 0.15,-0.657 0.309,-1.309 0.487,-1.954 0.029,-0.109 0.061,-0.217 0.091,-0.326 0.196,-0.688 0.403,-1.373 0.628,-2.048 0.023,-0.068 0.046,-0.134 0.068,-0.201 0.244,-0.718 0.502,-1.428 0.778,-2.13 0.012,-0.03 0.022,-0.058 0.034,-0.087 0.293,-0.738 0.602,-1.466 0.931,-2.185 1.684,-3.687 3.826,-7.121 6.372,-10.213 1.141,-1.384 2.365,-2.692 3.656,-3.935 0.074,-1.081 0.207,-2.212 0.426,-3.414 0.709,-3.907 1.916,-6.579 3.459,-8.356 6.971,-8.033 20.905,2.457 27.87,2.457 2.515,0 5.939,-1.369 9.614,-2.74 0.739,-0.276 1.488,-0.549 2.243,-0.814 6.626,-2.327 13.628,-3.801 17.396,3.1 0.887,1.623 1.596,3.704 2.076,6.353 0.165,0.908 0.273,1.767 0.355,2.605 1.609,1.475 3.116,3.059 4.505,4.744 2.647,3.216 4.859,6.8 6.572,10.655 0.146,-0.143 0.281,-0.3 0.43,-0.442 2.677,5.859 4.18,12.367 4.18,19.231 0,2.63 -0.226,5.207 -0.647,7.717 2.167,-0.163 4.59,-0.171 7.29,0.05 14.577,1.197 5.446,15.055 -3.255,21.961 -4.311,3.422 -10.361,2.821 -15.368,1.347 -0.298,0.329 -0.599,0.655 -0.907,0.975 2.902,1.802 7.796,5.703 9.57,12.284 2.588,9.593 -0.03,12.496 -2.356,12.941 -1.945,0.371 -6.254,-14.65 -15.974,-18.069 -1.76,1.11 -3.596,2.11 -5.505,2.979 -0.023,-0.085 -0.04,-0.172 -0.062,-0.258 -5.998,2.833 -12.696,4.424 -19.768,4.424 -6.851,0 -13.348,-1.498 -19.199,-4.166 C 21.099,12.099 21.093,12.097 21.088,12.094 20.205,11.691 19.342,11.251 18.489,10.795 18.262,10.674 18.037,10.549 17.812,10.424 17.085,10.02 16.369,9.599 15.667,9.157 15.571,9.097 15.47,9.045 15.374,8.984 5.364,12.117 0.966,27.568 -1.007,27.191 -3.332,26.746 -5.95,23.843 -3.362,14.25 -1.501,7.347 3.78,3.404 6.604,1.728 6.562,1.683 6.521,1.636 6.479,1.591 6.246,1.343 6.013,1.096 5.786,0.843 4.274,1.311 2.658,1.699 1.014,1.932 1.046,1.996 1.08,2.059 1.112,2.124 l 0,0.104 0,0.48 -3.113,0 -0.211,0 C -3.093,2.708 -3.968,2.35 -4.822,2.199 -4.915,2.182 -5.008,2.025 -5.101,2.007 -5.447,1.939 -5.79,1.788 -6.129,1.692 -6.211,1.669 -6.294,1.614 -6.375,1.59 -6.774,1.468 -7.169,1.309 -7.556,1.145 -7.631,1.114 -7.704,1.065 -7.78,1.032 -8.093,0.89 -8.399,0.73 -8.701,0.558 -8.802,0.5 -8.903,0.442 -9.003,0.38 c -0.363,-0.223 -0.721,-0.463 -1.064,-0.734 -0.543,-0.432 -1.086,-0.89 -1.627,-1.369 -0.002,-0.004 -0.006,-0.006 -0.008,-0.009 -0.539,-0.479 -1.074,-0.979 -1.599,-1.499 -10e-4,-0.002 -0.003,-0.003 -0.005,-0.004 -0.525,-0.52 -1.041,-1.057 -1.541,-1.607 0,-0.002 -0.002,-0.002 -0.003,-0.004 -0.496,-0.547 -0.975,-1.106 -1.435,-1.672 -0.004,-0.005 -0.008,-0.01 -0.012,-0.014 -5.556,-6.867 -7.958,-14.887 2.975,-15.785"
           style="fill:#4d4d4d;fill-opacity:1;fill-rule:evenodd;stroke:none"
           id="path48"
           inkscape:connector-curvature="0" />
      </g>
      <g
         id="g7669"
         transform="matrix(1.25,0,0,-1.25,-728.86503,1127.9733)">
        <g
           id="g534"
           transform="translate(435.2939,525.3799)">
          <path
             d="M 0,0 C 0.339,0.096 0.682,0.179 1.028,0.247 0.682,0.178 0.339,0.097 0,0"
             style="fill:#ffffff;fill-opacity:1;fill-rule:nonzero;stroke:none"
             id="path536"
             inkscape:connector-curvature="0" />
        </g>
        <g
           id="g538"
           transform="translate(436.6006,525.6807)">
          <path
             d="M 0,0 C 0.854,0.15 1.729,0.225 2.61,0.234 1.729,0.225 0.854,0.151 0,0"
             style="fill:#ffffff;fill-opacity:1;fill-rule:nonzero;stroke:none"
             id="path540"
             inkscape:connector-curvature="0" />
        </g>
        <g
           id="g542"
           transform="translate(439.4219,525.915)">
          <path
             d="M 0,0 C 0.916,0 1.838,-0.064 2.754,-0.185 1.838,-0.064 0.916,0 0,0"
             style="fill:#ffffff;fill-opacity:1;fill-rule:nonzero;stroke:none"
             id="path544"
             inkscape:connector-curvature="0" />
        </g>
        <g
           id="g546"
           transform="translate(425.1377,517.2393)">
          <path
             d="M 0,0 C 0.46,0.566 0.939,1.125 1.436,1.672 0.939,1.125 0.459,0.566 0,0"
             style="fill:#ffffff;fill-opacity:1;fill-rule:nonzero;stroke:none"
             id="path548"
             inkscape:connector-curvature="0" />
        </g>
        <g
           id="g550"
           transform="translate(426.5762,518.915)">
          <path
             d="M 0,0 C 0.5,0.55 1.016,1.087 1.541,1.607 1.016,1.087 0.5,0.55 0,0"
             style="fill:#ffffff;fill-opacity:1;fill-rule:nonzero;stroke:none"
             id="path552"
             inkscape:connector-curvature="0" />
        </g>
        <g
           id="g554"
           transform="translate(428.1221,520.5264)">
          <path
             d="M 0,0 C 0.524,0.52 1.06,1.02 1.599,1.499 1.06,1.02 0.524,0.519 0,0"
             style="fill:#ffffff;fill-opacity:1;fill-rule:nonzero;stroke:none"
             id="path556"
             inkscape:connector-curvature="0" />
        </g>
        <g
           id="g558"
           transform="translate(429.7285,522.0342)">
          <path
             d="M 0,0 C 0.541,0.479 1.084,0.937 1.627,1.367 1.084,0.937 0.541,0.479 0,0"
             style="fill:#ffffff;fill-opacity:1;fill-rule:nonzero;stroke:none"
             id="path560"
             inkscape:connector-curvature="0" />
        </g>
        <g
           id="g562"
           transform="translate(432.7217,524.3105)">
          <path
             d="M 0,0 C 0.302,0.172 0.608,0.329 0.921,0.47 0.608,0.329 0.302,0.172 0,0"
             style="fill:#ffffff;fill-opacity:1;fill-rule:nonzero;stroke:none"
             id="path564"
             inkscape:connector-curvature="0" />
        </g>
        <g
           id="g566"
           transform="translate(433.8672,524.8857)">
          <path
             d="M 0,0 C 0.387,0.164 0.781,0.306 1.181,0.428 0.781,0.305 0.387,0.164 0,0"
             style="fill:#ffffff;fill-opacity:1;fill-rule:nonzero;stroke:none"
             id="path568"
             inkscape:connector-curvature="0" />
        </g>
        <g
           id="g570"
           transform="translate(431.3555,523.4014)">
          <path
             d="M 0,0 C 0.344,0.272 0.701,0.511 1.064,0.734 0.701,0.511 0.344,0.272 0,0"
             style="fill:#ffffff;fill-opacity:1;fill-rule:nonzero;stroke:none"
             id="path572"
             inkscape:connector-curvature="0" />
        </g>
        <g
           id="g574"
           transform="translate(434.8418,515.1045)">
          <path
             d="M 0,0 C 3.298,2.092 6.137,2.661 7.374,2.809 7.197,2.52 7.029,2.227 6.857,1.934 8.615,4.936 10.695,7.723 13.06,10.244 12.827,9.996 12.594,9.749 12.367,9.496 10.776,9.988 9.07,10.398 7.337,10.625 6.104,6.562 3.276,3.079 0,0"
             style="fill:#ffffff;fill-opacity:1;fill-rule:nonzero;stroke:none"
             id="path576"
             inkscape:connector-curvature="0" />
        </g>
        <g
           id="g578"
           transform="translate(432.582,513.46)">
          <path
             d="m 0,0 c 0.768,0.633 1.701,1.188 2.438,1.656 3.277,3.079 5.515,6.765 7.515,10.765 l 0,0.104 0,0.48 -3.113,0 -0.211,0 c -0.881,0 -1.756,-0.358 -2.61,-0.508 C 3.926,12.479 3.833,12.322 3.74,12.305 3.394,12.236 3.051,12.085 2.712,11.99 2.63,11.966 2.547,11.912 2.466,11.887 2.066,11.765 1.672,11.606 1.285,11.442 1.21,11.411 1.137,11.362 1.061,11.329 0.748,11.188 0.441,11.027 0.14,10.855 0.039,10.798 -0.062,10.739 -0.162,10.678 -0.525,10.454 -0.883,10.214 -1.227,9.943 -1.77,9.511 -2.313,9.053 -2.854,8.575 -2.855,8.571 -2.859,8.568 -2.861,8.565 -3.4,8.086 -3.936,7.586 -4.46,7.066 -4.461,7.064 -4.463,7.063 -4.465,7.062 -4.99,6.542 -5.506,6.005 -6.006,5.455 -6.006,5.453 -6.008,5.453 -6.009,5.451 -6.505,4.904 -6.984,4.346 -7.444,3.779 -7.448,3.774 -7.452,3.77 -7.456,3.766 -5.486,1.5 -2.79,0.231 0,0"
             style="fill:#404040;fill-opacity:1;fill-rule:nonzero;stroke:none"
             id="path580"
             inkscape:connector-curvature="0" />
        </g>
        <g
           id="g582"
           transform="translate(434.8418,515.1045)">
          <path
             d="m 0,0 c -0.736,-0.467 -1.492,-1.012 -2.26,-1.645 -1.605,-1.324 -3.25,-3.017 -4.818,-5.234 0,0 -2.369,-4.125 9.437,-1.654 0.069,0.238 0.137,0.478 0.209,0.717 0.064,0.207 0.133,0.41 0.2,0.615 0.141,0.439 0.288,0.875 0.442,1.308 0.088,0.247 0.177,0.493 0.269,0.737 0.162,0.431 0.332,0.859 0.505,1.285 0.083,0.201 0.161,0.403 0.245,0.602 0.24,0.56 0.491,1.112 0.75,1.66 0.127,0.267 0.259,0.531 0.392,0.795 0.16,0.322 0.324,0.643 0.492,0.96 C 6.012,0.429 6.16,0.711 6.314,0.988 6.49,1.307 6.674,1.621 6.857,1.934 7.029,2.227 7.197,2.52 7.374,2.809 6.137,2.661 3.298,2.092 0,0"
             style="fill:#ffd6bc;fill-opacity:1;fill-rule:nonzero;stroke:none"
             id="path584"
             inkscape:connector-curvature="0" />
        </g>
        <g
           id="g586"
           transform="translate(532.0957,523.4014)">
          <path
             d="m 0,0 c -4.311,3.422 -10.361,2.821 -15.368,1.347 1.938,-2.142 3.682,-4.462 5.198,-6.939 2.632,-0.465 8.611,-2.305 13.762,-9.584 0,0 2.29,-3.974 -8.768,-1.794 0.471,-1.644 0.853,-3.327 1.141,-5.041 2.167,-0.163 4.59,-0.171 7.29,0.05 C 17.832,-20.764 8.701,-6.906 0,0"
             style="fill:#ffffff;fill-opacity:1;fill-rule:nonzero;stroke:none"
             id="path588"
             inkscape:connector-curvature="0" />
        </g>
        <g
           id="g590"
           transform="translate(535.6875,508.2256)">
          <path
             d="M 0,0 C -5.15,7.278 -11.13,9.119 -13.762,9.584 -11.613,6.073 -9.924,2.252 -8.768,-1.794 2.29,-3.975 0,0 0,0"
             style="fill:#ffd6bc;fill-opacity:1;fill-rule:nonzero;stroke:none"
             id="path592"
             inkscape:connector-curvature="0" />
        </g>
        <g
           id="g594"
           transform="translate(515.8213,525.7236)">
          <path
             d="M 0,0 C 2.901,1.802 7.796,5.703 9.569,12.283 12.157,21.877 9.539,24.779 7.214,25.225 5.269,25.596 0.96,10.574 -8.761,7.155 -5.553,5.131 -2.612,2.725 0,0"
             style="fill:#ffffff;fill-opacity:1;fill-rule:nonzero;stroke:none"
             id="path596"
             inkscape:connector-curvature="0" />
        </g>
        <g
           id="g598"
           transform="translate(445.4971,449.4668)">
          <path
             d="M 0,0 C -0.104,0.601 -0.192,1.208 -0.269,1.819 -0.194,1.208 -0.104,0.602 0,0"
             style="fill:#ffffff;fill-opacity:1;fill-rule:nonzero;stroke:none"
             id="path600"
             inkscape:connector-curvature="0" />
        </g>
        <g
           id="g602"
           transform="translate(516.9219,445.1006)">
          <path
             d="M 0,0 C -0.098,-0.326 -0.206,-0.647 -0.314,-0.969 -0.206,-0.646 -0.098,-0.326 0,0"
             style="fill:#ffffff;fill-opacity:1;fill-rule:nonzero;stroke:none"
             id="path604"
             inkscape:connector-curvature="0" />
        </g>
        <g
           id="g606"
           transform="translate(518.1367,450.6143)">
          <path
             d="M 0,0 C -0.033,-0.241 -0.068,-0.482 -0.106,-0.721 -0.068,-0.481 -0.033,-0.241 0,0"
             style="fill:#ffffff;fill-opacity:1;fill-rule:nonzero;stroke:none"
             id="path608"
             inkscape:connector-curvature="0" />
        </g>
        <g
           id="g610"
           transform="translate(445.0049,453.7217)">
          <path
             d="M 0,0 C -0.039,0.687 -0.062,1.378 -0.062,2.074 -0.062,1.378 -0.038,0.687 0,0"
             style="fill:#ffffff;fill-opacity:1;fill-rule:nonzero;stroke:none"
             id="path612"
             inkscape:connector-curvature="0" />
        </g>
        <g
           id="g614"
           transform="translate(517.4941,447.2314)">
          <path
             d="M 0,0 C -0.116,-0.488 -0.242,-0.973 -0.379,-1.453 -0.243,-0.973 -0.116,-0.488 0,0"
             style="fill:#ffffff;fill-opacity:1;fill-rule:nonzero;stroke:none"
             id="path616"
             inkscape:connector-curvature="0" />
        </g>
        <g
           id="g618"
           transform="translate(517.8574,448.9268)">
          <path
             d="M 0,0 C -0.046,-0.242 -0.088,-0.486 -0.139,-0.727 -0.089,-0.486 -0.046,-0.242 0,0"
             style="fill:#ffffff;fill-opacity:1;fill-rule:nonzero;stroke:none"
             id="path620"
             inkscape:connector-curvature="0" />
        </g>
        <g
           id="g622"
           transform="translate(518.4629,454.0479)">
          <path
             d="M 0,0 C -0.008,-0.193 -0.023,-0.386 -0.036,-0.578 -0.023,-0.386 -0.008,-0.193 0,0"
             style="fill:#ffffff;fill-opacity:1;fill-rule:nonzero;stroke:none"
             id="path624"
             inkscape:connector-curvature="0" />
        </g>
        <g
           id="g626"
           transform="translate(518.3398,452.3184)">
          <path
             d="M 0,0 C -0.021,-0.228 -0.047,-0.456 -0.072,-0.683 -0.047,-0.456 -0.021,-0.229 0,0"
             style="fill:#ffffff;fill-opacity:1;fill-rule:nonzero;stroke:none"
             id="path628"
             inkscape:connector-curvature="0" />
        </g>
        <g
           id="g630"
           transform="translate(445.1875,451.6084)">
          <path
             d="M 0,0 C -0.064,0.559 -0.111,1.123 -0.15,1.688 -0.111,1.122 -0.063,0.559 0,0"
             style="fill:#ffffff;fill-opacity:1;fill-rule:nonzero;stroke:none"
             id="path632"
             inkscape:connector-curvature="0" />
        </g>
        <g
           id="g634"
           transform="translate(436.4316,483.8291)">
          <path
             d="M 0,0 C -0.134,0.614 -0.25,1.236 -0.358,1.859 -0.25,1.235 -0.133,0.615 0,0"
             style="fill:#ffffff;fill-opacity:1;fill-rule:nonzero;stroke:none"
             id="path636"
             inkscape:connector-curvature="0" />
        </g>
        <g
           id="g638"
           transform="translate(435.9707,486.2627)">
          <path
             d="M 0,0 C -0.096,0.594 -0.173,1.193 -0.246,1.795 -0.174,1.193 -0.096,0.594 0,0"
             style="fill:#ffffff;fill-opacity:1;fill-rule:nonzero;stroke:none"
             id="path640"
             inkscape:connector-curvature="0" />
        </g>
        <g
           id="g642"
           transform="translate(435.4277,495.8115)">
          <path
             d="M 0,0 C 0.01,0.205 0.022,0.41 0.035,0.615 0.022,0.41 0.01,0.205 0,0"
             style="fill:#ffffff;fill-opacity:1;fill-rule:nonzero;stroke:none"
             id="path644"
             inkscape:connector-curvature="0" />
        </g>
        <g
           id="g646"
           transform="translate(435.584,498.0322)">
          <path
             d="M 0,0 C 0.018,0.189 0.033,0.379 0.053,0.568 0.033,0.379 0.018,0.189 0,0"
             style="fill:#ffffff;fill-opacity:1;fill-rule:nonzero;stroke:none"
             id="path648"
             inkscape:connector-curvature="0" />
        </g>
        <g
           id="g650"
           transform="translate(435.8984,500.6553)">
          <path
             d="M 0,0 C 0.02,0.125 0.043,0.249 0.062,0.374 0.043,0.249 0.02,0.125 0,0"
             style="fill:#ffffff;fill-opacity:1;fill-rule:nonzero;stroke:none"
             id="path652"
             inkscape:connector-curvature="0" />
        </g>
        <g
           id="g654"
           transform="translate(435.4414,491.1875)">
          <path
             d="M 0,0 C -0.043,0.823 -0.067,1.651 -0.067,2.485 -0.067,1.651 -0.043,0.823 0,0"
             style="fill:#ffffff;fill-opacity:1;fill-rule:nonzero;stroke:none"
             id="path656"
             inkscape:connector-curvature="0" />
        </g>
        <g
           id="g658"
           transform="translate(437.7432,479.0449)">
          <path
             d="M 0,0 C -0.226,0.676 -0.433,1.36 -0.628,2.049 -0.434,1.359 -0.225,0.677 0,0"
             style="fill:#ffffff;fill-opacity:1;fill-rule:nonzero;stroke:none"
             id="path660"
             inkscape:connector-curvature="0" />
        </g>
        <g
           id="g662"
           transform="translate(437.0234,481.4189)">
          <path
             d="M 0,0 C -0.178,0.646 -0.337,1.298 -0.486,1.954 -0.338,1.297 -0.177,0.646 0,0"
             style="fill:#ffffff;fill-opacity:1;fill-rule:nonzero;stroke:none"
             id="path664"
             inkscape:connector-curvature="0" />
        </g>
        <g
           id="g666"
           transform="translate(488.2764,493.7881)">
          <path
             d="M 0,0 C -0.146,4.055 3.024,7.461 7.078,7.604 11.134,7.75 14.538,4.58 14.684,0.525 14.829,-3.531 11.66,-6.936 7.603,-7.082 3.548,-7.225 0.145,-4.055 0,0 m -20.704,-7.082 c -4.058,0.146 -7.227,3.551 -7.081,7.607 0.145,4.055 3.55,7.225 7.605,7.079 4.054,-0.143 7.225,-3.549 7.078,-7.604 -0.144,-4.055 -3.547,-7.225 -7.602,-7.082 m 33.922,48.895 c -5.998,2.833 -12.697,4.423 -19.769,4.423 -6.85,0 -13.347,-1.498 -19.199,-4.166 3.19,-11.836 -3.599,-26.687 -7.74,-37.24 -3.486,-8.879 -8.357,-17.619 -15.233,-24.176 1.685,-3.687 3.827,-7.121 6.372,-10.213 1.141,-1.383 2.366,-2.692 3.657,-3.935 -1.266,18.305 17.334,19.668 31.755,19.668 14.629,0 33.555,-1.406 31.683,-20.477 1.61,1.475 3.116,3.059 4.505,4.744 2.647,3.216 4.859,6.8 6.572,10.656 C 29.179,-12.396 24.429,-3.857 21.02,4.83 16.907,15.307 10.191,30.02 13.218,41.813"
             style="fill:#ffffff;fill-opacity:1;fill-rule:nonzero;stroke:none"
             id="path668"
             inkscape:connector-curvature="0" />
        </g>
        <g
           id="g670"
           transform="translate(438.5889,476.7139)">
          <path
             d="M 0,0 C -0.276,0.702 -0.534,1.412 -0.778,2.131 -0.535,1.412 -0.276,0.702 0,0"
             style="fill:#ffffff;fill-opacity:1;fill-rule:nonzero;stroke:none"
             id="path672"
             inkscape:connector-curvature="0" />
        </g>
        <g
           id="g674"
           transform="translate(439.5537,474.4424)">
          <path
             d="M 0,0 C -0.329,0.719 -0.638,1.447 -0.931,2.185 -0.638,1.447 -0.328,0.719 0,0"
             style="fill:#ffffff;fill-opacity:1;fill-rule:nonzero;stroke:none"
             id="path676"
             inkscape:connector-curvature="0" />
        </g>
        <g
           id="g678"
           transform="translate(435.6406,488.7178)">
          <path
             d="M 0,0 C -0.064,0.603 -0.108,1.212 -0.149,1.822 -0.109,1.212 -0.064,0.604 0,0"
             style="fill:#ffffff;fill-opacity:1;fill-rule:nonzero;stroke:none"
             id="path680"
             inkscape:connector-curvature="0" />
        </g>
        <g
           id="g682"
           transform="translate(437.2012,506.5713)">
          <path
             d="m 0,0 c -11.807,-2.471 -9.438,1.654 -9.438,1.654 1.569,2.217 3.213,3.91 4.819,5.235 -2.79,0.231 -5.486,1.5 -7.456,3.765 -5.556,-6.867 -7.958,-14.887 2.974,-15.785 2.976,-0.244 5.602,-0.201 7.933,0.012 C -0.874,-3.377 -0.483,-1.67 0,0"
             style="fill:#ffffff;fill-opacity:1;fill-rule:nonzero;stroke:none"
             id="path684"
             inkscape:connector-curvature="0" />
        </g>
        <g
           id="g686"
           transform="translate(438.3203,509.9482)">
          <path
             d="M 0,0 C -0.092,-0.244 -0.181,-0.49 -0.269,-0.736 -0.181,-0.49 -0.092,-0.244 0,0"
             style="fill:#ffffff;fill-opacity:1;fill-rule:nonzero;stroke:none"
             id="path688"
             inkscape:connector-curvature="0" />
        </g>
        <g
           id="g690"
           transform="translate(437.6094,507.9033)">
          <path
             d="M 0,0 C -0.066,-0.205 -0.136,-0.408 -0.199,-0.615 -0.136,-0.408 -0.066,-0.205 0,0"
             style="fill:#ffffff;fill-opacity:1;fill-rule:nonzero;stroke:none"
             id="path692"
             inkscape:connector-curvature="0" />
        </g>
        <g
           id="g694"
           transform="translate(439.0713,511.8359)">
          <path
             d="M 0,0 C -0.085,-0.199 -0.162,-0.401 -0.245,-0.603 -0.162,-0.401 -0.085,-0.199 0,0"
             style="fill:#ffffff;fill-opacity:1;fill-rule:nonzero;stroke:none"
             id="path696"
             inkscape:connector-curvature="0" />
        </g>
        <g
           id="g698"
           transform="translate(441.1562,516.0928)">
          <path
             d="M 0,0 C -0.154,-0.277 -0.303,-0.56 -0.451,-0.842 -0.303,-0.56 -0.154,-0.277 0,0"
             style="fill:#ffffff;fill-opacity:1;fill-rule:nonzero;stroke:none"
             id="path700"
             inkscape:connector-curvature="0" />
        </g>
        <g
           id="g702"
           transform="translate(440.2129,514.29)">
          <path
             d="M 0,0 C -0.133,-0.264 -0.265,-0.527 -0.392,-0.795 -0.265,-0.527 -0.133,-0.264 0,0"
             style="fill:#ffffff;fill-opacity:1;fill-rule:nonzero;stroke:none"
             id="path704"
             inkscape:connector-curvature="0" />
        </g>
        <g
           id="g706"
           transform="translate(462.5107,535.8516)">
          <path
             d="m 0,0 c -1.983,-0.905 -3.892,-1.946 -5.714,-3.11 -10.01,3.132 -14.408,18.584 -16.381,18.207 -2.325,-0.446 -4.943,-3.348 -2.355,-12.942 1.861,-6.902 7.142,-10.845 9.967,-12.521 4.087,4.324 9,7.863 14.483,10.366"
             style="fill:#ffffff;fill-opacity:1;fill-rule:nonzero;stroke:none"
             id="path708"
             inkscape:connector-curvature="0" />
        </g>
        <g
           id="g710"
           transform="translate(462.5264,535.8584)">
          <path
             d="m 0,0 0,0 c -0.005,-0.002 -0.011,-0.004 -0.016,-0.007 -5.483,-2.503 -10.395,-6.042 -14.483,-10.366 -0.042,-0.045 -0.084,-0.092 -0.126,-0.137 -2.364,-2.521 -4.444,-5.308 -6.202,-8.31 -0.184,-0.313 -0.367,-0.627 -0.543,-0.946 -0.154,-0.277 -0.303,-0.559 -0.451,-0.841 -0.168,-0.318 -0.332,-0.639 -0.492,-0.961 -0.133,-0.264 -0.265,-0.528 -0.392,-0.795 -0.26,-0.548 -0.511,-1.1 -0.75,-1.659 -0.085,-0.2 -0.162,-0.402 -0.245,-0.603 -0.174,-0.426 -0.344,-0.854 -0.506,-1.285 -0.092,-0.244 -0.181,-0.49 -0.269,-0.736 -0.154,-0.434 -0.3,-0.87 -0.442,-1.309 -0.066,-0.205 -0.136,-0.408 -0.199,-0.615 -0.072,-0.239 -0.141,-0.479 -0.209,-0.717 -0.484,-1.67 -0.874,-3.377 -1.168,-5.119 -0.025,-0.141 -0.049,-0.282 -0.072,-0.423 -0.02,-0.125 -0.043,-0.249 -0.063,-0.374 -0.103,-0.68 -0.187,-1.365 -0.262,-2.055 -0.019,-0.189 -0.035,-0.379 -0.052,-0.568 -0.049,-0.533 -0.09,-1.069 -0.121,-1.606 -0.013,-0.205 -0.026,-0.41 -0.036,-0.615 -0.031,-0.71 -0.053,-1.422 -0.053,-2.139 0,-0.834 0.024,-1.662 0.067,-2.485 0.012,-0.218 0.035,-0.431 0.05,-0.647 0.041,-0.611 0.085,-1.22 0.149,-1.823 0.024,-0.221 0.057,-0.44 0.084,-0.66 0.073,-0.601 0.151,-1.201 0.246,-1.795 0.032,-0.192 0.069,-0.383 0.103,-0.574 0.108,-0.623 0.224,-1.245 0.358,-1.859 0.033,-0.154 0.071,-0.305 0.106,-0.456 0.149,-0.657 0.308,-1.309 0.486,-1.954 0.029,-0.109 0.062,-0.217 0.092,-0.326 0.195,-0.688 0.402,-1.373 0.628,-2.048 0.022,-0.068 0.046,-0.134 0.067,-0.201 0.244,-0.718 0.502,-1.428 0.779,-2.131 0.011,-0.029 0.022,-0.057 0.034,-0.086 0.293,-0.738 0.601,-1.466 0.93,-2.185 6.876,6.557 11.747,15.297 15.233,24.176 C -3.599,-26.687 3.19,-11.836 0,0"
             style="fill:#404040;fill-opacity:1;fill-rule:nonzero;stroke:none"
             id="path712"
             inkscape:connector-curvature="0" />
        </g>
        <g
           id="g714"
           transform="translate(521.9258,517.8096)">
          <path
             d="m 0,0 c -1.516,2.477 -3.26,4.797 -5.198,6.938 -0.298,0.33 -0.599,0.656 -0.906,0.976 -2.613,2.725 -5.553,5.131 -8.761,7.155 -1.76,1.111 -3.596,2.111 -5.505,2.98 -0.023,-0.085 -0.04,-0.172 -0.062,-0.258 -3.026,-11.793 3.69,-26.506 7.802,-36.982 3.409,-8.688 8.159,-17.227 14.802,-23.734 0.146,-0.143 0.281,-0.301 0.431,-0.442 2.676,5.859 4.179,12.367 4.179,19.23 0,2.631 -0.226,5.207 -0.647,7.718 -0.288,1.714 -0.67,3.397 -1.141,5.041 C 3.838,-7.332 2.148,-3.511 0,0"
             style="fill:#404040;fill-opacity:1;fill-rule:nonzero;stroke:none"
             id="path716"
             inkscape:connector-curvature="0" />
        </g>
        <g
           id="g718"
           transform="translate(495.5508,496.5146)">
          <path
             d="M 0,0 C 1.447,-0.051 2.579,-1.266 2.528,-2.713 2.513,-3.182 2.362,-3.609 2.135,-3.982 1.713,-2.822 0.702,-1.84 -0.83,-1.785 -1.639,-1.758 -2.255,-1.994 -2.694,-2.385 -2.568,-1.008 -1.398,0.051 0,0 M 7.409,-2.201 C 7.264,1.854 3.859,5.023 -0.196,4.878 -4.25,4.734 -7.421,1.328 -7.274,-2.727 c 0.144,-4.054 3.547,-7.224 7.602,-7.082 4.058,0.147 7.227,3.551 7.081,7.608"
             style="fill:#404040;fill-opacity:1;fill-rule:nonzero;stroke:none"
             id="path720"
             inkscape:connector-curvature="0" />
        </g>
        <g
           id="g722"
           transform="translate(497.6855,492.5322)">
          <path
             d="M 0,0 C 0.228,0.373 0.378,0.801 0.394,1.27 0.444,2.717 -0.687,3.932 -2.135,3.982 -3.533,4.033 -4.703,2.975 -4.829,1.598 -4.39,1.988 -3.773,2.225 -2.965,2.197 -1.433,2.143 -0.422,1.16 0,0"
             style="fill:#ffffff;fill-opacity:1;fill-rule:nonzero;stroke:none"
             id="path724"
             inkscape:connector-curvature="0" />
        </g>
        <g
           id="g726"
           transform="translate(467.9004,496.5146)">
          <path
             d="m 0,0 c 1.398,0.051 2.568,-1.008 2.694,-2.385 -0.439,0.391 -1.055,0.627 -1.864,0.6 -1.532,-0.055 -2.543,-1.037 -2.965,-2.197 -0.227,0.373 -0.378,0.8 -0.393,1.269 C -2.579,-1.266 -1.447,-0.051 0,0 M 7.274,-2.727 C 7.421,1.328 4.25,4.734 0.196,4.878 c -4.055,0.145 -7.46,-3.024 -7.605,-7.079 -0.146,-4.057 3.023,-7.461 7.081,-7.608 4.055,-0.142 7.458,3.028 7.602,7.082"
             style="fill:#404040;fill-opacity:1;fill-rule:nonzero;stroke:none"
             id="path728"
             inkscape:connector-curvature="0" />
        </g>
        <g
           id="g730"
           transform="translate(468.7305,494.7295)">
          <path
             d="M 0,0 C 0.809,0.027 1.425,-0.209 1.864,-0.6 1.738,0.777 0.568,1.836 -0.83,1.785 -2.277,1.734 -3.409,0.52 -3.358,-0.928 -3.343,-1.396 -3.192,-1.824 -2.965,-2.197 -2.543,-1.037 -1.532,-0.055 0,0"
             style="fill:#ffffff;fill-opacity:1;fill-rule:nonzero;stroke:none"
             id="path732"
             inkscape:connector-curvature="0" />
        </g>
        <g
           id="g734"
           transform="translate(461.4434,467.7529)">
          <path
             d="M 0,0 C 1.934,0 3.5,-1.566 3.5,-3.5 3.5,-5.434 1.934,-7 0,-7 c -1.933,0 -3.5,1.566 -3.5,3.5 0,1.934 1.567,3.5 3.5,3.5 m 38,0 c 1.934,0 3.5,-1.566 3.5,-3.5 0,-1.934 -1.566,-3.5 -3.5,-3.5 -1.933,0 -3.5,1.566 -3.5,3.5 0,1.934 1.567,3.5 3.5,3.5 M -7.977,-19.229 c 6.971,-8.033 20.906,2.458 27.871,2.458 2.514,0 5.938,-1.37 9.614,-2.741 0.738,-0.275 1.487,-0.549 2.242,-0.813 6.627,-2.327 13.629,-3.802 17.396,3.099 0.887,1.623 1.596,3.705 2.077,6.353 0.165,0.908 0.272,1.768 0.354,2.605 1.872,19.071 -17.054,20.477 -31.683,20.477 -14.421,0 -33.021,-1.363 -31.755,-19.668 0.074,-1.081 0.207,-2.212 0.425,-3.414 0.709,-3.906 1.916,-6.578 3.459,-8.356"
             style="fill:#ffd6bc;fill-opacity:1;fill-rule:nonzero;stroke:none"
             id="path736"
             inkscape:connector-curvature="0" />
        </g>
        <g
           id="g738"
           transform="translate(461.4434,460.7529)">
          <path
             d="M 0,0 C 1.934,0 3.5,1.566 3.5,3.5 3.5,5.434 1.934,7 0,7 -1.933,7 -3.5,5.434 -3.5,3.5 -3.5,1.566 -1.933,0 0,0"
             style="fill:#e27e54;fill-opacity:1;fill-rule:nonzero;stroke:none"
             id="path740"
             inkscape:connector-curvature="0" />
        </g>
        <g
           id="g742"
           transform="translate(499.4434,460.7529)">
          <path
             d="M 0,0 C 1.934,0 3.5,1.566 3.5,3.5 3.5,5.434 1.934,7 0,7 -1.933,7 -3.5,5.434 -3.5,3.5 -3.5,1.566 -1.933,0 0,0"
             style="fill:#e27e54;fill-opacity:1;fill-rule:nonzero;stroke:none"
             id="path744"
             inkscape:connector-curvature="0" />
        </g>
      </g>
    </g>
  </g>
</svg>
