<?xml version="1.0" encoding="UTF-8" standalone="no"?>
<!-- Created with Inkscape (http://www.inkscape.org/) -->

<svg
   xmlns:dc="http://purl.org/dc/elements/1.1/"
   xmlns:cc="http://creativecommons.org/ns#"
   xmlns:rdf="http://www.w3.org/1999/02/22-rdf-syntax-ns#"
   xmlns:svg="http://www.w3.org/2000/svg"
   xmlns="http://www.w3.org/2000/svg"
   xmlns:sodipodi="http://sodipodi.sourceforge.net/DTD/sodipodi-0.dtd"
   xmlns:inkscape="http://www.inkscape.org/namespaces/inkscape"
   width="36.50375mm"
   height="37.603138mm"
   viewBox="0 0 129.344 133.23946"
   id="svg5344"
   version="1.1"
   inkscape:version="0.91 r13725"
   sodipodi:docname="lvl4.svg">
  <defs
     id="defs5346" />
  <sodipodi:namedview
     id="base"
     pagecolor="#ffffff"
     bordercolor="#666666"
     borderopacity="1.0"
     inkscape:pageopacity="0.0"
     inkscape:pageshadow="2"
     inkscape:zoom="1.4"
     inkscape:cx="163.34958"
     inkscape:cy="86.455108"
     inkscape:document-units="px"
     inkscape:current-layer="layer1"
     showgrid="false"
     fit-margin-top="0"
     fit-margin-left="0"
     fit-margin-right="0"
     fit-margin-bottom="0"
     showborder="false"
     inkscape:window-width="1366"
     inkscape:window-height="699"
     inkscape:window-x="0"
     inkscape:window-y="0"
     inkscape:window-maximized="1" />
  <metadata
     id="metadata5349">
    <rdf:RDF>
      <cc:Work
         rdf:about="">
        <dc:format>image/svg+xml</dc:format>
        <dc:type
           rdf:resource="http://purl.org/dc/dcmitype/StillImage" />
        <dc:title />
      </cc:Work>
    </rdf:RDF>
  </metadata>
  <g
     inkscape:label="Calque 1"
     inkscape:groupmode="layer"
     id="layer1"
     transform="translate(216.57303,-351.09912)">
    <g
       id="g4188">
      <g
         style="fill:#4d4d4d"
         transform="matrix(1.25,0,0,-1.25,-95.48654,382.77358)"
         id="g86">
        <path
           d="m 0,0 c 4.747,5.92 3.799,14.566 -2.121,19.317 -5.919,4.748 -14.567,3.798 -19.316,-2.122 l -2.827,-3.524 c -5.676,2.285 -11.872,3.555 -18.367,3.555 -6.495,0 -12.689,-1.27 -18.367,-3.555 l -2.826,3.524 c -4.75,5.92 -13.398,6.87 -19.317,2.122 C -89.061,14.566 -90.008,5.92 -85.262,0 l 2.645,-3.298 c -5.816,-8.085 -9.252,-17.996 -9.252,-28.716 0,-24.971 18.593,-45.587 42.687,-48.791 0.257,-0.035 0.514,-0.067 0.772,-0.098 0.42,-0.049 0.84,-0.096 1.262,-0.134 0.426,-0.039 0.856,-0.069 1.286,-0.098 0.308,-0.02 0.615,-0.045 0.924,-0.058 0.765,-0.036 1.534,-0.059 2.307,-0.059 0.774,0 1.541,0.023 2.306,0.059 0.311,0.013 0.62,0.039 0.929,0.058 0.428,0.029 0.854,0.058 1.278,0.098 0.427,0.038 0.85,0.085 1.273,0.135 0.252,0.03 0.503,0.061 0.753,0.095 24.1,3.201 42.698,23.818 42.698,48.793 0,10.72 -3.436,20.631 -9.252,28.716 L 0,0 Z"
           style="fill:#4d4d4d;fill-opacity:1;fill-rule:evenodd;stroke:none"
           id="path88"
           inkscape:connector-curvature="0" />
      </g>
      <g
         id="g8889"
         transform="matrix(1.25,0,0,-1.25,-979.50266,562.18395)">
        <g
           id="g1498"
           transform="translate(610.3437,114.5146)">
          <path
             d="M 0,0 C 0,27.193 22.044,49.239 49.238,49.239 76.432,49.239 98.476,27.193 98.476,0 98.476,-27.194 76.432,-49.238 49.238,-49.238 22.044,-49.238 0,-27.194 0,0"
             style="fill:#ffffff;fill-opacity:1;fill-rule:nonzero;stroke:none"
             id="path1500"
             inkscape:connector-curvature="0" />
        </g>
        <g
           id="g1502"
           transform="translate(621.2246,114.127)">
          <path
             d="m 0,0 c 0,6.926 5.615,12.539 12.542,12.539 6.921,0 12.539,-5.613 12.539,-12.539 0,-6.926 -5.618,-12.543 -12.539,-12.543 C 5.615,-12.543 0,-6.926 0,0"
             style="fill:#3c3c3b;fill-opacity:1;fill-rule:nonzero;stroke:none"
             id="path1504"
             inkscape:connector-curvature="0" />
        </g>
        <g
           id="g1506"
           transform="translate(672.8574,114.127)">
          <path
             d="M 0,0 C 0,6.926 5.615,12.539 12.541,12.539 19.462,12.539 25.08,6.926 25.08,0 25.08,-6.926 19.462,-12.543 12.541,-12.543 5.615,-12.543 0,-6.926 0,0"
             style="fill:#3c3c3b;fill-opacity:1;fill-rule:nonzero;stroke:none"
             id="path1508"
             inkscape:connector-curvature="0" />
        </g>
        <g
           id="g1510"
           transform="translate(659.582,100.1953)">
          <path
             d="m 0,0 c -8.777,0 -15.894,-6.841 -15.894,-15.282 l 0,-16.958 c 4.96,-1.733 10.312,-2.679 15.894,-2.679 5.58,0 10.931,0.946 15.891,2.679 l 0,16.958 C 15.891,-6.841 8.775,0 0,0"
             style="fill:#f6f6f6;fill-opacity:1;fill-rule:nonzero;stroke:none"
             id="path1512"
             inkscape:connector-curvature="0" />
        </g>
        <g
           id="g1514"
           transform="translate(619.0723,165.8457)">
          <path
             d="M 0,0 C 5.919,4.748 14.566,3.798 19.316,-2.122 L 23.63,-7.501 2.192,-24.696 -2.121,-19.317 C -6.867,-13.397 -5.92,-4.751 0,0"
             style="fill:#3c3c3b;fill-opacity:1;fill-rule:nonzero;stroke:none"
             id="path1516"
             inkscape:connector-curvature="0" />
        </g>
        <g
           id="g1518"
           transform="translate(700.0918,165.8457)">
          <path
             d="m 0,0 c -5.919,4.748 -14.567,3.798 -19.315,-2.122 l -4.315,-5.379 21.437,-17.195 4.314,5.379 C 6.868,-13.397 5.92,-4.751 0,0"
             style="fill:#3c3c3b;fill-opacity:1;fill-rule:nonzero;stroke:none"
             id="path1520"
             inkscape:connector-curvature="0" />
        </g>
        <g
           id="g1522"
           transform="translate(629.0713,114.5391)">
          <path
             d="M 0,0 C 0.395,1.983 2.322,3.272 4.305,2.878 6.291,2.483 7.58,0.556 7.184,-1.429 7.133,-1.683 7.057,-1.923 6.961,-2.151 6.5,-1.532 5.775,-1.056 4.738,-0.849 2.869,-0.479 1.336,-1.274 0.389,-2.485 -0.018,-1.755 -0.178,-0.882 0,0 m 2.461,-6.402 c 3.141,-0.625 6.193,1.414 6.82,4.555 C 9.904,1.296 7.865,4.347 4.723,4.973 1.582,5.599 -1.469,3.559 -2.096,0.417 -2.721,-2.724 -0.682,-5.777 2.461,-6.402"
             style="fill:#ffffff;fill-opacity:1;fill-rule:nonzero;stroke:none"
             id="path1524"
             inkscape:connector-curvature="0" />
        </g>
        <g
           id="g1526"
           transform="translate(633.8096,113.6904)">
          <path
             d="M 0,0 C 1.037,-0.207 1.762,-0.684 2.223,-1.303 2.318,-1.074 2.395,-0.834 2.445,-0.58 2.842,1.404 1.553,3.332 -0.434,3.727 -2.416,4.121 -4.344,2.832 -4.738,0.849 -4.916,-0.033 -4.756,-0.906 -4.35,-1.637 -3.402,-0.426 -1.869,0.369 0,0"
             style="fill:#000000;fill-opacity:1;fill-rule:nonzero;stroke:none"
             id="path1528"
             inkscape:connector-curvature="0" />
        </g>
        <g
           id="g1530"
           transform="translate(688.8682,112.0537)">
          <path
             d="M 0,0 C -0.947,1.211 -2.48,2.006 -4.35,1.637 -5.387,1.43 -6.111,0.953 -6.572,0.334 -6.668,0.562 -6.744,0.803 -6.795,1.057 -7.191,3.041 -5.902,4.969 -3.916,5.363 -1.934,5.758 -0.006,4.469 0.389,2.485 0.566,1.604 0.406,0.73 0,0 M 2.484,2.902 C 1.857,6.044 -1.193,8.084 -4.334,7.458 -7.477,6.832 -9.516,3.781 -8.893,0.639 c 0.627,-3.142 3.68,-5.181 6.821,-4.556 3.142,0.625 5.181,3.679 4.556,6.819"
             style="fill:#ffffff;fill-opacity:1;fill-rule:nonzero;stroke:none"
             id="path1532"
             inkscape:connector-curvature="0" />
        </g>
        <g
           id="g1534"
           transform="translate(684.5186,113.6904)">
          <path
             d="m 0,0 c -1.037,-0.207 -1.762,-0.684 -2.223,-1.303 -0.095,0.229 -0.172,0.469 -0.222,0.723 -0.397,1.984 0.892,3.912 2.879,4.307 C 2.416,4.121 4.344,2.832 4.738,0.849 4.916,-0.033 4.756,-0.906 4.35,-1.637 3.402,-0.426 1.869,0.369 0,0"
             style="fill:#000000;fill-opacity:1;fill-rule:nonzero;stroke:none"
             id="path1536"
             inkscape:connector-curvature="0" />
        </g>
        <g
           id="g1538"
           transform="translate(659.582,93.4072)">
          <path
             d="m 0,0 c -0.273,0.015 -0.547,0.023 -0.816,0.027 l -0.002,-12.846 c -1.661,-2.911 -3.76,-4.561 -6.244,-4.906 -5.276,-0.718 -12.543,5.54 -12.809,5.272 5.625,-6.279 14.56,-10.171 19.871,-2.16 5.311,-8.011 14.244,-4.119 19.871,2.16 -0.266,0.268 -7.533,-5.99 -12.81,-5.272 -2.483,0.345 -4.582,1.995 -6.245,4.906 l 0,12.846 C 0.545,0.023 0.271,0.015 0,0"
             style="fill:#000000;fill-opacity:1;fill-rule:evenodd;stroke:none"
             id="path1540"
             inkscape:connector-curvature="0" />
        </g>
        <g
           id="g1542"
           transform="translate(659.5801,105.7988)">
          <path
             d="m 0,0 c -13.467,0.142 -13.35,-4.736 -6.305,-9.708 2.567,-1.812 4.737,-3.021 6.305,-3.788 1.568,0.767 3.74,1.976 6.307,3.788 C 13.352,-4.736 13.469,0.142 0,0"
             style="fill:#3c3c3b;fill-opacity:1;fill-rule:evenodd;stroke:none"
             id="path1544"
             inkscape:connector-curvature="0" />
        </g>
      </g>
    </g>
  </g>
</svg>
