<?xml version="1.0" encoding="UTF-8" standalone="no"?>
<!-- Created with Inkscape (http://www.inkscape.org/) -->

<svg
   xmlns:dc="http://purl.org/dc/elements/1.1/"
   xmlns:cc="http://creativecommons.org/ns#"
   xmlns:rdf="http://www.w3.org/1999/02/22-rdf-syntax-ns#"
   xmlns:svg="http://www.w3.org/2000/svg"
   xmlns="http://www.w3.org/2000/svg"
   xmlns:sodipodi="http://sodipodi.sourceforge.net/DTD/sodipodi-0.dtd"
   xmlns:inkscape="http://www.inkscape.org/namespaces/inkscape"
   width="43.150719mm"
   height="34.375168mm"
   viewBox="0 0 152.89625 121.80177"
   id="svg5344"
   version="1.1"
   inkscape:version="0.91 r13725"
   sodipodi:docname="lvl5.svg">
  <defs
     id="defs5346" />
  <sodipodi:namedview
     id="base"
     pagecolor="#ffffff"
     bordercolor="#666666"
     borderopacity="1.0"
     inkscape:pageopacity="0.0"
     inkscape:pageshadow="2"
     inkscape:zoom="0.7"
     inkscape:cx="520.10397"
     inkscape:cy="244.57564"
     inkscape:document-units="px"
     inkscape:current-layer="layer1"
     showgrid="false"
     fit-margin-top="0"
     fit-margin-left="0"
     fit-margin-right="0"
     fit-margin-bottom="0"
     showborder="false"
     inkscape:window-width="1366"
     inkscape:window-height="699"
     inkscape:window-x="0"
     inkscape:window-y="0"
     inkscape:window-maximized="1" />
  <metadata
     id="metadata5349">
    <rdf:RDF>
      <cc:Work
         rdf:about="">
        <dc:format>image/svg+xml</dc:format>
        <dc:type
           rdf:resource="http://purl.org/dc/dcmitype/StillImage" />
        <dc:title />
      </cc:Work>
    </rdf:RDF>
  </metadata>
  <g
     inkscape:label="Calque 1"
     inkscape:groupmode="layer"
     id="layer1"
     transform="translate(159.77773,-482.53225)">
    <g
       id="g4214">
      <g
         style="fill:#333333"
         transform="matrix(1.25,0,0,-1.25,-140.96774,564.42449)"
         id="g74">
        <path
           d="m 0,0 c -0.222,-0.639 -0.46,-1.263 -0.723,-1.865 -2.097,-0.843 -5.868,-3.902 -6.785,-8.954 1.917,1.459 5.178,2.852 8.577,1.312 -0.944,-0.303 -1.679,-0.807 -2.264,-1.399 -2.73,-0.381 -5.086,-1.08 -6.678,-2.25 1.898,0.782 3.979,1.315 6.16,1.658 -1.512,-1.985 -1.638,-4.535 -1.638,-4.535 0.754,0.777 4.764,2.912 9.081,2.363 -2.51,-1.088 -1.766,-2.532 -2.136,-4.438 5.211,1.58 10.411,0.377 11.667,-1.55 15.135,-16.378 51.563,-16.341 66.699,0 1.257,1.927 6.457,3.13 11.665,1.55 -0.369,1.906 0.378,3.35 -2.134,4.438 4.317,0.549 8.326,-1.586 9.08,-2.363 0,0 -0.126,2.55 -1.637,4.535 2.18,-0.343 4.261,-0.876 6.159,-1.658 -1.591,1.169 -3.948,1.869 -6.677,2.249 -0.585,0.593 -1.32,1.097 -2.265,1.4 3.401,1.54 6.659,0.147 8.578,-1.312 -0.917,5.052 -4.687,8.111 -6.785,8.954 -0.262,0.602 -0.502,1.226 -0.723,1.865 3.481,0.498 6.898,0.612 10.048,0.1 -2.537,1.088 -6.204,1.062 -10.231,0.44 -0.917,2.818 -1.488,5.963 -1.962,9.293 1.925,0.328 3.824,0.509 5.659,0.457 -1.605,0.449 -3.571,0.438 -5.738,0.107 -0.786,5.689 -1.334,11.887 -2.851,17.907 7.355,12.6 5.318,34.21 5.318,34.21 0,0 -17.017,-0.155 -27.262,-8.544 -0.572,0.238 -1.154,0.47 -1.757,0.695 -14.001,5.21 -25.67,5.21 -39.67,0 -0.602,-0.225 -1.184,-0.458 -1.757,-0.695 -10.245,8.388 -27.261,8.544 -27.261,8.544 0,0 -2.038,-21.61 5.319,-34.21 C 3.559,22.284 3.011,16.085 2.224,10.397 0.058,10.728 -1.909,10.739 -3.515,10.29 -1.68,10.342 0.22,10.161 2.145,9.833 1.672,6.503 1.1,3.358 0.184,0.54 -3.845,1.162 -7.512,1.188 -10.048,0.1 -6.898,0.612 -3.481,0.498 0,0"
           style="fill:#333333;fill-opacity:1;fill-rule:evenodd;stroke:none"
           id="path76"
           inkscape:connector-curvature="0" />
      </g>
      <g
         id="g7320"
         transform="matrix(1.25,0,0,-1.25,-910.93111,1163.4876)">
        <g
           id="g7282">
          <g
             transform="translate(642.4609,531.2803)"
             id="g1318">
            <path
               inkscape:connector-curvature="0"
               id="path1320"
               style="fill:#7c7f81;fill-opacity:1;fill-rule:evenodd;stroke:none"
               d="m 0,0 c -8.528,13.283 -31.733,13.484 -31.733,13.484 0,0 -2.826,-29.867 10.114,-39.849 L 0,0 Z" />
          </g>
          <g
             transform="translate(676.7002,531.2803)"
             id="g1322">
            <path
               inkscape:connector-curvature="0"
               id="path1324"
               style="fill:#7c7f81;fill-opacity:1;fill-rule:evenodd;stroke:none"
               d="m 0,0 c 8.529,13.283 31.734,13.484 31.734,13.484 0,0 2.825,-29.867 -10.113,-39.849 L 0,0 Z" />
          </g>
          <g
             transform="translate(617.2686,537.3193)"
             id="g1326">
            <path
               inkscape:connector-curvature="0"
               id="path1328"
               style="fill:#d65a6f;fill-opacity:1;fill-rule:evenodd;stroke:none"
               d="M 0,0 C 0,0 11.113,0.198 18.647,-8.053 26.183,-16.303 5.161,-25.16 5.161,-25.16 5.161,-25.16 -3.365,-11.875 0,0" />
          </g>
          <g
             transform="translate(701.8936,537.3193)"
             id="g1330">
            <path
               inkscape:connector-curvature="0"
               id="path1332"
               style="fill:#d65a6f;fill-opacity:1;fill-rule:evenodd;stroke:none"
               d="m 0,0 c 0,0 -11.112,0.198 -18.649,-8.053 -7.533,-8.25 13.486,-17.107 13.486,-17.107 0,0 8.526,13.285 5.163,25.16" />
          </g>
          <g
             transform="translate(639.7461,536.915)"
             id="g1334">
            <path
               inkscape:connector-curvature="0"
               id="path1336"
               style="fill:#8d8f92;fill-opacity:1;fill-rule:evenodd;stroke:none"
               d="m 0,0 c -30.975,-11.527 -22.603,-40.748 -29.498,-56.529 -2.098,-0.844 -5.868,-3.903 -6.785,-8.954 1.917,1.459 5.178,2.851 8.577,1.311 -4.176,-1.337 -4.42,-6.525 -4.42,-6.525 0.754,0.776 4.764,2.912 9.081,2.362 -2.511,-1.088 -1.767,-2.531 -2.137,-4.437 5.211,1.58 10.411,0.376 11.667,-1.55 l 0.536,0.788 c 0.036,0.01 0.068,0.022 0.098,0.034 7.151,-6.79 19.136,-10.308 32.715,-10.308 l 0.002,0 c 13.577,0 25.563,3.518 32.715,10.308 0.028,-0.012 0.062,-0.024 0.098,-0.034 l 0.536,-0.788 c 1.256,1.926 6.457,3.13 11.665,1.55 -0.37,1.906 0.378,3.349 -2.134,4.437 4.316,0.55 8.326,-1.586 9.08,-2.362 0,0 -0.244,5.188 -4.42,6.525 3.4,1.54 6.658,0.148 8.578,-1.311 -0.918,5.051 -4.687,8.11 -6.785,8.954 C 62.272,-40.748 70.646,-11.527 39.67,0 25.669,5.211 14,5.211 0,0" />
          </g>
          <g
             transform="translate(626.2314,462.5928)"
             id="g1338">
            <path
               inkscape:connector-curvature="0"
               id="path1340"
               style="fill:#ffffff;fill-opacity:1;fill-rule:evenodd;stroke:none"
               d="M 0,0 C 15.136,-16.378 51.563,-16.341 66.699,0 61.731,31.771 5.439,31.687 0,0" />
          </g>
          <g
             transform="translate(660.4687,478.4502)"
             id="g1342">
            <path
               inkscape:connector-curvature="0"
               id="path1344"
               style="fill:#000000;fill-opacity:1;fill-rule:evenodd;stroke:none"
               d="m 0,0 c -0.272,0.015 -0.546,0.023 -0.815,0.027 l -0.002,-12.846 c -1.661,-2.911 -3.761,-4.561 -6.245,-4.906 -5.276,-0.718 -12.543,5.54 -12.809,5.272 5.626,-6.279 14.56,-10.172 19.871,-2.16 5.311,-8.012 14.245,-4.119 19.871,2.16 -0.266,0.268 -7.533,-5.99 -12.809,-5.272 -2.484,0.345 -4.583,1.995 -6.245,4.906 l 0,12.846 C 0.546,0.023 0.272,0.015 0,0" />
          </g>
          <g
             transform="translate(660.4678,490.8423)"
             id="g1346">
            <path
               inkscape:connector-curvature="0"
               id="path1348"
               style="fill:#d65a6f;fill-opacity:1;fill-rule:evenodd;stroke:none"
               d="m 0,0 c -13.467,0.141 -13.351,-4.736 -6.305,-9.708 2.567,-1.812 4.737,-3.021 6.305,-3.789 1.568,0.768 3.739,1.977 6.306,3.789 C 13.352,-4.736 13.468,0.141 0,0" />
          </g>
          <g
             transform="translate(637.0967,473.6777)"
             id="g1350">
            <path
               inkscape:connector-curvature="0"
               id="path1352"
               style="fill:#7d7c7d;fill-opacity:1;fill-rule:evenodd;stroke:none"
               d="m 0,0 c 0.137,0.306 0.003,0.662 -0.294,0.798 -1.08,0.49 -26.382,11.949 -35.88,7.875 C -24.345,10.597 -8.768,3.858 0,0" />
          </g>
          <g
             transform="translate(682.0664,473.6777)"
             id="g1354">
            <path
               inkscape:connector-curvature="0"
               id="path1356"
               style="fill:#7d7c7d;fill-opacity:1;fill-rule:evenodd;stroke:none"
               d="m 0,0 c -0.14,0.306 -0.004,0.662 0.293,0.798 1.078,0.49 26.38,11.949 35.88,7.875 C 24.343,10.597 8.766,3.858 0,0" />
          </g>
          <g
             transform="translate(642.21,479.1611)"
             id="g1358">
            <path
               inkscape:connector-curvature="0"
               id="path1360"
               style="fill:#7d7c7d;fill-opacity:1;fill-rule:evenodd;stroke:none"
               d="M 0,0 C 0.175,0.285 0.086,0.656 -0.189,0.83 -1.197,1.458 -24.813,16.162 -34.754,13.379 -22.777,13.723 -8.197,4.984 0,0" />
          </g>
          <g
             transform="translate(676.9521,479.1611)"
             id="g1362">
            <path
               inkscape:connector-curvature="0"
               id="path1364"
               style="fill:#7d7c7d;fill-opacity:1;fill-rule:evenodd;stroke:none"
               d="M 0,0 C -0.176,0.285 -0.088,0.656 0.19,0.83 1.195,1.458 24.812,16.162 34.754,13.379 22.777,13.723 8.198,4.984 0,0" />
          </g>
          <g
             transform="translate(636.4795,468.918)"
             id="g1366">
            <path
               inkscape:connector-curvature="0"
               id="path1368"
               style="fill:#7d7c7d;fill-opacity:1;fill-rule:evenodd;stroke:none"
               d="M 0,0 C 0.059,0.296 -0.129,0.58 -0.418,0.638 -1.459,0.846 -25.881,5.688 -33.382,0.177 -23.412,4.285 -8.44,1.582 0,0" />
          </g>
          <g
             transform="translate(682.6836,468.918)"
             id="g1370">
            <path
               inkscape:connector-curvature="0"
               id="path1372"
               style="fill:#7d7c7d;fill-opacity:1;fill-rule:evenodd;stroke:none"
               d="M 0,0 C -0.06,0.296 0.129,0.58 0.415,0.638 1.458,0.846 25.878,5.688 33.38,0.177 23.411,4.285 8.44,1.582 0,0" />
          </g>
          <g
             transform="translate(636.0713,503.5391)"
             id="g1374">
            <path
               inkscape:connector-curvature="0"
               id="path1376"
               style="fill:#ffffff;fill-opacity:1;fill-rule:nonzero;stroke:none"
               d="M 0,0 C 0.395,1.983 2.322,3.272 4.305,2.878 6.291,2.483 7.58,0.556 7.184,-1.429 7.133,-1.683 7.057,-1.923 6.961,-2.151 6.5,-1.532 5.775,-1.056 4.738,-0.849 2.869,-0.479 1.336,-1.274 0.389,-2.485 -0.018,-1.755 -0.178,-0.882 0,0 m 2.461,-6.402 c 3.141,-0.625 6.193,1.414 6.82,4.555 C 9.904,1.296 7.865,4.347 4.723,4.973 1.582,5.599 -1.469,3.559 -2.096,0.417 -2.721,-2.724 -0.682,-5.777 2.461,-6.402" />
          </g>
          <g
             transform="translate(640.8096,502.6904)"
             id="g1378">
            <path
               inkscape:connector-curvature="0"
               id="path1380"
               style="fill:#000000;fill-opacity:1;fill-rule:nonzero;stroke:none"
               d="M 0,0 C 1.037,-0.207 1.762,-0.684 2.223,-1.303 2.318,-1.074 2.395,-0.834 2.445,-0.58 2.842,1.404 1.553,3.332 -0.434,3.727 -2.416,4.121 -4.344,2.832 -4.738,0.849 -4.916,-0.033 -4.756,-0.906 -4.35,-1.637 -3.402,-0.426 -1.869,0.369 0,0" />
          </g>
          <g
             transform="translate(681.8682,501.0537)"
             id="g1382">
            <path
               inkscape:connector-curvature="0"
               id="path1384"
               style="fill:#ffffff;fill-opacity:1;fill-rule:nonzero;stroke:none"
               d="M 0,0 C -0.947,1.211 -2.48,2.006 -4.35,1.637 -5.387,1.43 -6.111,0.953 -6.572,0.334 -6.668,0.562 -6.744,0.803 -6.795,1.057 -7.191,3.041 -5.902,4.969 -3.916,5.363 -1.934,5.758 -0.006,4.469 0.389,2.485 0.566,1.604 0.406,0.73 0,0 M 2.484,2.902 C 1.857,6.044 -1.193,8.084 -4.334,7.458 -7.477,6.832 -9.516,3.781 -8.893,0.639 c 0.627,-3.142 3.68,-5.181 6.821,-4.556 3.142,0.625 5.181,3.679 4.556,6.819" />
          </g>
          <g
             transform="translate(677.5186,502.6904)"
             id="g1386">
            <path
               inkscape:connector-curvature="0"
               id="path1388"
               style="fill:#000000;fill-opacity:1;fill-rule:nonzero;stroke:none"
               d="m 0,0 c -1.037,-0.207 -1.762,-0.684 -2.223,-1.303 -0.095,0.229 -0.172,0.469 -0.222,0.723 -0.397,1.984 0.892,3.912 2.879,4.307 C 2.416,4.121 4.344,2.832 4.738,0.849 4.916,-0.033 4.756,-0.906 4.35,-1.637 3.402,-0.426 1.869,0.369 0,0" />
          </g>
        </g>
      </g>
    </g>
  </g>
</svg>
