<?xml version="1.0" encoding="UTF-8" standalone="no"?>
<!-- Created with Inkscape (http://www.inkscape.org/) -->

<svg
   xmlns:dc="http://purl.org/dc/elements/1.1/"
   xmlns:cc="http://creativecommons.org/ns#"
   xmlns:rdf="http://www.w3.org/1999/02/22-rdf-syntax-ns#"
   xmlns:svg="http://www.w3.org/2000/svg"
   xmlns="http://www.w3.org/2000/svg"
   xmlns:sodipodi="http://sodipodi.sourceforge.net/DTD/sodipodi-0.dtd"
   xmlns:inkscape="http://www.inkscape.org/namespaces/inkscape"
   width="49.409031mm"
   height="38.379131mm"
   viewBox="0 0 175.07137 135.98905"
   id="svg5167"
   version="1.1"
   inkscape:version="0.91 r13725"
   sodipodi:docname="lvl6.svg">
  <defs
     id="defs5169" />
  <sodipodi:namedview
     id="base"
     pagecolor="#ffffff"
     bordercolor="#666666"
     borderopacity="1.0"
     inkscape:pageopacity="0.0"
     inkscape:pageshadow="2"
     inkscape:zoom="0.7"
     inkscape:cx="453.32613"
     inkscape:cy="-22.510935"
     inkscape:document-units="px"
     inkscape:current-layer="layer1"
     showgrid="false"
     showborder="false"
     fit-margin-top="0"
     fit-margin-left="0"
     fit-margin-right="0"
     fit-margin-bottom="0"
     inkscape:window-width="1366"
     inkscape:window-height="699"
     inkscape:window-x="0"
     inkscape:window-y="0"
     inkscape:window-maximized="1" />
  <metadata
     id="metadata5172">
    <rdf:RDF>
      <cc:Work
         rdf:about="">
        <dc:format>image/svg+xml</dc:format>
        <dc:type
           rdf:resource="http://purl.org/dc/dcmitype/StillImage" />
        <dc:title />
      </cc:Work>
    </rdf:RDF>
  </metadata>
  <g
     inkscape:label="Calque 1"
     inkscape:groupmode="layer"
     id="layer1"
     transform="translate(-275.32145,-444.36768)">
    <g
       id="g4398">
      <g
         style="fill:#4d4d4d"
         transform="matrix(1.25,0,0,-1.25,442.83033,538.55994)"
         id="g70">
        <path
           d="M 0,0 C -1.694,2.178 -7.502,9.195 -7.502,9.195 L 6.05,13.068 1.451,16.697 c -4.597,3.631 -16.938,8.471 -16.938,8.471 0,0 -0.126,1.101 -0.423,2.83 -10e-4,0.008 -0.003,0.018 -0.005,0.025 -0.052,0.301 -0.109,0.623 -0.172,0.96 -0.023,0.125 -0.05,0.258 -0.074,0.387 -0.043,0.223 -0.086,0.446 -0.134,0.682 -0.031,0.16 -0.066,0.325 -0.101,0.491 -0.044,0.216 -0.09,0.433 -0.139,0.656 -0.041,0.188 -0.083,0.376 -0.126,0.569 -0.049,0.215 -0.101,0.434 -0.152,0.656 -0.048,0.203 -0.097,0.406 -0.148,0.614 -0.056,0.228 -0.115,0.459 -0.176,0.691 -0.052,0.206 -0.103,0.409 -0.159,0.617 -0.075,0.278 -0.155,0.56 -0.235,0.842 -0.077,0.272 -0.156,0.542 -0.238,0.816 -0.091,0.305 -0.182,0.609 -0.28,0.916 0,0 -0.001,-0.001 -0.001,-0.002 -0.177,0.554 -0.361,1.106 -0.559,1.658 0,10e-4 -10e-4,0.002 -10e-4,0.003 -0.278,0.772 -0.577,1.536 -0.9,2.282 -0.005,0.011 -0.009,0.021 -0.013,0.032 -0.146,0.336 -0.297,0.667 -0.453,0.995 5.359,2.529 9.086,8.06 9.086,14.495 0,8.82 -6.988,15.971 -15.608,15.971 -6.507,0 -12.079,-4.078 -14.422,-9.869 -0.156,0.062 -0.301,0.13 -0.459,0.191 -2.772,1.061 -5.392,1.785 -7.801,2.303 0,0.004 10e-4,0.009 10e-4,0.013 -0.336,0.072 -0.662,0.137 -0.988,0.2 -0.185,0.037 -0.369,0.074 -0.55,0.108 -0.316,0.058 -0.628,0.113 -0.933,0.165 -0.19,0.031 -0.374,0.059 -0.559,0.089 -0.598,0.092 -1.175,0.174 -1.729,0.241 -0.099,0.012 -0.204,0.026 -0.301,0.038 -0.278,0.032 -0.543,0.059 -0.809,0.085 -0.157,0.016 -0.314,0.031 -0.468,0.045 -0.262,0.023 -0.521,0.045 -0.769,0.063 -0.104,0.008 -0.201,0.014 -0.302,0.021 -0.579,0.039 -1.125,0.066 -1.622,0.082 l 0,-0.001 c -1.551,0.051 -2.683,0.008 -3.27,-0.029 -0.585,0.037 -1.718,0.08 -3.269,0.029 l 0,0.001 c -0.495,-0.016 -1.039,-0.043 -1.616,-0.082 -0.104,-0.007 -0.203,-0.013 -0.31,-0.021 -0.247,-0.018 -0.504,-0.04 -0.764,-0.063 -0.156,-0.014 -0.316,-0.029 -0.476,-0.046 -0.264,-0.026 -0.526,-0.052 -0.802,-0.084 -0.112,-0.013 -0.231,-0.029 -0.346,-0.044 -0.54,-0.065 -1.1,-0.144 -1.68,-0.234 -0.188,-0.03 -0.374,-0.059 -0.566,-0.091 -0.305,-0.051 -0.615,-0.106 -0.929,-0.164 -0.184,-0.034 -0.37,-0.071 -0.557,-0.108 -0.325,-0.064 -0.649,-0.128 -0.984,-0.2 0,-0.004 0.001,-0.009 0.001,-0.013 -2.41,-0.517 -5.03,-1.242 -7.801,-2.303 -0.158,-0.061 -0.303,-0.129 -0.458,-0.191 -2.344,5.791 -7.916,9.869 -14.423,9.869 -8.621,0 -15.608,-7.151 -15.608,-15.971 0,-6.435 3.726,-11.966 9.086,-14.495 -0.156,-0.328 -0.307,-0.659 -0.453,-0.995 -0.004,-0.011 -0.008,-0.021 -0.013,-0.032 -0.323,-0.746 -0.622,-1.51 -0.9,-2.282 0,-10e-4 -0.001,-0.002 -0.001,-0.003 -0.198,-0.551 -0.384,-1.104 -0.561,-1.657 l 0,0.001 c -0.006,-0.018 -0.011,-0.036 -0.017,-0.054 -0.127,-0.4 -0.248,-0.8 -0.364,-1.196 -0.032,-0.111 -0.063,-0.22 -0.094,-0.33 -0.082,-0.285 -0.162,-0.569 -0.238,-0.851 -0.036,-0.134 -0.07,-0.265 -0.105,-0.398 -0.067,-0.253 -0.132,-0.505 -0.195,-0.753 -0.035,-0.142 -0.069,-0.28 -0.103,-0.419 -0.058,-0.239 -0.115,-0.475 -0.168,-0.707 -0.032,-0.134 -0.062,-0.266 -0.092,-0.398 -0.054,-0.236 -0.105,-0.467 -0.154,-0.697 -0.026,-0.118 -0.052,-0.237 -0.077,-0.354 -0.05,-0.242 -0.099,-0.477 -0.145,-0.709 -0.019,-0.091 -0.038,-0.184 -0.056,-0.273 -0.057,-0.293 -0.111,-0.575 -0.162,-0.847 -0.003,-0.02 -0.008,-0.04 -0.011,-0.06 -0.411,-2.228 -0.58,-3.706 -0.58,-3.706 0,0 -12.342,-4.84 -16.938,-8.471 l -4.599,-3.629 13.552,-3.873 c 0,0 -5.808,-7.017 -7.502,-9.195 -1.692,-2.178 -2.419,-3.871 -2.419,-3.871 l 11.373,0 c 0,0 -0.183,-0.288 -0.484,-0.779 l -0.004,-0.004 c -0.587,-0.957 -1.623,-2.689 -2.654,-4.604 l -0.111,-0.208 c -0.126,-0.235 -0.25,-0.472 -0.375,-0.712 -0.045,-0.088 -0.091,-0.176 -0.137,-0.264 -0.124,-0.243 -0.245,-0.484 -0.365,-0.726 -0.037,-0.074 -0.075,-0.148 -0.111,-0.223 -0.153,-0.313 -0.303,-0.626 -0.446,-0.935 -0.019,-0.04 -0.036,-0.079 -0.054,-0.119 -0.12,-0.263 -0.235,-0.522 -0.345,-0.778 -0.042,-0.096 -0.08,-0.192 -0.12,-0.288 -0.083,-0.199 -0.162,-0.395 -0.237,-0.589 -0.04,-0.102 -0.078,-0.204 -0.116,-0.304 -0.071,-0.192 -0.135,-0.377 -0.196,-0.56 -0.028,-0.087 -0.059,-0.175 -0.086,-0.259 -0.081,-0.259 -0.153,-0.511 -0.209,-0.748 -0.847,-3.598 -0.767,-6.643 -0.734,-7.348 0.005,-0.101 0.009,-0.154 0.009,-0.154 0,0 0.521,0.208 1.479,0.527 0.411,0.136 0.903,0.293 1.467,0.462 4.143,1.237 12.253,3.139 21.735,2.64 6.95,-0.365 12.603,-2.818 17.188,-5.441 0.655,-0.375 1.288,-0.753 1.9,-1.129 3.607,-2.218 6.483,-4.361 8.74,-5.285 0.021,-0.008 0.038,-0.014 0.057,-0.023 0.407,-0.165 0.788,-0.311 1.155,-0.447 0.113,-0.041 0.222,-0.081 0.33,-0.119 0.319,-0.114 0.624,-0.22 0.913,-0.313 0.049,-0.015 0.104,-0.035 0.153,-0.049 0.328,-0.105 0.634,-0.193 0.923,-0.272 0.08,-0.021 0.156,-0.041 0.233,-0.061 0.232,-0.06 0.452,-0.114 0.657,-0.16 0.05,-0.01 0.102,-0.024 0.15,-0.034 0.245,-0.052 0.47,-0.094 0.679,-0.129 0.04,-0.006 0.077,-0.011 0.117,-0.017 0.179,-0.028 0.348,-0.05 0.501,-0.067 0.024,-0.002 0.05,-0.006 0.074,-0.007 0.362,-0.037 0.641,-0.044 0.848,-0.039 0.208,-0.005 0.489,0.002 0.852,0.039 0.022,10e-4 0.044,0.004 0.066,0.007 0.157,0.017 0.329,0.039 0.514,0.068 0.035,0.006 0.068,0.01 0.105,0.016 0.211,0.035 0.44,0.077 0.689,0.13 0.041,0.009 0.086,0.021 0.129,0.03 0.214,0.047 0.443,0.103 0.685,0.166 0.07,0.018 0.138,0.036 0.211,0.055 0.295,0.081 0.606,0.171 0.941,0.277 0.036,0.011 0.076,0.026 0.113,0.038 0.303,0.096 0.625,0.207 0.96,0.327 0.099,0.036 0.197,0.071 0.299,0.108 0.39,0.145 0.793,0.298 1.227,0.476 0.665,0.272 1.383,0.65 2.158,1.104 1.355,0.796 2.883,1.826 4.6,2.934 5.155,3.322 12.018,7.342 21.07,7.817 9.482,0.499 17.592,-1.403 21.735,-2.64 0.564,-0.169 1.056,-0.326 1.467,-0.462 0.958,-0.319 1.479,-0.527 1.479,-0.527 0,0 0.009,0.119 0.016,0.34 0.032,0.956 0.045,3.821 -0.74,7.162 -0.057,0.242 -0.131,0.499 -0.215,0.764 -0.021,0.065 -0.044,0.133 -0.066,0.199 -0.067,0.203 -0.139,0.411 -0.218,0.625 -0.033,0.085 -0.065,0.172 -0.099,0.258 -0.081,0.212 -0.168,0.427 -0.259,0.646 -0.034,0.08 -0.066,0.16 -0.101,0.241 -0.12,0.28 -0.246,0.564 -0.378,0.852 -0.008,0.017 -0.015,0.032 -0.023,0.049 -0.145,0.316 -0.299,0.635 -0.455,0.954 -0.03,0.063 -0.062,0.125 -0.094,0.188 -0.125,0.254 -0.251,0.507 -0.381,0.758 -0.044,0.085 -0.088,0.17 -0.132,0.254 -0.123,0.239 -0.248,0.475 -0.373,0.709 -0.04,0.075 -0.079,0.15 -0.119,0.224 -0.154,0.284 -0.306,0.563 -0.457,0.837 l -0.024,0.044 c -0.341,0.613 -0.671,1.191 -0.979,1.722 -0.019,0.032 -0.036,0.062 -0.055,0.093 -0.135,0.231 -0.263,0.45 -0.387,0.657 -0.017,0.03 -0.035,0.06 -0.053,0.089 -0.267,0.45 -0.506,0.845 -0.696,1.154 l -10e-4,0.001 c -0.303,0.493 -0.486,0.782 -0.486,0.782 l 11.374,0 c 0,0 -0.727,1.693 -2.42,3.871"
           style="fill:#4d4d4d;fill-opacity:1;fill-rule:evenodd;stroke:none"
           id="path72"
           inkscape:connector-curvature="0" />
      </g>
      <g
         id="g8050"
         transform="matrix(1.25,0,0,-1.25,-466.01492,908.94206)">
        <g
           id="g1134"
           transform="translate(724.4961,295.4346)">
          <path
             d="m 0,0 c 0,0 -0.727,1.693 -2.42,3.871 -1.694,2.178 -7.502,9.195 -7.502,9.195 l 13.552,3.873 -4.599,3.629 c -4.596,3.631 -16.938,8.471 -16.938,8.471 0,0 -0.126,1.101 -0.423,2.83 -1.913,-1.144 -4.554,-1.935 -5.877,-2.584 -1.98,-0.969 -4.077,-1.748 -6.093,-2.568 0.049,2.09 3.321,5.363 4.492,7.094 1.439,2.121 3.125,4.187 4.706,6.162 0.185,0.23 0.398,0.541 0.633,0.818 1.071,-3.353 1.747,-6.65 2.134,-8.896 -0.45,2.616 -1.294,6.661 -2.694,10.552 -1.559,-0.922 -3.607,-1.566 -4.985,-2.236 -1.76,-0.856 -4.12,-2.277 -6.069,-2.356 0.213,1.438 6.7,7.887 8.979,9.301 0.004,-0.01 0.01,-0.018 0.015,-0.028 -0.64,1.194 -1.331,2.407 -2.083,3.62 -2.875,4.633 -6.701,9.251 -12.488,12.786 -1.712,1.046 -3.598,1.994 -5.68,2.822 -0.156,0.062 -0.301,0.13 -0.459,0.191 -3.15,1.206 -6.121,1.994 -8.788,2.516 0.326,-0.063 0.652,-0.127 0.988,-0.2 -0.368,-4.015 -1.473,-7.937 -2.486,-11.843 -0.826,-3.19 -1.529,-6.682 -3.028,-9.614 -1.331,5.387 -2.014,11.045 -2.758,16.565 -0.254,1.881 -0.432,4.019 -0.758,6.029 0.497,-0.016 1.043,-0.043 1.622,-0.082 -2.389,0.16 -4.116,0.101 -4.891,0.052 -0.775,0.049 -2.498,0.108 -4.886,-0.052 0.577,0.039 1.121,0.066 1.616,0.082 -0.326,-2.01 -0.504,-4.148 -0.758,-6.029 -0.744,-5.52 -1.427,-11.178 -2.758,-16.565 -1.499,2.932 -2.202,6.424 -3.028,9.614 -1.013,3.906 -2.118,7.828 -2.486,11.843 0.335,0.073 0.659,0.136 0.984,0.2 -2.666,-0.523 -5.636,-1.31 -8.784,-2.516 -0.158,-0.061 -0.303,-0.129 -0.458,-0.191 -2.082,-0.828 -3.969,-1.776 -5.681,-2.822 -5.787,-3.535 -9.613,-8.153 -12.488,-12.786 -0.746,-1.204 -1.432,-2.406 -2.067,-3.592 2.28,-1.415 8.765,-7.863 8.977,-9.301 -1.948,0.079 -4.307,1.5 -6.068,2.356 -1.378,0.67 -3.426,1.314 -4.985,2.236 -0.198,-0.551 -0.384,-1.104 -0.561,-1.657 0.235,-0.276 0.449,-0.587 0.635,-0.817 1.58,-1.975 3.266,-4.041 4.705,-6.162 1.172,-1.731 4.443,-5.004 4.492,-7.094 -2.016,0.82 -4.112,1.599 -6.093,2.568 -1.324,0.649 -3.964,1.44 -5.876,2.584 0.384,2.235 1.057,5.522 2.12,8.868 -1.887,-5.936 -2.544,-11.698 -2.544,-11.698 0,0 -12.341,-4.84 -16.938,-8.471 l -4.599,-3.629 13.552,-3.873 c 0,0 -5.808,-7.017 -7.502,-9.195 C -127.069,1.693 -127.796,0 -127.796,0 l 11.373,0 c 0,0 -0.182,-0.288 -0.484,-0.779 11.231,12.836 35.012,14.746 53.009,14.006 17.998,0.74 41.782,-1.17 53.01,-14.009 C -11.19,-0.289 -11.374,0 -11.374,0 L 0,0 Z"
             style="fill:#e67a25;fill-opacity:1;fill-rule:nonzero;stroke:none"
             id="path1136"
             inkscape:connector-curvature="0" />
        </g>
        <g
           id="g7922">
          <g
             transform="translate(693.6436,362.2295)"
             id="g1062">
            <path
               inkscape:connector-curvature="0"
               id="path1064"
               style="fill:#b85e26;fill-opacity:1;fill-rule:nonzero;stroke:none"
               d="m 0,0 c 4.898,0 8.87,-4.064 8.87,-9.078 0,-2.801 -1.241,-5.304 -3.189,-6.969 0.752,-1.213 1.442,-2.426 2.083,-3.62 0.034,-0.061 0.067,-0.122 0.1,-0.183 0.005,-0.008 0.009,-0.018 0.013,-0.027 0.201,-0.378 0.394,-0.766 0.58,-1.159 5.358,2.529 9.086,8.06 9.086,14.495 0,8.82 -6.988,15.971 -15.608,15.971 -6.507,0 -12.08,-4.077 -14.422,-9.868 2.082,-0.829 3.967,-1.777 5.679,-2.823 C -5.181,-1.269 -2.736,0 0,0" />
          </g>
          <g
             transform="translate(702.5137,353.1514)"
             id="g1066">
            <path
               inkscape:connector-curvature="0"
               id="path1068"
               style="fill:#ffffff;fill-opacity:1;fill-rule:nonzero;stroke:none"
               d="m 0,0 c 0,5.014 -3.972,9.078 -8.87,9.078 -2.736,0 -5.181,-1.268 -6.808,-3.261 C -9.891,2.282 -6.064,-2.336 -3.189,-6.969 -1.241,-5.304 0,-2.801 0,0" />
          </g>
          <g
             transform="translate(619.6875,342.3799)"
             id="g1070">
            <path
               inkscape:connector-curvature="0"
               id="path1072"
               style="fill:#b85e26;fill-opacity:1;fill-rule:nonzero;stroke:none"
               d="m 0,0 c 0.037,0.07 0.078,0.141 0.115,0.211 l 0.001,0 c 0.636,1.185 1.321,2.388 2.068,3.592 -1.949,1.665 -3.19,4.168 -3.19,6.968 0,5.014 3.972,9.079 8.87,9.079 2.737,0 5.181,-1.269 6.808,-3.261 1.712,1.046 3.599,1.994 5.681,2.822 -2.344,5.791 -7.916,9.868 -14.423,9.868 -8.621,0 -15.609,-7.15 -15.609,-15.97 0,-6.435 3.727,-11.966 9.086,-14.496 0.187,0.394 0.379,0.782 0.58,1.16 C -0.009,-0.019 -0.005,-0.009 0,0" />
          </g>
          <g
             transform="translate(627.5518,362.2295)"
             id="g1074">
            <path
               inkscape:connector-curvature="0"
               id="path1076"
               style="fill:#ffffff;fill-opacity:1;fill-rule:nonzero;stroke:none"
               d="m 0,0 c -4.898,0 -8.87,-4.064 -8.87,-9.078 0,-2.801 1.241,-5.304 3.189,-6.969 2.875,4.633 6.702,9.251 12.489,12.786 C 5.181,-1.269 2.736,0 0,0" />
          </g>
          <g
             transform="translate(717.2656,288.1104)"
             id="g1078">
            <path
               inkscape:connector-curvature="0"
               id="path1080"
               style="fill:#ffac45;fill-opacity:1;fill-rule:nonzero;stroke:none"
               d="M 0,0 C 0.031,-0.062 0.063,-0.125 0.094,-0.187 0.063,-0.125 0.031,-0.062 0,0" />
          </g>
          <g
             transform="translate(717.8145,286.9687)"
             id="g1082">
            <path
               inkscape:connector-curvature="0"
               id="path1084"
               style="fill:#ffac45;fill-opacity:1;fill-rule:nonzero;stroke:none"
               d="M 0,0 C 0.008,-0.017 0.015,-0.032 0.022,-0.049 0.015,-0.032 0.008,-0.017 0,0" />
          </g>
          <g
             transform="translate(716.752,289.123)"
             id="g1086">
            <path
               inkscape:connector-curvature="0"
               id="path1088"
               style="fill:#ffac45;fill-opacity:1;fill-rule:nonzero;stroke:none"
               d="M 0,0 C 0.044,-0.084 0.088,-0.169 0.132,-0.254 0.088,-0.169 0.044,-0.085 0,0" />
          </g>
          <g
             transform="translate(718.2148,286.0674)"
             id="g1090">
            <path
               inkscape:connector-curvature="0"
               id="path1092"
               style="fill:#ffac45;fill-opacity:1;fill-rule:nonzero;stroke:none"
               d="M 0,0 C 0.035,-0.081 0.067,-0.161 0.102,-0.241 0.067,-0.161 0.035,-0.081 0,0" />
          </g>
          <g
             transform="translate(718.5752,285.1807)"
             id="g1094">
            <path
               inkscape:connector-curvature="0"
               id="path1096"
               style="fill:#ffac45;fill-opacity:1;fill-rule:nonzero;stroke:none"
               d="M 0,0 C 0.034,-0.086 0.066,-0.173 0.099,-0.258 0.066,-0.172 0.034,-0.087 0,0" />
          </g>
          <g
             transform="translate(714.3057,293.498)"
             id="g1098">
            <path
               inkscape:connector-curvature="0"
               id="path1100"
               style="fill:#ffac45;fill-opacity:1;fill-rule:nonzero;stroke:none"
               d="M 0,0 C 0.018,-0.029 0.035,-0.06 0.053,-0.09 0.035,-0.06 0.018,-0.029 0,0" />
          </g>
          <g
             transform="translate(715.7793,290.9365)"
             id="g1102">
            <path
               inkscape:connector-curvature="0"
               id="path1104"
               style="fill:#ffac45;fill-opacity:1;fill-rule:nonzero;stroke:none"
               d="M 0,0 0.023,-0.044 0,0 Z" />
          </g>
          <g
             transform="translate(716.2598,290.0557)"
             id="g1106">
            <path
               inkscape:connector-curvature="0"
               id="path1108"
               style="fill:#ffac45;fill-opacity:1;fill-rule:nonzero;stroke:none"
               d="M 0,0 C 0.04,-0.074 0.079,-0.149 0.119,-0.224 0.079,-0.148 0.04,-0.074 0,0" />
          </g>
          <g
             transform="translate(714.7451,292.752)"
             id="g1110">
            <path
               inkscape:connector-curvature="0"
               id="path1112"
               style="fill:#ffac45;fill-opacity:1;fill-rule:nonzero;stroke:none"
               d="M 0,0 C 0.019,-0.031 0.036,-0.062 0.055,-0.094 0.036,-0.062 0.019,-0.031 0,0" />
          </g>
          <g
             transform="translate(718.8926,284.2979)"
             id="g1114">
            <path
               inkscape:connector-curvature="0"
               id="path1116"
               style="fill:#ffac45;fill-opacity:1;fill-rule:nonzero;stroke:none"
               d="M 0,0 C 0.021,-0.066 0.045,-0.134 0.065,-0.199 0.045,-0.134 0.021,-0.066 0,0" />
          </g>
          <g
             transform="translate(667.0283,365.2236)"
             id="g1118">
            <path
               inkscape:connector-curvature="0"
               id="path1120"
               style="fill:#ffac45;fill-opacity:1;fill-rule:nonzero;stroke:none"
               d="M 0,0 C 0.266,-0.026 0.531,-0.053 0.809,-0.085 0.53,-0.053 0.267,-0.026 0,0" />
          </g>
          <g
             transform="translate(695.2158,279.4639)"
             id="g1122">
            <path
               inkscape:connector-curvature="0"
               id="path1124"
               style="fill:#ffac45;fill-opacity:1;fill-rule:nonzero;stroke:none"
               d="M 0,0 C -12.069,-0.636 -20.248,-7.57 -25.67,-10.753 -20.248,-7.57 -12.069,-0.636 0,-0.002 9.482,0.497 17.593,-1.405 21.735,-2.643 17.593,-1.405 9.482,0.498 0,0" />
          </g>
          <g
             transform="translate(668.1387,365.1006)"
             id="g1126">
            <path
               inkscape:connector-curvature="0"
               id="path1128"
               style="fill:#ffac45;fill-opacity:1;fill-rule:nonzero;stroke:none"
               d="M 0,0 C 0.554,-0.067 1.131,-0.148 1.729,-0.241 1.131,-0.148 0.555,-0.067 0,0" />
          </g>
          <g
             transform="translate(665.791,365.332)"
             id="g1130">
            <path
               inkscape:connector-curvature="0"
               id="path1132"
               style="fill:#ffac45;fill-opacity:1;fill-rule:nonzero;stroke:none"
               d="M 0,0 C 0.248,-0.019 0.507,-0.04 0.77,-0.063 0.506,-0.04 0.25,-0.019 0,0" />
          </g>
          <g
             transform="translate(702.5664,340.167)"
             id="g1138">
            <path
               inkscape:connector-curvature="0"
               id="path1140"
               style="fill:#ffac45;fill-opacity:1;fill-rule:nonzero;stroke:none"
               d="M 0,0 C 0.322,-0.746 0.622,-1.511 0.899,-2.282 0.621,-1.511 0.322,-0.746 0,0" />
          </g>
          <g
             transform="translate(667.3877,267.6064)"
             id="g1142">
            <path
               inkscape:connector-curvature="0"
               id="path1144"
               style="fill:#ffac45;fill-opacity:1;fill-rule:nonzero;stroke:none"
               d="M 0,0 C -0.434,-0.178 -0.837,-0.331 -1.227,-0.476 -0.837,-0.331 -0.434,-0.178 0,0" />
          </g>
          <g
             transform="translate(670.4258,364.7705)"
             id="g1146">
            <path
               inkscape:connector-curvature="0"
               id="path1148"
               style="fill:#ffac45;fill-opacity:1;fill-rule:nonzero;stroke:none"
               d="M 0,0 C 0.306,-0.052 0.617,-0.106 0.934,-0.165 0.617,-0.106 0.307,-0.052 0,0" />
          </g>
          <g
             transform="translate(665.8623,267.0225)"
             id="g1150">
            <path
               inkscape:connector-curvature="0"
               id="path1152"
               style="fill:#ffac45;fill-opacity:1;fill-rule:nonzero;stroke:none"
               d="M 0,0 C -0.335,-0.12 -0.657,-0.23 -0.96,-0.327 -0.657,-0.23 -0.336,-0.12 0,0" />
          </g>
          <g
             transform="translate(664.7891,266.6572)"
             id="g1154">
            <path
               inkscape:connector-curvature="0"
               id="path1156"
               style="fill:#ffac45;fill-opacity:1;fill-rule:nonzero;stroke:none"
               d="M 0,0 C -0.335,-0.105 -0.646,-0.195 -0.94,-0.276 -0.646,-0.195 -0.335,-0.105 0,0" />
          </g>
          <g
             transform="translate(718.418,276.3594)"
             id="g1158">
            <path
               inkscape:connector-curvature="0"
               id="path1160"
               style="fill:#ffac45;fill-opacity:1;fill-rule:nonzero;stroke:none"
               d="M 0,0 C -0.411,0.137 -0.902,0.293 -1.467,0.462 -0.902,0.293 -0.411,0.137 0,0" />
          </g>
          <g
             transform="translate(662.8232,266.1299)"
             id="g1162">
            <path
               inkscape:connector-curvature="0"
               id="path1164"
               style="fill:#ffac45;fill-opacity:1;fill-rule:nonzero;stroke:none"
               d="M 0,0 C -0.249,-0.053 -0.479,-0.096 -0.689,-0.13 -0.478,-0.096 -0.249,-0.053 0,0" />
          </g>
          <g
             transform="translate(663.6367,266.3252)"
             id="g1166">
            <path
               inkscape:connector-curvature="0"
               id="path1168"
               style="fill:#ffac45;fill-opacity:1;fill-rule:nonzero;stroke:none"
               d="M 0,0 C -0.241,-0.062 -0.471,-0.118 -0.685,-0.166 -0.471,-0.118 -0.242,-0.062 0,0" />
          </g>
          <g
             transform="translate(662.0293,265.9834)"
             id="g1170">
            <path
               inkscape:connector-curvature="0"
               id="path1172"
               style="fill:#ffac45;fill-opacity:1;fill-rule:nonzero;stroke:none"
               d="M 0,0 C -0.186,-0.028 -0.357,-0.051 -0.514,-0.067 -0.357,-0.051 -0.186,-0.028 0,0" />
          </g>
          <g
             transform="translate(702.5527,340.1982)"
             id="g1174">
            <path
               inkscape:connector-curvature="0"
               id="path1176"
               style="fill:#ffac45;fill-opacity:1;fill-rule:nonzero;stroke:none"
               d="M 0,0 C -0.146,0.336 -0.297,0.667 -0.452,0.995 -0.639,1.389 -0.831,1.776 -1.032,2.154 -0.664,1.462 -0.32,0.741 0,0" />
          </g>
          <g
             transform="translate(604.8203,289.8398)"
             id="g1178">
            <path
               inkscape:connector-curvature="0"
               id="path1180"
               style="fill:#ffac45;fill-opacity:1;fill-rule:nonzero;stroke:none"
               d="M 0,0 0.111,0.208 0,0 Z" />
          </g>
          <g
             transform="translate(617.7295,337.8848)"
             id="g1182">
            <path
               inkscape:connector-curvature="0"
               id="path1184"
               style="fill:#ffac45;fill-opacity:1;fill-rule:nonzero;stroke:none"
               d="M 0,0 C 0.277,0.771 0.577,1.536 0.899,2.282 0.577,1.536 0.278,0.771 0,0" />
          </g>
          <g
             transform="translate(603.332,286.8604)"
             id="g1186">
            <path
               inkscape:connector-curvature="0"
               id="path1188"
               style="fill:#ffac45;fill-opacity:1;fill-rule:nonzero;stroke:none"
               d="M 0,0 C 0.019,0.04 0.035,0.079 0.054,0.119 0.035,0.079 0.019,0.04 0,0" />
          </g>
          <g
             transform="translate(604.3086,288.8633)"
             id="g1190">
            <path
               inkscape:connector-curvature="0"
               id="path1192"
               style="fill:#ffac45;fill-opacity:1;fill-rule:nonzero;stroke:none"
               d="M 0,0 C 0.046,0.089 0.092,0.177 0.137,0.265 0.091,0.177 0.046,0.089 0,0" />
          </g>
          <g
             transform="translate(603.832,287.915)"
             id="g1194">
            <path
               inkscape:connector-curvature="0"
               id="path1196"
               style="fill:#ffac45;fill-opacity:1;fill-rule:nonzero;stroke:none"
               d="M 0,0 C 0.036,0.074 0.074,0.148 0.111,0.223 0.074,0.148 0.036,0.074 0,0" />
          </g>
          <g
             transform="translate(649.8389,364.6055)"
             id="g1198">
            <path
               inkscape:connector-curvature="0"
               id="path1200"
               style="fill:#ffac45;fill-opacity:1;fill-rule:nonzero;stroke:none"
               d="M 0,0 C 0.314,0.059 0.624,0.113 0.93,0.164 0.624,0.113 0.314,0.059 0,0" />
          </g>
          <g
             transform="translate(602.8672,285.7949)"
             id="g1202">
            <path
               inkscape:connector-curvature="0"
               id="path1204"
               style="fill:#ffac45;fill-opacity:1;fill-rule:nonzero;stroke:none"
               d="M 0,0 C 0.04,0.096 0.078,0.191 0.12,0.288 0.078,0.19 0.04,0.096 0,0" />
          </g>
          <g
             transform="translate(653.3604,365.1387)"
             id="g1206">
            <path
               inkscape:connector-curvature="0"
               id="path1208"
               style="fill:#ffac45;fill-opacity:1;fill-rule:nonzero;stroke:none"
               d="M 0,0 C 0.275,0.032 0.538,0.058 0.802,0.084 0.538,0.059 0.275,0.032 0,0" />
          </g>
          <g
             transform="translate(651.334,364.8604)"
             id="g1210">
            <path
               inkscape:connector-curvature="0"
               id="path1212"
               style="fill:#ffac45;fill-opacity:1;fill-rule:nonzero;stroke:none"
               d="M 0,0 C 0.58,0.09 1.141,0.169 1.681,0.234 1.141,0.169 0.58,0.09 0,0" />
          </g>
          <g
             transform="translate(654.6387,365.2686)"
             id="g1214">
            <path
               inkscape:connector-curvature="0"
               id="path1216"
               style="fill:#ffac45;fill-opacity:1;fill-rule:nonzero;stroke:none"
               d="M 0,0 C 0.26,0.023 0.517,0.045 0.764,0.063 0.516,0.045 0.262,0.023 0,0" />
          </g>
          <g
             transform="translate(604.2441,276.8213)"
             id="g1218">
            <path
               inkscape:connector-curvature="0"
               id="path1220"
               style="fill:#ffac45;fill-opacity:1;fill-rule:nonzero;stroke:none"
               d="M 0,0 C 4.143,1.237 12.253,3.14 21.735,2.641 29.678,2.224 35.927,-0.921 40.823,-3.93 35.927,-0.921 29.678,2.225 21.735,2.643 12.253,3.141 4.143,1.237 0,0" />
          </g>
          <g
             transform="translate(655.0195,267.1367)"
             id="g1222">
            <path
               inkscape:connector-curvature="0"
               id="path1224"
               style="fill:#ffac45;fill-opacity:1;fill-rule:nonzero;stroke:none"
               d="M 0,0 C -0.367,0.136 -0.748,0.282 -1.155,0.447 -0.748,0.282 -0.367,0.136 0,0" />
          </g>
          <g
             transform="translate(602.2324,284.083)"
             id="g1226">
            <path
               inkscape:connector-curvature="0"
               id="path1228"
               style="fill:#ffac45;fill-opacity:1;fill-rule:nonzero;stroke:none"
               d="M 0,0 C 0.026,0.084 0.058,0.172 0.086,0.259 0.058,0.172 0.026,0.084 0,0" />
          </g>
          <g
             transform="translate(604.2441,276.8213)"
             id="g1230">
            <path
               inkscape:connector-curvature="0"
               id="path1232"
               style="fill:#ffac45;fill-opacity:1;fill-rule:nonzero;stroke:none"
               d="M 0,0 C -0.564,-0.169 -1.056,-0.325 -1.467,-0.462 -1.056,-0.325 -0.564,-0.169 0,0" />
          </g>
          <g
             transform="translate(658.2285,266.1631)"
             id="g1234">
            <path
               inkscape:connector-curvature="0"
               id="path1236"
               style="fill:#ffac45;fill-opacity:1;fill-rule:nonzero;stroke:none"
               d="M 0,0 C -0.205,0.046 -0.426,0.1 -0.657,0.159 -0.426,0.099 -0.206,0.046 0,0" />
          </g>
          <g
             transform="translate(656.2617,266.7051)"
             id="g1238">
            <path
               inkscape:connector-curvature="0"
               id="path1240"
               style="fill:#ffac45;fill-opacity:1;fill-rule:nonzero;stroke:none"
               d="M 0,0 C -0.288,0.093 -0.594,0.198 -0.912,0.312 -0.594,0.198 -0.288,0.094 0,0" />
          </g>
          <g
             transform="translate(657.3379,266.3838)"
             id="g1242">
            <path
               inkscape:connector-curvature="0"
               id="path1244"
               style="fill:#ffac45;fill-opacity:1;fill-rule:nonzero;stroke:none"
               d="M 0,0 C -0.289,0.079 -0.595,0.167 -0.923,0.271 -0.594,0.167 -0.289,0.079 0,0" />
          </g>
          <g
             transform="translate(602.5146,284.9014)"
             id="g1246">
            <path
               inkscape:connector-curvature="0"
               id="path1248"
               style="fill:#ffac45;fill-opacity:1;fill-rule:nonzero;stroke:none"
               d="M 0,0 C 0.037,0.101 0.075,0.202 0.115,0.305 0.075,0.202 0.037,0.101 0,0" />
          </g>
          <g
             transform="translate(659.0576,266)"
             id="g1250">
            <path
               inkscape:connector-curvature="0"
               id="path1252"
               style="fill:#ffac45;fill-opacity:1;fill-rule:nonzero;stroke:none"
               d="M 0,0 C -0.209,0.034 -0.435,0.077 -0.68,0.129 -0.435,0.076 -0.209,0.034 0,0" />
          </g>
          <g
             transform="translate(659.6748,265.916)"
             id="g1254">
            <path
               inkscape:connector-curvature="0"
               id="path1256"
               style="fill:#ffac45;fill-opacity:1;fill-rule:nonzero;stroke:none"
               d="M 0,0 C -0.152,0.017 -0.321,0.039 -0.501,0.066 -0.32,0.039 -0.153,0.017 0,0" />
          </g>
          <g
             transform="translate(619.6748,342.3525)"
             id="g1258">
            <path
               inkscape:connector-curvature="0"
               id="path1260"
               style="fill:#ffac45;fill-opacity:1;fill-rule:nonzero;stroke:none"
               d="M 0,0 C -0.201,-0.378 -0.394,-0.766 -0.58,-1.159 -0.735,-1.487 -0.887,-1.818 -1.032,-2.154 -0.712,-1.413 -0.368,-0.692 0,0" />
          </g>
          <g
             transform="translate(660.5977,265.8701)"
             id="g1262">
            <path
               inkscape:connector-curvature="0"
               id="path1264"
               style="fill:#ffac45;fill-opacity:1;fill-rule:nonzero;stroke:none"
               d="M 0,0 C -0.206,-0.005 -0.488,0.002 -0.849,0.038 -0.486,0.002 -0.207,-0.006 0,0 0.208,-0.006 0.488,0.002 0.852,0.038 0.49,0.002 0.207,-0.005 0,0" />
          </g>
          <g
             transform="translate(660.5977,279.793)"
             id="g1266">
            <path
               inkscape:connector-curvature="0"
               id="path1268"
               style="fill:#ffffff;fill-opacity:1;fill-rule:nonzero;stroke:none"
               d="m 0,0 c -5.311,-8.011 -14.245,-4.119 -19.871,2.16 0.266,0.269 7.533,-5.99 12.809,-5.271 2.484,0.344 4.584,1.994 6.245,4.905 l 0.002,12.134 c -1.476,0.766 -3.331,1.844 -5.491,3.369 -7.046,4.972 -7.162,9.849 6.305,9.708 13.468,0.141 13.352,-4.736 6.306,-9.708 C 4.146,15.773 2.293,14.696 0.817,13.93 l 0,-12.136 C 2.479,-1.117 4.578,-2.767 7.062,-3.111 12.338,-3.83 19.605,2.429 19.871,2.16 14.245,-4.119 5.311,-8.011 0,0 m 0,28.868 c -17.996,0.74 -41.777,-1.17 -53.009,-14.006 l -0.004,-0.004 c -0.587,-0.957 -1.623,-2.688 -2.653,-4.603 l -0.111,-0.208 c -0.126,-0.235 -0.25,-0.473 -0.375,-0.712 -0.045,-0.088 -0.091,-0.176 -0.137,-0.265 -0.124,-0.242 -0.245,-0.483 -0.365,-0.725 -0.037,-0.074 -0.075,-0.149 -0.112,-0.223 -0.153,-0.313 -0.302,-0.626 -0.446,-0.935 -0.018,-0.041 -0.035,-0.08 -0.054,-0.12 -0.12,-0.262 -0.235,-0.521 -0.344,-0.777 -0.042,-0.097 -0.08,-0.192 -0.12,-0.288 -0.083,-0.199 -0.163,-0.396 -0.238,-0.589 -0.04,-0.102 -0.078,-0.204 -0.115,-0.305 -0.071,-0.191 -0.136,-0.377 -0.196,-0.559 -0.029,-0.087 -0.06,-0.175 -0.086,-0.259 -0.081,-0.26 -0.154,-0.512 -0.209,-0.748 -0.848,-3.599 -0.768,-6.644 -0.735,-7.349 0.005,-0.1 0.009,-0.153 0.009,-0.153 0,0 0.522,0.208 1.48,0.526 0.411,0.137 0.902,0.293 1.466,0.462 4.143,1.238 12.253,3.141 21.736,2.643 7.942,-0.418 14.191,-3.564 19.088,-6.572 3.606,-2.218 6.482,-4.362 8.74,-5.286 0.02,-0.007 0.037,-0.013 0.057,-0.022 0.407,-0.165 0.788,-0.312 1.155,-0.447 0.112,-0.041 0.222,-0.081 0.33,-0.119 0.318,-0.115 0.624,-0.22 0.912,-0.313 0.05,-0.016 0.105,-0.035 0.153,-0.05 0.329,-0.104 0.634,-0.192 0.923,-0.271 0.08,-0.022 0.156,-0.041 0.234,-0.062 0.231,-0.059 0.452,-0.113 0.657,-0.159 0.05,-0.011 0.101,-0.024 0.149,-0.034 0.245,-0.052 0.471,-0.095 0.68,-0.129 0.04,-0.006 0.076,-0.012 0.116,-0.018 0.18,-0.027 0.349,-0.049 0.501,-0.066 0.025,-0.002 0.051,-0.006 0.074,-0.008 0.361,-0.036 0.643,-0.043 0.849,-0.038 0.207,-0.005 0.49,0.002 0.852,0.038 0.021,0.002 0.044,0.005 0.066,0.008 0.156,0.017 0.328,0.039 0.514,0.067 0.035,0.006 0.068,0.011 0.104,0.017 0.211,0.034 0.441,0.077 0.69,0.13 0.041,0.009 0.086,0.02 0.128,0.029 0.214,0.048 0.444,0.104 0.685,0.166 0.07,0.019 0.139,0.036 0.212,0.056 0.295,0.081 0.605,0.171 0.94,0.276 0.037,0.012 0.077,0.027 0.114,0.038 0.302,0.097 0.625,0.207 0.96,0.327 0.098,0.037 0.197,0.072 0.298,0.109 0.39,0.144 0.793,0.298 1.227,0.475 0.665,0.273 1.384,0.651 2.158,1.105 5.422,3.183 13.601,10.117 25.67,10.753 9.483,0.498 17.593,-1.405 21.736,-2.643 0.564,-0.169 1.055,-0.325 1.466,-0.462 0.958,-0.318 1.48,-0.526 1.48,-0.526 0,0 0.009,0.119 0.015,0.34 0.033,0.956 0.045,3.82 -0.74,7.162 -0.056,0.241 -0.131,0.499 -0.215,0.764 -0.02,0.065 -0.044,0.132 -0.065,0.199 -0.067,0.203 -0.14,0.411 -0.219,0.625 -0.032,0.085 -0.064,0.172 -0.098,0.258 -0.082,0.212 -0.168,0.426 -0.259,0.645 -0.034,0.08 -0.067,0.16 -0.102,0.241 -0.12,0.281 -0.246,0.565 -0.378,0.853 -0.008,0.017 -0.014,0.032 -0.022,0.049 -0.146,0.316 -0.299,0.635 -0.455,0.954 -0.031,0.062 -0.063,0.125 -0.094,0.187 -0.125,0.254 -0.252,0.507 -0.382,0.759 -0.044,0.085 -0.088,0.17 -0.132,0.254 -0.123,0.238 -0.248,0.475 -0.373,0.709 -0.04,0.074 -0.079,0.149 -0.119,0.224 -0.153,0.284 -0.306,0.563 -0.457,0.837 l -0.023,0.044 c -0.341,0.613 -0.671,1.191 -0.98,1.721 -0.018,0.032 -0.036,0.063 -0.055,0.094 -0.134,0.23 -0.262,0.449 -0.386,0.656 -0.018,0.031 -0.035,0.061 -0.053,0.09 -0.268,0.449 -0.507,0.845 -0.696,1.153 l -10e-4,10e-4 C 41.782,27.698 17.998,29.608 0,28.868" />
          </g>
          <g
             transform="translate(703.3945,335.4072)"
             id="g1270">
            <path
               inkscape:connector-curvature="0"
               id="path1272"
               style="fill:#000000;fill-opacity:1;fill-rule:nonzero;stroke:none"
               d="m 0,0 c -1.581,-1.975 -3.268,-4.041 -4.706,-6.162 -1.171,-1.731 -4.443,-5.004 -4.492,-7.094 2.015,0.82 4.112,1.6 6.093,2.568 1.323,0.649 3.963,1.44 5.876,2.584 0,0.008 -0.002,0.018 -0.004,0.026 C 2.38,-5.832 1.703,-2.535 0.633,0.818 0.397,0.541 0.185,0.23 0,0" />
          </g>
          <g
             transform="translate(701.5205,342.3525)"
             id="g1274">
            <path
               inkscape:connector-curvature="0"
               id="path1276"
               style="fill:#000000;fill-opacity:1;fill-rule:nonzero;stroke:none"
               d="m 0,0 c -0.004,0.009 -0.008,0.019 -0.013,0.027 -0.033,0.061 -0.066,0.122 -0.1,0.183 -0.005,0.01 -0.011,0.019 -0.016,0.028 -2.278,-1.414 -8.766,-7.863 -8.978,-9.301 1.949,0.079 4.308,1.501 6.069,2.356 1.378,0.67 3.426,1.314 4.984,2.236 0,0.001 -10e-4,0.002 -10e-4,0.003 C 1.668,-3.696 1.368,-2.932 1.046,-2.186 1.041,-2.175 1.037,-2.165 1.032,-2.154 0.712,-1.413 0.368,-0.692 0,0" />
          </g>
          <g
             transform="translate(664.625,359.4053)"
             id="g1278">
            <path
               inkscape:connector-curvature="0"
               id="path1280"
               style="fill:#000000;fill-opacity:1;fill-rule:nonzero;stroke:none"
               d="m 0,0 c 0.744,-5.52 1.427,-11.178 2.758,-16.564 1.499,2.931 2.202,6.423 3.028,9.613 C 6.799,-3.045 7.904,0.877 8.272,4.893 7.937,4.965 7.61,5.029 7.284,5.093 7.1,5.13 6.915,5.166 6.734,5.2 6.418,5.259 6.106,5.313 5.801,5.365 5.611,5.396 5.427,5.425 5.242,5.454 4.645,5.547 4.067,5.628 3.514,5.695 3.414,5.707 3.31,5.722 3.212,5.733 2.935,5.766 2.669,5.792 2.403,5.818 2.246,5.834 2.089,5.85 1.936,5.863 1.673,5.887 1.414,5.908 1.166,5.927 1.062,5.935 0.965,5.94 0.864,5.947 0.285,5.986 -0.261,6.014 -0.758,6.029 -0.432,4.02 -0.254,1.881 0,0" />
          </g>
          <g
             transform="translate(620.9062,324.7197)"
             id="g1282">
            <path
               inkscape:connector-curvature="0"
               id="path1284"
               style="fill:#000000;fill-opacity:1;fill-rule:nonzero;stroke:none"
               d="m 0,0 c 1.98,-0.969 4.077,-1.748 6.093,-2.568 -0.049,2.089 -3.321,5.363 -4.492,7.093 -1.439,2.121 -3.125,4.188 -4.705,6.163 -0.186,0.23 -0.4,0.541 -0.635,0.817 l 0,10e-4 C -3.745,11.488 -3.75,11.47 -3.756,11.452 -4.819,8.105 -5.492,4.818 -5.876,2.584 -3.964,1.439 -1.324,0.648 0,0" />
          </g>
          <g
             transform="translate(628.7812,333.29)"
             id="g1286">
            <path
               inkscape:connector-curvature="0"
               id="path1288"
               style="fill:#000000;fill-opacity:1;fill-rule:nonzero;stroke:none"
               d="m 0,0 c -0.212,1.437 -6.697,7.886 -8.978,9.301 l -10e-4,0 C -9.016,9.23 -9.057,9.16 -9.094,9.09 -9.099,9.081 -9.103,9.071 -9.106,9.063 -9.475,8.37 -9.818,7.649 -10.139,6.908 c -0.005,-0.011 -0.008,-0.02 -0.013,-0.031 -0.323,-0.746 -0.622,-1.511 -0.9,-2.282 0,-10e-4 -0.001,-0.002 -0.001,-0.003 C -9.494,3.67 -7.446,3.025 -6.068,2.355 -4.308,1.5 -1.948,0.078 0,0" />
          </g>
          <g
             transform="translate(650.7842,352.4541)"
             id="g1290">
            <path
               inkscape:connector-curvature="0"
               id="path1292"
               style="fill:#000000;fill-opacity:1;fill-rule:nonzero;stroke:none"
               d="M 0,0 C 0.826,-3.189 1.529,-6.682 3.028,-9.613 4.359,-4.227 5.042,1.432 5.786,6.951 6.04,8.832 6.218,10.971 6.544,12.98 6.049,12.965 5.505,12.938 4.928,12.898 4.824,12.892 4.725,12.886 4.618,12.878 4.371,12.859 4.114,12.838 3.854,12.814 3.698,12.801 3.538,12.785 3.378,12.769 3.114,12.742 2.852,12.717 2.576,12.685 2.464,12.672 2.345,12.655 2.23,12.641 1.69,12.575 1.13,12.496 0.55,12.406 0.362,12.377 0.176,12.348 -0.016,12.315 -0.321,12.265 -0.631,12.21 -0.945,12.151 -1.129,12.117 -1.315,12.08 -1.502,12.044 -1.827,11.979 -2.151,11.916 -2.486,11.844 -2.118,7.828 -1.013,3.906 0,0" />
          </g>
          <g
             transform="translate(667.6592,276.6816)"
             id="g1294">
            <path
               inkscape:connector-curvature="0"
               id="path1296"
               style="fill:#000000;fill-opacity:1;fill-rule:nonzero;stroke:none"
               d="m 0,0 c -2.483,0.345 -4.583,1.994 -6.244,4.905 l 0,12.136 C -6.523,16.896 -6.813,16.742 -7.062,16.62 -7.311,16.742 -7.6,16.895 -7.877,17.039 L -7.879,4.905 C -9.539,1.994 -11.64,0.345 -14.123,0 c -5.276,-0.719 -12.544,5.54 -12.81,5.271 5.626,-6.279 14.561,-10.17 19.871,-2.16 5.311,-8.01 14.246,-4.119 19.872,2.16 C 12.544,5.54 5.276,-0.719 0,0" />
          </g>
          <g
             transform="translate(660.5967,293.3018)"
             id="g1298">
            <path
               inkscape:connector-curvature="0"
               id="path1300"
               style="fill:#d65a6f;fill-opacity:1;fill-rule:nonzero;stroke:none"
               d="M 0,0 C 0.249,0.122 0.539,0.275 0.818,0.421 2.294,1.187 4.147,2.265 6.306,3.788 13.352,8.76 13.468,13.638 0,13.496 -13.467,13.638 -13.351,8.76 -6.305,3.788 -4.145,2.264 -2.29,1.186 -0.814,0.419 -0.537,0.274 -0.248,0.122 0,0" />
          </g>
          <g
             transform="translate(636.0713,323.5391)"
             id="g1302">
            <path
               inkscape:connector-curvature="0"
               id="path1304"
               style="fill:#ffffff;fill-opacity:1;fill-rule:nonzero;stroke:none"
               d="M 0,0 C 0.395,1.983 2.322,3.272 4.305,2.878 6.291,2.483 7.58,0.556 7.184,-1.429 7.133,-1.683 7.057,-1.923 6.961,-2.151 6.5,-1.532 5.775,-1.056 4.738,-0.849 2.869,-0.479 1.336,-1.274 0.389,-2.485 -0.018,-1.755 -0.178,-0.882 0,0 m 2.461,-6.402 c 3.141,-0.625 6.193,1.414 6.82,4.555 C 9.904,1.296 7.865,4.347 4.723,4.973 1.582,5.599 -1.469,3.559 -2.096,0.417 -2.721,-2.724 -0.682,-5.777 2.461,-6.402" />
          </g>
          <g
             transform="translate(640.8096,322.6904)"
             id="g1306">
            <path
               inkscape:connector-curvature="0"
               id="path1308"
               style="fill:#000000;fill-opacity:1;fill-rule:nonzero;stroke:none"
               d="M 0,0 C 1.037,-0.207 1.762,-0.684 2.223,-1.303 2.318,-1.074 2.395,-0.834 2.445,-0.58 2.842,1.404 1.553,3.332 -0.434,3.727 -2.416,4.121 -4.344,2.832 -4.738,0.849 -4.916,-0.033 -4.756,-0.906 -4.35,-1.637 -3.402,-0.426 -1.869,0.369 0,0" />
          </g>
          <g
             transform="translate(681.8682,321.0537)"
             id="g1310">
            <path
               inkscape:connector-curvature="0"
               id="path1312"
               style="fill:#ffffff;fill-opacity:1;fill-rule:nonzero;stroke:none"
               d="M 0,0 C -0.947,1.211 -2.48,2.006 -4.35,1.637 -5.387,1.43 -6.111,0.953 -6.572,0.334 -6.668,0.562 -6.744,0.803 -6.795,1.057 -7.191,3.041 -5.902,4.969 -3.916,5.363 -1.934,5.758 -0.006,4.469 0.389,2.485 0.566,1.604 0.406,0.73 0,0 M 2.484,2.902 C 1.857,6.044 -1.193,8.084 -4.334,7.458 -7.477,6.832 -9.516,3.781 -8.893,0.639 c 0.627,-3.142 3.68,-5.181 6.821,-4.556 3.142,0.625 5.181,3.679 4.556,6.819" />
          </g>
          <g
             transform="translate(677.5186,322.6904)"
             id="g1314">
            <path
               inkscape:connector-curvature="0"
               id="path1316"
               style="fill:#000000;fill-opacity:1;fill-rule:nonzero;stroke:none"
               d="m 0,0 c -1.037,-0.207 -1.762,-0.684 -2.223,-1.303 -0.095,0.229 -0.172,0.469 -0.222,0.723 -0.397,1.984 0.892,3.912 2.879,4.307 C 2.416,4.121 4.344,2.832 4.738,0.849 4.916,-0.033 4.756,-0.906 4.35,-1.637 3.402,-0.426 1.869,0.369 0,0" />
          </g>
        </g>
      </g>
    </g>
  </g>
</svg>
