<?xml version="1.0" encoding="UTF-8" standalone="no"?>
<!-- Created with Inkscape (http://www.inkscape.org/) -->

<svg
   xmlns:dc="http://purl.org/dc/elements/1.1/"
   xmlns:cc="http://creativecommons.org/ns#"
   xmlns:rdf="http://www.w3.org/1999/02/22-rdf-syntax-ns#"
   xmlns:svg="http://www.w3.org/2000/svg"
   xmlns="http://www.w3.org/2000/svg"
   xmlns:sodipodi="http://sodipodi.sourceforge.net/DTD/sodipodi-0.dtd"
   xmlns:inkscape="http://www.inkscape.org/namespaces/inkscape"
   width="43.738911mm"
   height="40.604092mm"
   viewBox="0 0 154.98039 143.87277"
   id="svg6155"
   version="1.1"
   inkscape:version="0.91 r13725"
   sodipodi:docname="lvl7.svg">
  <defs
     id="defs6157" />
  <sodipodi:namedview
     id="base"
     pagecolor="#ffffff"
     bordercolor="#666666"
     borderopacity="1.0"
     inkscape:pageopacity="0.0"
     inkscape:pageshadow="2"
     inkscape:zoom="0.7"
     inkscape:cx="614.68279"
     inkscape:cy="139.01607"
     inkscape:document-units="px"
     inkscape:current-layer="layer1"
     showgrid="false"
     showborder="false"
     fit-margin-top="0"
     fit-margin-left="0"
     fit-margin-right="0"
     fit-margin-bottom="0"
     inkscape:window-width="1366"
     inkscape:window-height="699"
     inkscape:window-x="0"
     inkscape:window-y="0"
     inkscape:window-maximized="1" />
  <metadata
     id="metadata6160">
    <rdf:RDF>
      <cc:Work
         rdf:about="">
        <dc:format>image/svg+xml</dc:format>
        <dc:type
           rdf:resource="http://purl.org/dc/dcmitype/StillImage" />
        <dc:title />
      </cc:Work>
    </rdf:RDF>
  </metadata>
  <g
     inkscape:label="Calque 1"
     inkscape:groupmode="layer"
     id="layer1"
     transform="translate(-356.79551,-246.14011)">
    <g
       id="g4208">
      <g
         style="fill:#cccccc"
         transform="matrix(1.25,0,0,-1.25,506.37226,335.88986)"
         id="g34">
        <path
           d="M 0,0 C 0.002,0 0.002,0.001 0.004,0.001 -1.445,-0.168 -2.971,-0.289 -4.578,-0.354 -2.971,-0.289 -1.447,-0.168 0,0"
           style="fill:#cccccc;fill-opacity:1;fill-rule:evenodd;stroke:none"
           id="path36"
           inkscape:connector-curvature="0" />
      </g>
      <g
         style="fill:#4d4d4d"
         transform="matrix(1.25,0,0,-1.25,388.84301,327.75999)"
         id="g38">
        <path
           d="m 0,0 c 1.895,-4.988 6.237,-9.434 12.266,-12.871 l 0,0.004 c 2.22,-1.269 4.671,-2.401 7.31,-3.373 -4.489,-3.135 -11.886,-2.119 -11.924,-2.915 -0.119,-2.457 10.395,-5.861 17.845,-0.056 2.492,-12.095 9.193,-23.723 18.312,-27.967 12.759,-5.949 38.511,-1.67 43.545,11.68 1.222,1.064 0.873,3.513 -2.934,2.555 0.33,2.312 -0.477,5.603 -2.74,2.966 -3.854,-4.212 -11.196,-4.824 -16.559,-4.31 -7.497,0.72 -10.316,6.839 -11.329,13.915 7.282,-4.337 16.46,-1.211 16.349,1.086 -0.038,0.804 -7.571,-0.237 -12.045,3.004 2.681,0.982 5.174,2.127 7.431,3.415 l 0,-0.004 c 6.024,3.435 10.366,7.877 12.262,12.86 6.061,-0.735 13.028,-4.273 18.652,5.714 4,7.101 -4.828,13.126 -4.976,18.065 -0.414,13.967 12.451,21.64 3.998,30.814 -6.693,7.265 -17.461,-1.285 -28.787,-3.54 -1.039,-0.2 -1.945,-0.419 -2.739,-0.654 -6.53,6.586 -15.282,10.964 -25.041,11.908 -9.768,-0.945 -18.528,-5.331 -25.059,-11.929 -0.81,0.244 -1.736,0.469 -2.804,0.675 -11.326,2.255 -22.094,10.805 -28.789,3.54 -8.451,-9.174 4.414,-16.847 3.998,-30.814 C -13.904,18.829 -22.734,12.804 -18.734,5.703 -13.084,-4.328 -6.079,-0.714 0,0"
           style="fill:#4d4d4d;fill-opacity:1;fill-rule:evenodd;stroke:none"
           id="path40"
           inkscape:connector-curvature="0" />
      </g>
      <g
         id="g8311"
         transform="matrix(1.25,0,0,-1.25,-156.54399,698.98186)">
        <g
           id="g234"
           transform="translate(520.7549,293.1201)">
          <path
             d="m 0,0 c 1.607,0.064 3.131,0.186 4.578,0.354 0.002,0 0.002,0 0.004,0 C 3.133,0.186 1.607,0.064 0,0"
             style="fill:#bfc7d3;fill-opacity:1;fill-rule:evenodd;stroke:none"
             id="path236"
             inkscape:connector-curvature="0" />
        </g>
        <g
           id="g238"
           transform="translate(417.5518,323.7451)">
          <path
             d="m 0,0 c -0.146,-4.938 -8.977,-10.964 -4.977,-18.064 6.77,-12.018 15.485,-4.448 22.221,-5.748 1.652,-0.319 3.305,-0.437 4.936,-0.399 -3.051,2.991 -5.03,6.4 -5.619,10.051 -0.125,0.758 -0.204,1.525 -0.204,2.306 0,24.456 28.903,35.186 8.434,39.128 C 13.465,29.529 2.697,38.079 -3.998,30.814 -12.449,21.641 0.416,13.968 0,0"
             style="fill:#b4bbc5;fill-opacity:1;fill-rule:evenodd;stroke:none"
             id="path240"
             inkscape:connector-curvature="0" />
        </g>
        <g
           id="g242"
           transform="translate(522.7744,323.7451)">
          <path
             d="m 0,0 c 0.148,-4.938 8.977,-10.964 4.977,-18.064 -6.768,-12.018 -15.483,-4.448 -22.219,-5.748 -1.654,-0.319 -3.305,-0.437 -4.936,-0.399 3.049,2.991 5.028,6.4 5.619,10.051 0.123,0.758 0.204,1.525 0.204,2.306 0,24.456 -28.905,35.186 -8.434,39.128 11.326,2.255 22.094,10.805 28.787,3.54 C 12.451,21.641 -0.414,13.968 0,0"
             style="fill:#b4bbc5;fill-opacity:1;fill-rule:evenodd;stroke:none"
             id="path244"
             inkscape:connector-curvature="0" />
        </g>
        <g
           id="g246"
           transform="translate(470.2061,362.2734)">
          <path
             d="m 0,0 c -20.701,-2.003 -36.887,-19.449 -36.887,-40.678 0,-1.995 0.151,-3.952 0.424,-5.874 -2.25,-3.103 -3.496,-6.519 -3.496,-10.109 0,-7.26 5.107,-13.818 13.328,-18.506 l 0,0.004 c 2.971,-1.697 6.352,-3.149 10.043,-4.303 0.084,-0.025 0.168,-0.055 0.254,-0.079 1.381,-0.425 2.807,-0.806 4.271,-1.145 0.165,-0.037 0.327,-0.074 0.491,-0.11 0.549,-0.121 7.814,-0.551 11.572,-0.81 3.756,0.259 11.023,0.689 11.572,0.81 0.164,0.036 0.326,0.073 0.491,0.11 1.464,0.339 2.89,0.72 4.271,1.145 0.086,0.024 0.168,0.054 0.254,0.079 3.689,1.154 7.068,2.606 10.043,4.303 l 0,-0.004 c 8.221,4.688 13.328,11.246 13.328,18.506 0,3.59 -1.248,7.006 -3.498,10.109 0.275,1.922 0.424,3.879 0.424,5.874 C 36.885,-19.449 20.701,-2.003 0,0"
             style="fill:#bfc7d3;fill-opacity:1;fill-rule:evenodd;stroke:none"
             id="path248"
             inkscape:connector-curvature="0" />
        </g>
        <g
           id="g250"
           transform="translate(460.8174,285.4541)">
          <path
             d="m 0,0 c -6.803,-11.91 -21.998,-7.583 -21.855,-4.632 0.05,1.066 13.285,-1.118 15.084,7.754 0.417,2.064 2.429,3.398 4.492,2.98 2.06,-0.42 3.394,-2.43 2.978,-4.494 C 0.615,1.207 0.473,0.83 0.281,0.49 L 0,0 Z"
             style="fill:#ffffff;fill-opacity:1;fill-rule:evenodd;stroke:none"
             id="path252"
             inkscape:connector-curvature="0" />
        </g>
        <g
           id="g254"
           transform="translate(479.5947,285.3232)">
          <path
             d="M 0,0 C 6.801,-11.91 21.998,-7.583 21.855,-4.632 21.805,-3.566 8.57,-5.749 6.771,3.123 6.352,5.186 4.344,6.52 2.279,6.101 0.219,5.683 -1.117,3.672 -0.697,1.609 -0.617,1.207 -0.473,0.83 -0.283,0.49 L 0,0 Z"
             style="fill:#ffffff;fill-opacity:1;fill-rule:evenodd;stroke:none"
             id="path256"
             inkscape:connector-curvature="0" />
        </g>
        <g
           id="g258"
           transform="translate(512.9893,270.001)">
          <path
             d="m 0,0 c -3.854,-4.213 -11.195,-4.824 -16.559,-4.311 -16.193,1.555 -10.58,28.291 -12.021,35.478 -1.816,9.054 -22.231,7.709 -26.699,1.689 -6.059,-16.158 2.42,-43.081 17.408,-50.057 12.76,-5.949 38.512,-1.67 43.545,11.68 1.222,1.064 0.873,3.512 -2.934,2.554 C 3.07,-0.654 2.264,2.637 0,0"
             style="fill:#b4b8c3;fill-opacity:1;fill-rule:evenodd;stroke:none"
             id="path260"
             inkscape:connector-curvature="0" />
        </g>
        <g
           id="g262"
           transform="translate(500.8135,262.5674)">
          <path
             d="M 0,0 C 0,-0.006 0.273,-2.326 -0.475,-5.932 -1.238,-9.606 -1.598,-9.869 -1.6,-9.869 l -0.298,0.447 c 0.002,0.001 0.179,0.141 0.898,3.599 0.73,3.524 0.465,5.768 0.465,5.774 L 0,0 Z"
             style="fill:#8d8f92;fill-opacity:1;fill-rule:evenodd;stroke:none"
             id="path264"
             inkscape:connector-curvature="0" />
        </g>
        <g
           id="g266"
           transform="translate(492.2021,263.8018)">
          <path
             d="m 0,0 c 0,-0.008 -0.207,-2.826 -2.6,-6.519 -2.386,-3.68 -4.582,-5.053 -4.586,-5.057 l -0.293,0.449 c 0.004,0.005 2.106,1.316 4.428,4.9 2.319,3.575 2.514,6.259 2.514,6.266 L 0,0 Z"
             style="fill:#8d8f92;fill-opacity:1;fill-rule:evenodd;stroke:none"
             id="path268"
             inkscape:connector-curvature="0" />
        </g>
        <g
           id="g270"
           transform="translate(485.3252,269.6172)">
          <path
             d="m 0,0 c -0.01,-0.01 -3.537,-3.401 -9.1,-5.707 -5.546,-2.3 -7.455,-2.573 -7.461,-2.574 l -0.087,0.53 c 0.003,0 1.855,0.264 7.343,2.54 5.471,2.269 8.922,5.586 8.932,5.595 L 0,0 Z"
             style="fill:#8d8f92;fill-opacity:1;fill-rule:evenodd;stroke:none"
             id="path272"
             inkscape:connector-curvature="0" />
        </g>
        <g
           id="g274"
           transform="translate(480.1455,280.4697)">
          <path
             d="m 0,0 c -0.01,-0.004 -0.018,-0.014 -0.061,-0.043 -0.556,-0.393 -3.486,-2.459 -9.753,-3.948 -6.895,-1.638 -8.327,-0.852 -8.332,-0.849 l 0.255,0.472 c 0.002,-10e-4 1.256,-0.691 7.953,0.9 6.167,1.466 9.028,3.482 9.569,3.864 0.06,0.042 0.098,0.069 0.127,0.084 L 0,0 Z"
             style="fill:#8d8f92;fill-opacity:1;fill-rule:evenodd;stroke:none"
             id="path276"
             inkscape:connector-curvature="0" />
        </g>
        <g
           id="g278"
           transform="translate(478.8467,294.9951)">
          <path
             d="m 0,0 c -2.717,-1.109 -5.988,-1.937 -9.541,-2.389 -3.389,-0.429 -7.039,-0.519 -10.703,-0.187 l 0.047,0.535 c 3.627,-0.329 7.236,-0.24 10.588,0.186 3.507,0.445 6.732,1.259 9.406,2.351 L 0,0 Z"
             style="fill:#8d8f92;fill-opacity:1;fill-rule:evenodd;stroke:none"
             id="path280"
             inkscape:connector-curvature="0" />
        </g>
        <g
           id="g1046"
           transform="translate(447.0713,323.5391)">
          <path
             d="M 0,0 C 0.395,1.983 2.322,3.272 4.305,2.878 6.291,2.483 7.58,0.556 7.184,-1.429 7.133,-1.683 7.057,-1.923 6.961,-2.151 6.5,-1.532 5.775,-1.056 4.738,-0.849 2.869,-0.479 1.336,-1.274 0.389,-2.485 -0.018,-1.755 -0.178,-0.882 0,0 m 2.461,-6.402 c 3.141,-0.625 6.193,1.414 6.82,4.555 C 9.904,1.296 7.865,4.347 4.723,4.973 1.582,5.599 -1.469,3.559 -2.096,0.417 -2.721,-2.724 -0.682,-5.777 2.461,-6.402"
             style="fill:#ffffff;fill-opacity:1;fill-rule:nonzero;stroke:none"
             id="path1048"
             inkscape:connector-curvature="0" />
        </g>
        <g
           id="g1050"
           transform="translate(451.8096,322.6904)">
          <path
             d="M 0,0 C 1.037,-0.207 1.762,-0.684 2.223,-1.303 2.318,-1.074 2.395,-0.834 2.445,-0.58 2.842,1.404 1.553,3.332 -0.434,3.727 -2.416,4.121 -4.344,2.832 -4.738,0.849 -4.916,-0.033 -4.756,-0.906 -4.35,-1.637 -3.402,-0.426 -1.869,0.369 0,0"
             style="fill:#000000;fill-opacity:1;fill-rule:nonzero;stroke:none"
             id="path1052"
             inkscape:connector-curvature="0" />
        </g>
        <g
           id="g1054"
           transform="translate(492.8682,321.0537)">
          <path
             d="M 0,0 C -0.947,1.211 -2.48,2.006 -4.35,1.637 -5.387,1.43 -6.111,0.953 -6.572,0.334 -6.668,0.562 -6.744,0.803 -6.795,1.057 -7.191,3.041 -5.902,4.969 -3.916,5.363 -1.934,5.758 -0.006,4.469 0.389,2.485 0.566,1.604 0.406,0.73 0,0 M 2.484,2.902 C 1.857,6.044 -1.193,8.084 -4.334,7.458 -7.477,6.832 -9.516,3.781 -8.893,0.639 c 0.627,-3.142 3.68,-5.181 6.821,-4.556 3.142,0.625 5.181,3.679 4.556,6.819"
             style="fill:#ffffff;fill-opacity:1;fill-rule:nonzero;stroke:none"
             id="path1056"
             inkscape:connector-curvature="0" />
        </g>
        <g
           id="g1058"
           transform="translate(488.5186,322.6904)">
          <path
             d="m 0,0 c -1.037,-0.207 -1.762,-0.684 -2.223,-1.303 -0.095,0.229 -0.172,0.469 -0.222,0.723 -0.397,1.984 0.892,3.912 2.879,4.307 C 2.416,4.121 4.344,2.832 4.738,0.849 4.916,-0.033 4.756,-0.906 4.35,-1.637 3.402,-0.426 1.869,0.369 0,0"
             style="fill:#000000;fill-opacity:1;fill-rule:nonzero;stroke:none"
             id="path1060"
             inkscape:connector-curvature="0" />
        </g>
      </g>
    </g>
  </g>
</svg>
