<?xml version="1.0" encoding="UTF-8" standalone="no"?>
<!-- Created with Inkscape (http://www.inkscape.org/) -->

<svg
   xmlns:dc="http://purl.org/dc/elements/1.1/"
   xmlns:cc="http://creativecommons.org/ns#"
   xmlns:rdf="http://www.w3.org/1999/02/22-rdf-syntax-ns#"
   xmlns:svg="http://www.w3.org/2000/svg"
   xmlns="http://www.w3.org/2000/svg"
   xmlns:sodipodi="http://sodipodi.sourceforge.net/DTD/sodipodi-0.dtd"
   xmlns:inkscape="http://www.inkscape.org/namespaces/inkscape"
   width="45.472412mm"
   height="42.930904mm"
   viewBox="0 0 161.12272 152.11738"
   id="svg6920"
   version="1.1"
   inkscape:version="0.91 r13725"
   sodipodi:docname="lvl8.svg">
  <defs
     id="defs6922" />
  <sodipodi:namedview
     id="base"
     pagecolor="#ffffff"
     bordercolor="#666666"
     borderopacity="1.0"
     inkscape:pageopacity="0.0"
     inkscape:pageshadow="2"
     inkscape:zoom="0.35"
     inkscape:cx="116.98993"
     inkscape:cy="267.48726"
     inkscape:document-units="px"
     inkscape:current-layer="layer1"
     showgrid="false"
     showborder="false"
     fit-margin-top="0"
     fit-margin-left="0"
     fit-margin-right="0"
     fit-margin-bottom="0"
     inkscape:window-width="1366"
     inkscape:window-height="699"
     inkscape:window-x="0"
     inkscape:window-y="0"
     inkscape:window-maximized="1" />
  <metadata
     id="metadata6925">
    <rdf:RDF>
      <cc:Work
         rdf:about="">
        <dc:format>image/svg+xml</dc:format>
        <dc:type
           rdf:resource="http://purl.org/dc/dcmitype/StillImage" />
        <dc:title></dc:title>
      </cc:Work>
    </rdf:RDF>
  </metadata>
  <g
     inkscape:label="Calque 1"
     inkscape:groupmode="layer"
     id="layer1"
     transform="translate(-208.01007,-647.73208)">
    <g
       transform="translate(110.17355,550.91171)"
       style="display:inline"
       id="g6843">
      <g
         style="fill:#e6e6e6"
         transform="matrix(1.25,0,0,-1.25,139.34875,176.7065)"
         id="g54">
        <path
           d="m 0,0 c -0.615,-9.44 0.679,-20.568 -6.428,-26.391 -0.357,-0.292 -0.688,-0.577 -1.005,-0.859 -5.499,-0.317 -10.349,-1.798 -12.368,-3.805 l 6.81,-2.193 c -3.873,-2.883 -9.839,-10.011 -6.602,-17.312 l 12.296,6.353 c -4.197,-5.501 -4.508,-8.246 -3.656,-13.578 7.133,4.442 23.685,8.354 30.461,8.983 2.512,-2.985 10.707,-8.482 14.814,-8.482 4.107,0 12.303,5.497 14.814,8.482 6.777,-0.629 23.328,-4.541 30.461,-8.983 0.853,5.332 0.542,8.077 -3.655,13.578 l 12.296,-6.353 c 3.236,7.301 -2.73,14.429 -6.603,17.312 l 6.812,2.193 c -2.02,2.007 -6.871,3.488 -12.37,3.805 -0.317,0.282 -0.647,0.567 -1.003,0.859 -7.174,5.876 -5.791,17.156 -6.448,26.651 35.024,8.544 26.145,58.937 25.84,60.605 0.001,0 0.001,10e-4 0.001,10e-4 -0.006,0.028 -0.009,0.043 -0.009,0.043 0,0 -0.062,-0.015 -0.154,-0.038 -0.052,-0.014 -0.102,-0.026 -0.18,-0.047 C 94.092,60.816 94.046,60.803 94.01,60.793 93.922,60.77 93.835,60.747 93.722,60.715 93.659,60.698 93.58,60.674 93.509,60.654 93.4,60.623 93.295,60.593 93.168,60.555 93.083,60.53 92.982,60.499 92.889,60.47 92.755,60.429 92.626,60.39 92.477,60.343 92.369,60.309 92.248,60.269 92.133,60.231 91.975,60.18 91.821,60.131 91.649,60.073 91.522,60.031 91.384,59.982 91.25,59.936 91.07,59.874 90.893,59.813 90.7,59.744 c -0.147,-0.052 -0.304,-0.111 -0.458,-0.167 -0.199,-0.073 -0.396,-0.145 -0.607,-0.224 -0.167,-0.064 -0.344,-0.134 -0.518,-0.202 -0.215,-0.083 -0.428,-0.166 -0.653,-0.256 -0.186,-0.075 -0.38,-0.156 -0.573,-0.236 -0.23,-0.096 -0.46,-0.19 -0.7,-0.293 -0.203,-0.086 -0.413,-0.179 -0.623,-0.271 -0.244,-0.108 -0.488,-0.215 -0.741,-0.33 -0.218,-0.098 -0.44,-0.202 -0.663,-0.306 -0.26,-0.121 -0.52,-0.243 -0.789,-0.372 C 84.146,56.976 83.911,56.86 83.676,56.743 83.403,56.608 83.13,56.472 82.851,56.329 82.609,56.206 82.364,56.077 82.118,55.947 81.833,55.798 81.547,55.646 81.257,55.488 81.004,55.351 80.75,55.209 80.493,55.066 80.198,54.901 79.903,54.734 79.603,54.561 79.341,54.409 79.078,54.254 78.813,54.096 78.51,53.917 78.207,53.733 77.9,53.545 77.629,53.378 77.356,53.208 77.083,53.034 76.774,52.839 76.464,52.64 76.152,52.436 75.874,52.253 75.595,52.067 75.313,51.878 75,51.666 74.684,51.449 74.367,51.229 74.083,51.031 73.8,50.831 73.516,50.626 73.195,50.396 72.875,50.16 72.552,49.92 72.265,49.707 71.979,49.492 71.691,49.271 71.369,49.023 71.045,48.77 70.722,48.512 70.431,48.281 70.141,48.049 69.85,47.811 69.526,47.545 69.203,47.272 68.878,46.997 68.586,46.748 68.294,46.499 68.001,46.242 67.677,45.958 67.354,45.665 67.03,45.371 66.738,45.104 66.446,44.838 66.154,44.564 65.831,44.26 65.508,43.945 65.186,43.63 64.895,43.347 64.604,43.063 64.315,42.771 63.993,42.446 63.673,42.11 63.354,41.773 63.065,41.471 62.777,41.17 62.491,40.859 c -0.318,-0.346 -0.633,-0.704 -0.948,-1.061 -0.285,-0.321 -0.569,-0.641 -0.851,-0.972 -0.314,-0.368 -0.625,-0.751 -0.936,-1.132 -0.277,-0.339 -0.555,-0.675 -0.83,-1.024 -0.309,-0.392 -0.613,-0.799 -0.918,-1.204 -0.27,-0.359 -0.542,-0.713 -0.809,-1.082 -0.303,-0.417 -0.598,-0.85 -0.896,-1.279 -0.261,-0.377 -0.525,-0.749 -0.782,-1.136 -0.295,-0.444 -0.582,-0.904 -0.871,-1.36 -0.251,-0.397 -0.505,-0.786 -0.752,-1.192 -0.285,-0.47 -0.562,-0.959 -0.84,-1.442 -0.24,-0.415 -0.483,-0.823 -0.718,-1.248 -0.277,-0.502 -0.544,-1.025 -0.813,-1.541 -0.161,-0.309 -0.328,-0.608 -0.486,-0.922 -5.221,2.85 -10.988,4.629 -16.719,4.932 -6.065,-0.321 -12.177,-2.282 -17.633,-5.431 l -0.001,0.003 c 0.002,10e-4 0.003,0.002 0.005,0.003 -0.022,0.043 -0.045,0.084 -0.067,0.128 -0.216,0.434 -0.442,0.848 -0.664,1.272 -0.273,0.522 -0.542,1.051 -0.822,1.558 -0.232,0.421 -0.473,0.824 -0.71,1.234 -0.281,0.488 -0.559,0.981 -0.847,1.454 -0.246,0.405 -0.499,0.792 -0.749,1.186 -0.29,0.459 -0.578,0.921 -0.875,1.367 -0.256,0.385 -0.518,0.755 -0.778,1.131 -0.299,0.431 -0.596,0.865 -0.899,1.284 -0.266,0.367 -0.537,0.72 -0.807,1.078 -0.306,0.406 -0.611,0.814 -0.921,1.208 -0.273,0.348 -0.55,0.682 -0.826,1.019 -0.312,0.383 -0.625,0.768 -0.941,1.139 -0.28,0.328 -0.562,0.645 -0.845,0.965 -0.317,0.359 -0.633,0.718 -0.953,1.066 -0.285,0.31 -0.572,0.61 -0.86,0.911 -0.321,0.338 -0.641,0.675 -0.964,1.001 -0.289,0.291 -0.578,0.574 -0.868,0.856 -0.323,0.316 -0.647,0.632 -0.971,0.937 -0.291,0.273 -0.582,0.539 -0.874,0.804 -0.325,0.296 -0.649,0.589 -0.973,0.874 -0.292,0.257 -0.584,0.505 -0.876,0.753 -0.324,0.275 -0.648,0.549 -0.973,0.815 -0.291,0.238 -0.581,0.47 -0.871,0.701 -0.324,0.257 -0.647,0.511 -0.969,0.759 -0.289,0.221 -0.575,0.437 -0.862,0.65 -0.322,0.239 -0.643,0.475 -0.963,0.705 -0.284,0.205 -0.568,0.405 -0.851,0.602 -0.318,0.222 -0.634,0.439 -0.948,0.651 -0.28,0.189 -0.558,0.373 -0.835,0.555 -0.314,0.205 -0.624,0.405 -0.934,0.601 -0.274,0.173 -0.545,0.343 -0.816,0.509 -0.307,0.189 -0.611,0.373 -0.914,0.552 -0.264,0.158 -0.527,0.313 -0.789,0.464 -0.3,0.174 -0.596,0.341 -0.892,0.506 -0.256,0.143 -0.51,0.286 -0.762,0.422 -0.291,0.158 -0.576,0.31 -0.861,0.459 -0.246,0.13 -0.491,0.259 -0.733,0.382 -0.279,0.143 -0.552,0.279 -0.824,0.414 -0.236,0.117 -0.472,0.234 -0.702,0.344 -0.268,0.129 -0.526,0.25 -0.786,0.371 -0.223,0.104 -0.446,0.209 -0.664,0.307 -0.254,0.115 -0.498,0.223 -0.743,0.33 -0.209,0.092 -0.419,0.185 -0.621,0.271 -0.241,0.103 -0.471,0.198 -0.702,0.294 -0.192,0.079 -0.385,0.159 -0.57,0.234 -0.226,0.091 -0.44,0.174 -0.656,0.258 -0.174,0.068 -0.35,0.137 -0.517,0.2 -0.211,0.08 -0.407,0.152 -0.607,0.225 -0.154,0.056 -0.311,0.115 -0.458,0.167 -0.193,0.069 -0.369,0.13 -0.55,0.192 -0.133,0.046 -0.272,0.095 -0.398,0.137 -0.172,0.058 -0.327,0.107 -0.484,0.158 -0.116,0.038 -0.237,0.078 -0.344,0.112 -0.15,0.047 -0.279,0.086 -0.413,0.127 -0.092,0.029 -0.193,0.06 -0.278,0.085 -0.127,0.038 -0.232,0.068 -0.341,0.099 -0.071,0.02 -0.151,0.044 -0.214,0.061 -0.113,0.032 -0.2,0.055 -0.288,0.078 -0.035,0.01 -0.081,0.023 -0.113,0.031 -0.078,0.021 -0.129,0.033 -0.18,0.047 -0.092,0.023 -0.155,0.038 -0.155,0.038 0,0 -9.988,-53.064 26.978,-60.909"
           style="fill:#e6e6e6;fill-opacity:1;fill-rule:evenodd;stroke:none"
           id="path56"
           inkscape:connector-curvature="0" />
      </g>
      <g
         id="g7211"
         transform="matrix(1.25,0,0,-1.25,0,1000)">
        <g
           id="g786"
           transform="translate(155.9707,682.6577)">
          <path
             d="m 0,0 c 14.755,32.913 44.967,39.886 44.967,39.886 0,0 10.536,-55.931 -30.018,-61.445 L 0,0 Z"
             style="fill:#e67a25;fill-opacity:1;fill-rule:evenodd;stroke:none"
             id="path788"
             inkscape:connector-curvature="0" />
        </g>
        <g
           id="g790"
           transform="translate(159.4844,678.7437)">
          <path
             d="m 0,0 c 16.889,30.742 35.454,33.268 35.454,33.268 0,0 9.473,-34.006 -27.268,-47.026 L 0,0 Z"
             style="fill:#b95e28;fill-opacity:1;fill-rule:evenodd;stroke:none"
             id="path792"
             inkscape:connector-curvature="0" />
        </g>
        <g
           id="g794"
           transform="translate(200.9463,722.5005)">
          <path
             d="m 0,0 c -7.979,-2.723 -29.668,-12.261 -41.635,-38.35 -0.67,0.437 -1.351,0.856 -2.044,1.255 15.154,30.556 43.67,37.138 43.67,37.138 0,0 0.003,-0.015 0.009,-0.043"
             style="fill:#b95e28;fill-opacity:1;fill-rule:evenodd;stroke:none"
             id="path796"
             inkscape:connector-curvature="0" />
        </g>
        <g
           id="g798"
           transform="translate(124.4688,682.6577)">
          <path
             d="m 0,0 c -14.756,32.913 -44.968,39.886 -44.968,39.886 0,0 -10.535,-55.931 30.019,-61.445 L 0,0 Z"
             style="fill:#e67a25;fill-opacity:1;fill-rule:evenodd;stroke:none"
             id="path800"
             inkscape:connector-curvature="0" />
        </g>
        <g
           id="g802"
           transform="translate(120.9551,678.7437)">
          <path
             d="m 0,0 c -16.889,30.742 -35.455,33.268 -35.455,33.268 0,0 -9.472,-34.006 27.269,-47.026 L 0,0 Z"
             style="fill:#b95e28;fill-opacity:1;fill-rule:evenodd;stroke:none"
             id="path804"
             inkscape:connector-curvature="0" />
        </g>
        <g
           id="g806"
           transform="translate(79.4932,722.5005)">
          <path
             d="m 0,0 c 7.979,-2.723 29.668,-12.261 41.635,-38.35 0.67,0.437 1.351,0.856 2.044,1.255 C 28.524,-6.539 0.008,0.043 0.008,0.043 0.008,0.043 0.006,0.028 0,0"
             style="fill:#b95e28;fill-opacity:1;fill-rule:evenodd;stroke:none"
             id="path808"
             inkscape:connector-curvature="0" />
        </g>
        <g
           id="g810"
           transform="translate(109.3359,672.6064)">
          <path
             d="m 0,0 c -6.286,-9.469 0.981,-28.952 -9.285,-37.362 -19.967,-16.356 21.883,-17.353 39.985,-21.225 18.104,3.872 61.483,4.869 41.517,21.225 -10.268,8.41 -3,27.893 -9.286,37.362 C 56.103,10.286 43.685,17.579 31.465,18.224 19.247,17.579 6.828,10.286 0,0"
             style="fill:#e67a25;fill-opacity:1;fill-rule:evenodd;stroke:none"
             id="path812"
             inkscape:connector-curvature="0" />
        </g>
        <g
           id="g814"
           transform="translate(140.8008,620.0015)">
          <path
             d="m 0,0 c -4.274,1.139 -15.708,-1.491 -20.147,6.079 -6.577,11.224 -28.97,9.475 -33.976,4.499 l 6.81,-2.193 c -3.873,-2.883 -9.838,-10.01 -6.602,-17.312 l 12.296,6.353 c -4.196,-5.501 -4.508,-8.245 -3.655,-13.578 7.132,4.443 23.684,8.354 30.461,8.983 2.511,-2.985 10.707,-8.481 14.813,-8.481 4.107,0 12.303,5.496 14.814,8.481 6.777,-0.629 23.329,-4.54 30.461,-8.983 0.853,5.333 0.542,8.077 -3.655,13.578 l 12.296,-6.353 c 3.236,7.302 -2.729,14.429 -6.603,17.312 l 6.812,2.193 C 49.118,15.554 26.725,17.303 20.148,6.079 15.709,-1.491 4.275,1.139 0,0"
             style="fill:#ffffff;fill-opacity:1;fill-rule:evenodd;stroke:none"
             id="path816"
             inkscape:connector-curvature="0" />
        </g>
        <g
           id="g818"
           transform="translate(140.8008,622.8423)">
          <path
             d="m 0,0 c -13.467,0.141 -13.351,-4.736 -6.305,-9.708 2.567,-1.812 4.737,-3.021 6.305,-3.789 1.568,0.768 3.739,1.977 6.306,3.789 C 13.352,-4.736 13.468,0.141 0,0"
             style="fill:#000000;fill-opacity:1;fill-rule:evenodd;stroke:none"
             id="path820"
             inkscape:connector-curvature="0" />
        </g>
        <g
           id="g822"
           transform="translate(112.4941,651.4966)">
          <path
             d="m 0,0 c -0.771,-1.007 18.631,8.463 23.712,-11.389 -0.008,0.04 -3.595,6.568 -4.81,4.07 C 16.057,-13.173 4.499,-11.746 6.153,-3.336 6.602,-1.06 0.37,0.178 0,0"
             style="fill:#ee9921;fill-opacity:1;fill-rule:evenodd;stroke:none"
             id="path824"
             inkscape:connector-curvature="0" />
        </g>
        <g
           id="g826"
           transform="translate(170.2305,651.4966)">
          <path
             d="m 0,0 c 0.77,-1.007 -18.632,8.463 -23.713,-11.389 0.008,0.04 3.595,6.568 4.81,4.07 2.844,-5.854 14.403,-4.427 12.748,3.983 C -6.603,-1.06 -0.371,0.178 0,0"
             style="fill:#ee9921;fill-opacity:1;fill-rule:evenodd;stroke:none"
             id="path828"
             inkscape:connector-curvature="0" />
        </g>
        <g
           id="g830"
           transform="translate(121.7271,647.4316)">
          <path
             d="M 0,0 C 0.334,1.686 1.974,2.781 3.658,2.446 5.346,2.111 6.441,0.473 6.105,-1.214 6.062,-1.43 5.998,-1.634 5.916,-1.828 5.523,-1.302 4.909,-0.897 4.026,-0.721 2.438,-0.407 1.135,-1.083 0.33,-2.112 -0.016,-1.491 -0.151,-0.75 0,0 m 2.091,-5.441 c 2.67,-0.532 5.263,1.202 5.796,3.872 C 8.417,1.102 6.684,3.694 4.013,4.227 1.345,4.758 -1.249,3.024 -1.782,0.354 -2.313,-2.314 -0.58,-4.91 2.091,-5.441"
             style="fill:#ffffff;fill-opacity:1;fill-rule:nonzero;stroke:none"
             id="path832"
             inkscape:connector-curvature="0" />
        </g>
        <g
           id="g834"
           transform="translate(125.7534,646.7104)">
          <path
             d="m 0,0 c 0.882,-0.176 1.497,-0.581 1.89,-1.107 0.081,0.194 0.146,0.399 0.189,0.614 C 2.415,1.194 1.32,2.832 -0.369,3.167 -2.053,3.502 -3.692,2.407 -4.026,0.721 -4.177,-0.028 -4.042,-0.77 -3.697,-1.391 -2.892,-0.362 -1.588,0.314 0,0"
             style="fill:#000000;fill-opacity:1;fill-rule:nonzero;stroke:none"
             id="path836"
             inkscape:connector-curvature="0" />
        </g>
        <g
           id="g838"
           transform="translate(159.502,645.3193)">
          <path
             d="M 0,0 C -0.805,1.029 -2.109,1.705 -3.697,1.391 -4.579,1.215 -5.194,0.81 -5.586,0.284 -5.668,0.478 -5.732,0.683 -5.776,0.898 -6.112,2.585 -5.017,4.223 -3.328,4.559 -1.644,4.894 -0.005,3.798 0.33,2.112 0.48,1.363 0.345,0.621 0,0 m 2.112,2.467 c -0.533,2.67 -3.127,4.404 -5.796,3.872 -2.67,-0.532 -4.403,-3.125 -3.874,-5.796 0.533,-2.67 3.127,-4.403 5.797,-3.872 2.671,0.531 4.403,3.127 3.873,5.796"
             style="fill:#ffffff;fill-opacity:1;fill-rule:nonzero;stroke:none"
             id="path840"
             inkscape:connector-curvature="0" />
        </g>
        <g
           id="g842"
           transform="translate(155.8052,646.7104)">
          <path
             d="m 0,0 c -0.882,-0.176 -1.497,-0.581 -1.89,-1.107 -0.081,0.194 -0.146,0.399 -0.189,0.614 -0.336,1.687 0.759,3.325 2.448,3.66 C 2.053,3.502 3.692,2.407 4.026,0.721 4.177,-0.028 4.042,-0.77 3.697,-1.391 2.892,-0.362 1.588,0.314 0,0"
             style="fill:#000000;fill-opacity:1;fill-rule:nonzero;stroke:none"
             id="path844"
             inkscape:connector-curvature="0" />
        </g>
      </g>
    </g>
  </g>
</svg>
