<?xml version="1.0" encoding="UTF-8" standalone="no"?>
<!-- Generator: Adobe Illustrator 19.0.0, SVG Export Plug-In . SVG Version: 6.00 Build 0)  -->

<svg
   xmlns:dc="http://purl.org/dc/elements/1.1/"
   xmlns:cc="http://creativecommons.org/ns#"
   xmlns:rdf="http://www.w3.org/1999/02/22-rdf-syntax-ns#"
   xmlns:svg="http://www.w3.org/2000/svg"
   xmlns="http://www.w3.org/2000/svg"
   xmlns:sodipodi="http://sodipodi.sourceforge.net/DTD/sodipodi-0.dtd"
   xmlns:inkscape="http://www.inkscape.org/namespaces/inkscape"
   version="1.1"
   id="Capa_1"
   x="0px"
   y="0px"
   viewBox="0 0 59.400002 59.400002"
   xml:space="preserve"
   inkscape:version="0.91 r13725"
   sodipodi:docname="menu.svg"
   width="59.400002"
   height="59.400002"><metadata
     id="metadata39"><rdf:RDF><cc:Work
         rdf:about=""><dc:format>image/svg+xml</dc:format><dc:type
           rdf:resource="http://purl.org/dc/dcmitype/StillImage" /><dc:title /></cc:Work></rdf:RDF></metadata><defs
     id="defs37" /><sodipodi:namedview
     pagecolor="#ffffff"
     bordercolor="#666666"
     borderopacity="1"
     objecttolerance="10"
     gridtolerance="10"
     guidetolerance="10"
     inkscape:pageopacity="0"
     inkscape:pageshadow="2"
     inkscape:window-width="1366"
     inkscape:window-height="699"
     id="namedview35"
     showgrid="false"
     showborder="false"
     fit-margin-top="0"
     fit-margin-left="0"
     fit-margin-right="0"
     fit-margin-bottom="0"
     inkscape:zoom="4.2142857"
     inkscape:cx="-10.918644"
     inkscape:cy="28.276272"
     inkscape:window-x="0"
     inkscape:window-y="0"
     inkscape:window-maximized="1"
     inkscape:current-layer="Capa_1" /><path
     d="M 29.7,1.7000002 C 14.261,1.7000002 1.7000002,14.261 1.7000002,29.7 c 0,15.439 12.5609998,28 27.9999998,28 15.439,0 28,-12.561 28,-28 C 57.7,14.261 45.139,1.7000002 29.7,1.7000002 Z M 41.7,42.7 l -24,0 c -1.104,0 -2,-0.896 -2,-2 0,-1.104 0.896,-2 2,-2 l 24,0 c 1.104,0 2,0.896 2,2 0,1.104 -0.896,2 -2,2 z m 0,-11 -24,0 c -1.104,0 -2,-0.896 -2,-2 0,-1.104 0.896,-2 2,-2 l 24,0 c 1.104,0 2,0.896 2,2 0,1.104 -0.896,2 -2,2 z m 0,-11 -24,0 c -1.104,0 -2,-0.896 -2,-2 0,-1.104 0.896,-2 2,-2 l 24,0 c 1.104,0 2,0.896 2,2 0,1.104 -0.896,2 -2,2 z"
     id="path3"
     style="fill:#ad5c30;fill-opacity:1;stroke:#000000;stroke-width:3.40000033;stroke-miterlimit:4;stroke-dasharray:none;stroke-opacity:1"
     inkscape:connector-curvature="0" /><g
     id="g5"
     transform="translate(1.7000002,1.7000002)" /><g
     id="g7"
     transform="translate(1.7000002,1.7000002)" /><g
     id="g9"
     transform="translate(1.7000002,1.7000002)" /><g
     id="g11"
     transform="translate(1.7000002,1.7000002)" /><g
     id="g13"
     transform="translate(1.7000002,1.7000002)" /><g
     id="g15"
     transform="translate(1.7000002,1.7000002)" /><g
     id="g17"
     transform="translate(1.7000002,1.7000002)" /><g
     id="g19"
     transform="translate(1.7000002,1.7000002)" /><g
     id="g21"
     transform="translate(1.7000002,1.7000002)" /><g
     id="g23"
     transform="translate(1.7000002,1.7000002)" /><g
     id="g25"
     transform="translate(1.7000002,1.7000002)" /><g
     id="g27"
     transform="translate(1.7000002,1.7000002)" /><g
     id="g29"
     transform="translate(1.7000002,1.7000002)" /><g
     id="g31"
     transform="translate(1.7000002,1.7000002)" /><g
     id="g33"
     transform="translate(1.7000002,1.7000002)" /></svg>
