<?xml version="1.0" encoding="UTF-8" standalone="no"?>
<!-- Created with Inkscape (http://www.inkscape.org/) -->

<svg
   xmlns:dc="http://purl.org/dc/elements/1.1/"
   xmlns:cc="http://creativecommons.org/ns#"
   xmlns:rdf="http://www.w3.org/1999/02/22-rdf-syntax-ns#"
   xmlns:svg="http://www.w3.org/2000/svg"
   xmlns="http://www.w3.org/2000/svg"
   xmlns:sodipodi="http://sodipodi.sourceforge.net/DTD/sodipodi-0.dtd"
   xmlns:inkscape="http://www.inkscape.org/namespaces/inkscape"
   width="49.092876mm"
   height="12.205688mm"
   viewBox="0 0 173.95114 43.248503"
   id="svg4215"
   version="1.1"
   inkscape:version="0.91 r13725"
   sodipodi:docname="sayit.svg">
  <defs
     id="defs4217" />
  <sodipodi:namedview
     id="base"
     pagecolor="#ffffff"
     bordercolor="#666666"
     borderopacity="1.0"
     inkscape:pageopacity="0.0"
     inkscape:pageshadow="2"
     inkscape:zoom="2.8"
     inkscape:cx="156.04982"
     inkscape:cy="5.3571326"
     inkscape:document-units="px"
     inkscape:current-layer="layer1"
     showgrid="false"
     showborder="false"
     fit-margin-top="0"
     fit-margin-left="0"
     fit-margin-right="0"
     fit-margin-bottom="0"
     inkscape:window-width="1366"
     inkscape:window-height="699"
     inkscape:window-x="0"
     inkscape:window-y="0"
     inkscape:window-maximized="1" />
  <metadata
     id="metadata4220">
    <rdf:RDF>
      <cc:Work
         rdf:about="">
        <dc:format>image/svg+xml</dc:format>
        <dc:type
           rdf:resource="http://purl.org/dc/dcmitype/StillImage" />
        <dc:title></dc:title>
      </cc:Work>
    </rdf:RDF>
  </metadata>
  <g
     inkscape:label="Calque 1"
     inkscape:groupmode="layer"
     id="layer1"
     transform="translate(-267.33643,-213.5951)">
    <g
       style="display:inline"
       id="g4488"
       transform="translate(219.8046,-69.632444)">
      <g
         style="display:inline;fill:#4d4d4d"
         id="g4463">
        <g
           style="display:inline;fill:#4d4d4d"
           id="g4342"
           transform="translate(2,-2)">
          <g
             transform="matrix(0.98913676,-0.14699819,0.14699819,0.98913676,0,0)"
             style="font-style:normal;font-variant:normal;font-weight:normal;font-stretch:normal;font-size:38.14991379px;line-height:125%;font-family:Slackey;-inkscape-font-specification:Slackey;letter-spacing:0px;word-spacing:0px;fill:#4d4d4d;fill-opacity:1;stroke:none;stroke-width:1px;stroke-linecap:butt;stroke-linejoin:miter;stroke-opacity:1"
             id="text4186">
            <path
               d="m 30.312007,325.09148 q 0,1.78828 -0.856882,2.90595 -0.856883,1.08042 -2.421626,1.75102 -1.303952,0.55884 -3.278508,0.89414 -1.974556,0.29805 -4.098135,0.44707 -2.123579,0.11177 -4.172647,0.14903 -2.049068,0.0372 -3.427531,0.0372 -2.3471142,0 -4.6569723,-0.0745 -2.2726023,-0.0745 -4.6197161,-0.22354 0.1117673,-3.80008 -0.2235347,-7.52566 2.7941832,0.0745 5.5511105,0.14902 2.7941836,0.0373 5.5883666,0.11177 1.080417,0.0373 2.160835,0.0745 1.117673,0.0373 2.235346,0.0373 0.186279,0 0.558837,0 0.372558,0 0.782371,-0.0373 0.409814,-0.0373 0.745116,-0.11177 0.372557,-0.0745 0.558836,-0.22353 0.149023,-0.14903 0.186279,-0.40982 0.03726,-0.29804 0.03726,-0.52158 0,-0.40981 -0.111767,-0.96865 -0.111768,-0.59609 -0.335302,-0.96865 -0.03726,-0.0372 -0.260791,-0.0745 -0.186279,-0.0373 -0.447069,-0.0373 -0.260791,-0.0373 -0.484325,-0.0373 -0.223535,-0.0373 -0.260791,-0.0373 -2.384369,-0.18627 -4.768739,-0.26079 -2.347114,-0.0745 -4.7314833,-0.26079 Q 8.4801232,319.76391 7.3251942,319.65214 6.2075209,319.54037 5.2388708,319.24233 4.3074764,318.98153 3.6368724,318.0874 3.0035242,317.156 2.5937107,316.00107 2.221153,314.80889 2.0348741,313.6167 1.885851,312.42452 1.885851,311.60489 q 0,-1.34121 0.2607904,-2.53339 0.2607904,-1.22944 0.8196271,-2.2726 0.5960924,-1.04317 1.490231,-1.82554 0.8941386,-0.81962 2.1980907,-1.3412 2.2353465,-0.85689 4.7687388,-1.19219 2.570649,-0.3353 4.917763,-0.3353 2.756927,0 5.439343,0.3353 2.682416,0.3353 5.364832,0.85688 -0.03726,1.08042 -0.07451,2.16084 0,1.04316 0,2.12358 0,1.08042 0.111767,2.19809 0.111768,1.08042 0.223535,2.16083 -3.539299,0.0745 -7.078597,0.14903 -3.502043,0.0372 -7.078598,0.18628 -0.447069,0 -1.22944,0.0372 -0.745116,0.0373 -1.452975,0.11177 -0.7078601,0.0373 -1.229441,0.0745 -0.5215808,0.0373 -0.5215808,0.0373 -0.1862789,0.40981 -0.2235347,0.85688 -0.037256,0.40981 -0.037256,0.85688 0,0.22354 0,0.55884 0.037256,0.3353 0.1862789,0.52158 0.037256,0.0373 0.6333482,0.11177 0.5960924,0.0745 1.3039524,0.14902 0.745115,0.0745 1.378464,0.14902 0.670604,0.0745 0.819627,0.0745 1.22944,0.11177 2.868694,0.26079 1.67651,0.14903 3.390276,0.33531 1.751021,0.18628 3.35302,0.48432 1.601998,0.26079 2.794183,0.63335 1.080417,0.37256 1.974556,1.19218 0.931394,0.78238 1.601998,1.86279 0.670604,1.04317 1.043162,2.23535 0.409813,1.15493 0.409813,2.2726 z"
               id="path4158"
               inkscape:connector-curvature="0" />
          </g>
          <g
             transform="matrix(0.96338795,0.26811127,-0.26811127,0.96338795,0,0)"
             style="font-style:normal;font-variant:normal;font-weight:normal;font-stretch:normal;font-size:38.14991379px;line-height:125%;font-family:Slackey;-inkscape-font-specification:Slackey;letter-spacing:0px;word-spacing:0px;fill:#4d4d4d;fill-opacity:1;stroke:none;stroke-width:1px;stroke-linecap:butt;stroke-linejoin:miter;stroke-opacity:1"
             id="text4190">
            <path
               d="m 253.73543,234.83447 q -0.18627,2.2726 -0.14902,4.5452 0.0373,2.23535 -0.0373,4.47069 l -4.1354,-0.14902 q -0.0373,1.30395 -0.0745,2.57065 0,1.2667 0,2.57065 0,1.56474 0,3.09223 0.0373,1.49023 0.0745,3.05497 l 3.80009,0.0745 q -0.0745,1.08042 -0.0745,2.19809 0,1.11768 0,2.23535 0,0.93139 0.0373,1.86279 0.0745,0.93139 0.26079,1.82553 l -13.37482,0.22354 q 0,-1.82554 -0.0373,-3.57656 -0.0373,-1.78827 -0.14902,-3.61381 l 2.42162,-0.0373 q -0.18628,-3.50205 -0.44707,-6.92958 -0.22353,-3.42753 -0.48432,-6.89232 l -3.5393,-0.44707 q -0.0745,-1.56474 -0.14902,-3.09222 -0.0373,-1.56475 -0.11177,-3.12949 4.06088,-0.14902 8.04725,-0.3353 4.02362,-0.22354 8.12175,-0.52158 z"
               id="path4161"
               inkscape:connector-curvature="0" />
            <path
               d="m 276.0889,255.58593 -0.63335,6.55702 q -1.19218,0.0745 -2.38437,0.11177 -1.19218,0.0745 -2.38437,0.0745 -0.63334,0 -1.67651,-0.0373 -1.04316,-0.0372 -2.16083,-0.11176 -1.11767,-0.11177 -2.12358,-0.26079 -1.00591,-0.18628 -1.602,-0.44707 -0.89414,-0.40982 -1.49023,-1.08042 -0.55884,-0.6706 -0.93139,-1.45298 -0.37256,-0.81962 -0.5961,-1.71376 -0.22353,-0.9314 -0.3353,-1.82553 -0.11177,-0.85689 -0.18628,-1.82554 -0.0372,-1.0059 -0.0745,-2.04907 0,-1.04316 0,-2.01181 0,-1.0059 0,-1.86279 l 0,-1.11767 -2.30986,0 q 0.14903,-1.67651 0.14903,-3.31576 0.0373,-1.63926 0.18627,-3.31577 l 2.23535,0.0745 0,-5.51385 q 2.12358,0.40981 4.2099,0.44707 2.12358,0 4.24716,0.14902 l -0.0745,5.70014 3.12949,0.18627 q 0,0.26079 0,0.48433 0.0372,0.22353 0.0372,0.48432 0,1.04317 -0.18628,2.04907 -0.14902,0.96865 -0.40981,1.97456 l -2.71967,0 q -0.0745,1.71376 -0.11177,3.42753 -0.0373,1.71377 -0.0373,3.42753 0,0.81963 0.0373,1.49023 0.0745,0.63335 0.29805,1.08042 0.26079,0.44707 0.81962,0.6706 0.55884,0.22354 1.56475,0.22354 1.37846,0 2.75692,-0.18628 1.37847,-0.18628 2.75693,-0.48433 z"
               id="path4163"
               inkscape:connector-curvature="0" />
          </g>
          <g
             transform="matrix(0.98564433,-0.16883499,0.16883499,0.98564433,0,0)"
             style="font-style:normal;font-variant:normal;font-weight:normal;font-stretch:normal;font-size:38.14991379px;line-height:125%;font-family:Slackey;-inkscape-font-specification:Slackey;letter-spacing:0px;word-spacing:0px;fill:#4d4d4d;fill-opacity:1;stroke:none;stroke-width:1px;stroke-linecap:butt;stroke-linejoin:miter;stroke-opacity:1"
             id="text4194">
            <path
               d="m 164.52769,317.56442 q -0.0373,0.96865 -0.11177,2.12358 -0.0373,1.15493 -0.11176,2.34711 -0.0745,1.19219 -0.22354,2.34712 -0.11177,1.11767 -0.29804,2.08632 -0.55884,2.79418 -1.15493,5.51386 -0.55884,2.71967 -1.11768,5.51385 l -4.09813,0.37256 -0.9314,-9.38846 q -0.26079,-2.53339 -0.37255,-5.06678 -0.11177,-2.57065 -0.26079,-5.1413 l 8.68059,-0.70786 z m -0.6706,25.66923 q 0,0.63335 -0.40982,1.2667 -0.37255,0.59609 -0.96865,1.08041 -0.59609,0.48433 -1.30395,0.74512 -0.70786,0.29804 -1.30395,0.29804 -0.55884,0 -1.19219,-0.22353 -0.59609,-0.18628 -1.11767,-0.52158 -0.48432,-0.37256 -0.81963,-0.89414 -0.29804,-0.52158 -0.29804,-1.19218 0,-0.70786 0.40981,-1.2667 0.44707,-0.59609 1.04316,-0.96865 0.63335,-0.40981 1.34121,-0.59609 0.74512,-0.22354 1.37846,-0.22354 1.04317,0 1.86279,0.48433 0.85689,0.48432 1.2667,1.45297 0.0745,0.14903 0.0745,0.29805 0.0373,0.11177 0.0373,0.26079 z"
               id="path4166"
               inkscape:connector-curvature="0" />
          </g>
          <g
             style="font-style:normal;font-variant:normal;font-weight:normal;font-stretch:normal;font-size:40px;line-height:125%;font-family:Slackey;-inkscape-font-specification:Slackey;letter-spacing:0px;word-spacing:0px;fill:#4d4d4d;fill-opacity:1;stroke:none;stroke-width:1px;stroke-linecap:butt;stroke-linejoin:miter;stroke-opacity:1"
             id="text4284">
            <path
               d="m 111.49219,314.53073 q 0,3.28125 -0.23438,6.52344 -0.23437,3.24219 -0.46875,6.48437 -4.375,0.39063 -8.71093,0.66407 -4.335943,0.27343 -8.710943,0.27343 -0.390625,0 -1.445312,0 -1.054688,-0.0391 -2.226563,-0.0781 -1.171875,-0.0781 -2.226562,-0.15625 -1.054688,-0.11719 -1.40625,-0.3125 -1.289063,-0.70313 -1.796875,-1.75781 -0.507813,-1.09375 -0.507813,-2.46094 0,-0.46875 0.03906,-1.25 0.03906,-0.78125 0.15625,-1.64063 0.117187,-0.85937 0.3125,-1.60156 0.195312,-0.74219 0.46875,-1.09375 0.351562,-0.46875 1.601562,-0.78125 1.25,-0.35156 2.96875,-0.54687 1.757813,-0.19532 3.75,-0.3125 2.03125,-0.11719 3.867188,-0.15625 1.835937,-0.0781 3.281258,-0.0781 1.44531,0 2.07031,0 0.11719,-0.85937 0.11719,-1.67969 0,-0.0781 0,-0.39062 0,-0.35156 -0.0391,-0.42969 -0.11718,-0.23437 -0.74218,-0.39062 -0.625,-0.15625 -1.5625,-0.23438 -0.898446,-0.0781 -1.992196,-0.11719 -1.054687,-0.0781 -2.070312,-0.0781 -1.015625,0 -1.796875,0 -0.78125,0 -1.132813,0 -2.460937,0 -4.921875,0.11719 -2.460937,0.0781 -4.921875,0.15625 0.15625,-1.48438 0.234375,-3.00782 0.117188,-1.52343 0.03906,-3.00781 2.851562,-0.50781 5.703125,-0.70312 2.890625,-0.23438 5.820312,-0.23438 1.054688,0 2.304688,0.0391 1.25,0 2.5,0.0781 1.249996,0.0391 2.460936,0.15625 1.25,0.11719 2.30469,0.3125 1.09375,0.19531 2.14843,0.70312 1.09375,0.50782 2.03125,1.25 0.9375,0.74219 1.64063,1.71875 0.70312,0.9375 1.01562,2.03125 0.0391,0.11719 0.0391,0.39063 0.0391,0.27344 0.0391,0.625 0,0.3125 0,0.58594 0,0.27343 0,0.39062 z m -8.71094,9.17969 0,-5 q -1.13281,-0.0391 -2.26562,-0.0391 -1.132818,-0.0391 -2.26563,-0.0391 -0.234375,0 -1.328125,0.0391 -1.054688,0 -2.304688,0.0781 -1.210937,0.0781 -2.226562,0.19531 -1.015625,0.11719 -1.171875,0.35157 -0.195313,0.3125 -0.273438,0.66406 -0.03906,0.3125 -0.03906,0.66406 0,0.27344 0.03906,0.74219 0.03906,0.46875 0.117188,0.97656 0.117187,0.50781 0.234375,0.9375 0.117187,0.42969 0.3125,0.625 0.15625,0.19531 0.507812,0.3125 0.390625,0.0781 0.820313,0.15625 0.429687,0.0391 0.859375,0.0781 0.429687,0 0.664062,0 0.9375,0 1.992188,-0.0781 1.09375,-0.0781 2.1875,-0.15625 1.132812,-0.11719 2.187505,-0.23437 1.05468,-0.15625 1.95312,-0.27344 z"
               id="path4169"
               inkscape:connector-curvature="0" />
          </g>
          <g
             transform="matrix(0.98696042,-0.1609631,0.1609631,0.98696042,0,0)"
             style="font-style:normal;font-variant:normal;font-weight:normal;font-stretch:normal;font-size:40px;line-height:125%;font-family:Slackey;-inkscape-font-specification:Slackey;letter-spacing:0px;word-spacing:0px;fill:#4d4d4d;fill-opacity:1;stroke:none;stroke-width:1px;stroke-linecap:butt;stroke-linejoin:miter;stroke-opacity:1"
             id="text4288">
            <path
               d="m 91.460602,327.97934 q 0,0.42969 0,1.25 0,0.82031 -0.03906,1.875 -0.03906,1.01562 -0.117187,2.14844 -0.03906,1.09375 -0.117188,2.10937 -0.07813,0.97656 -0.234375,1.71875 -0.117187,0.78125 -0.273437,1.09375 -0.664063,1.05469 -1.25,1.60156 -0.546875,0.58594 -1.210938,0.82032 -0.664062,0.23437 -1.523437,0.23437 -0.820313,0.0391 -1.953125,0.0391 -3.75,0 -7.460938,-0.3125 -3.710937,-0.27343 -7.421875,-0.66406 l 0,-5.35156 q 0.351563,0 1.523438,0 1.210937,-0.0391 2.8125,-0.0781 1.601562,-0.0391 3.398437,-0.11718 1.796875,-0.0781 3.359375,-0.19532 1.5625,-0.11718 2.695313,-0.27343 1.132812,-0.15625 1.40625,-0.39063 0.351562,-0.27344 0.546875,-0.82031 0.234375,-0.58594 0.3125,-1.21094 0.117187,-0.625 0.15625,-1.25 0.03906,-0.625 0.03906,-1.01562 0,-0.39063 0,-0.74219 0,-0.35156 -0.03906,-0.78125 -0.585938,1.32812 -1.5625,1.99219 -0.976563,0.66406 -2.1875,0.9375 -1.210938,0.27343 -2.539063,0.3125 -1.328125,0 -2.539062,0 -2.539063,0 -4.921875,-0.19532 -2.34375,-0.23437 -4.179688,-1.13281 -1.796875,-0.89844 -2.929687,-2.69531 -1.09375,-1.83594 -1.09375,-5.03906 0,-3.16407 0.429687,-6.28907 0.429688,-3.16406 1.09375,-6.25 l 8.242188,0.0781 q -0.664063,2.46094 -1.171875,5 -0.507813,2.53906 -0.507813,5.11719 0,1.36718 0.195313,2.22656 0.195312,0.85937 0.703125,1.40625 0.507812,0.50781 1.40625,0.70312 0.898437,0.19532 2.265625,0.19532 0.546875,0 1.328125,-0.0781 0.820312,-0.0781 1.640625,-0.19531 0.859375,-0.15625 1.601562,-0.39063 0.78125,-0.23437 1.210938,-0.58593 0.15625,-0.11719 0.273437,-0.78125 0.117188,-0.66407 0.195313,-1.5625 0.07813,-0.9375 0.117187,-1.99219 0.03906,-1.05469 0.03906,-1.99219 0.03906,-0.9375 0.03906,-1.60156 0,-0.70313 0,-0.89844 0,-1.32812 0,-2.61719 0,-1.32812 -0.07813,-2.65625 1.914063,0.19532 3.75,0.35157 1.875,0.11718 3.789063,0.19531 0.15625,3.78906 0.3125,7.5 0.195312,3.71094 0.390625,7.5 0.07813,0.9375 0.07813,1.91406 0,0.9375 0,1.83594 z"
               id="path4172"
               inkscape:connector-curvature="0" />
          </g>
        </g>
      </g>
      <g
         transform="translate(0,-2)"
         style="display:inline"
         id="g4420">
        <g
           transform="matrix(0.98913676,-0.14699819,0.14699819,0.98913676,0,0)"
           style="font-style:normal;font-variant:normal;font-weight:normal;font-stretch:normal;font-size:38.14991379px;line-height:125%;font-family:Slackey;-inkscape-font-specification:Slackey;letter-spacing:0px;word-spacing:0px;fill:#6c6cb5;fill-opacity:1;stroke:none;stroke-width:1px;stroke-linecap:butt;stroke-linejoin:miter;stroke-opacity:1"
           id="text4422">
          <path
             d="m 30.312007,325.09148 q 0,1.78828 -0.856882,2.90595 -0.856883,1.08042 -2.421626,1.75102 -1.303952,0.55884 -3.278508,0.89414 -1.974556,0.29805 -4.098135,0.44707 -2.123579,0.11177 -4.172647,0.14903 -2.049068,0.0372 -3.427531,0.0372 -2.3471142,0 -4.6569723,-0.0745 -2.2726023,-0.0745 -4.6197161,-0.22354 0.1117673,-3.80008 -0.2235347,-7.52566 2.7941832,0.0745 5.5511105,0.14902 2.7941836,0.0373 5.5883666,0.11177 1.080417,0.0373 2.160835,0.0745 1.117673,0.0373 2.235346,0.0373 0.186279,0 0.558837,0 0.372558,0 0.782371,-0.0373 0.409814,-0.0373 0.745116,-0.11177 0.372557,-0.0745 0.558836,-0.22353 0.149023,-0.14903 0.186279,-0.40982 0.03726,-0.29804 0.03726,-0.52158 0,-0.40981 -0.111767,-0.96865 -0.111768,-0.59609 -0.335302,-0.96865 -0.03726,-0.0372 -0.260791,-0.0745 -0.186279,-0.0373 -0.447069,-0.0373 -0.260791,-0.0373 -0.484325,-0.0373 -0.223535,-0.0373 -0.260791,-0.0373 -2.384369,-0.18627 -4.768739,-0.26079 -2.347114,-0.0745 -4.7314833,-0.26079 Q 8.4801232,319.76391 7.3251942,319.65214 6.2075209,319.54037 5.2388708,319.24233 4.3074764,318.98153 3.6368724,318.0874 3.0035242,317.156 2.5937107,316.00107 2.221153,314.80889 2.0348741,313.6167 1.885851,312.42452 1.885851,311.60489 q 0,-1.34121 0.2607904,-2.53339 0.2607904,-1.22944 0.8196271,-2.2726 0.5960924,-1.04317 1.490231,-1.82554 0.8941386,-0.81962 2.1980907,-1.3412 2.2353465,-0.85689 4.7687388,-1.19219 2.570649,-0.3353 4.917763,-0.3353 2.756927,0 5.439343,0.3353 2.682416,0.3353 5.364832,0.85688 -0.03726,1.08042 -0.07451,2.16084 0,1.04316 0,2.12358 0,1.08042 0.111767,2.19809 0.111768,1.08042 0.223535,2.16083 -3.539299,0.0745 -7.078597,0.14903 -3.502043,0.0372 -7.078598,0.18628 -0.447069,0 -1.22944,0.0372 -0.745116,0.0373 -1.452975,0.11177 -0.7078601,0.0373 -1.229441,0.0745 -0.5215808,0.0373 -0.5215808,0.0373 -0.1862789,0.40981 -0.2235347,0.85688 -0.037256,0.40981 -0.037256,0.85688 0,0.22354 0,0.55884 0.037256,0.3353 0.1862789,0.52158 0.037256,0.0373 0.6333482,0.11177 0.5960924,0.0745 1.3039524,0.14902 0.745115,0.0745 1.378464,0.14902 0.670604,0.0745 0.819627,0.0745 1.22944,0.11177 2.868694,0.26079 1.67651,0.14903 3.390276,0.33531 1.751021,0.18628 3.35302,0.48432 1.601998,0.26079 2.794183,0.63335 1.080417,0.37256 1.974556,1.19218 0.931394,0.78238 1.601998,1.86279 0.670604,1.04317 1.043162,2.23535 0.409813,1.15493 0.409813,2.2726 z"
             id="path4175"
             inkscape:connector-curvature="0" />
        </g>
        <g
           transform="matrix(0.96338795,0.26811127,-0.26811127,0.96338795,0,0)"
           style="font-style:normal;font-variant:normal;font-weight:normal;font-stretch:normal;font-size:38.14991379px;line-height:125%;font-family:Slackey;-inkscape-font-specification:Slackey;letter-spacing:0px;word-spacing:0px;fill:#949444;fill-opacity:1;stroke:none;stroke-width:1px;stroke-linecap:butt;stroke-linejoin:miter;stroke-opacity:1"
           id="text4426">
          <path
             d="m 253.73543,234.83447 q -0.18627,2.2726 -0.14902,4.5452 0.0373,2.23535 -0.0373,4.47069 l -4.1354,-0.14902 q -0.0373,1.30395 -0.0745,2.57065 0,1.2667 0,2.57065 0,1.56474 0,3.09223 0.0373,1.49023 0.0745,3.05497 l 3.80009,0.0745 q -0.0745,1.08042 -0.0745,2.19809 0,1.11768 0,2.23535 0,0.93139 0.0373,1.86279 0.0745,0.93139 0.26079,1.82553 l -13.37482,0.22354 q 0,-1.82554 -0.0373,-3.57656 -0.0373,-1.78827 -0.14902,-3.61381 l 2.42162,-0.0373 q -0.18628,-3.50205 -0.44707,-6.92958 -0.22353,-3.42753 -0.48432,-6.89232 l -3.5393,-0.44707 q -0.0745,-1.56474 -0.14902,-3.09222 -0.0373,-1.56475 -0.11177,-3.12949 4.06088,-0.14902 8.04725,-0.3353 4.02362,-0.22354 8.12175,-0.52158 z"
             id="path4178"
             inkscape:connector-curvature="0" />
          <path
             d="m 276.0889,255.58593 -0.63335,6.55702 q -1.19218,0.0745 -2.38437,0.11177 -1.19218,0.0745 -2.38437,0.0745 -0.63334,0 -1.67651,-0.0373 -1.04316,-0.0372 -2.16083,-0.11176 -1.11767,-0.11177 -2.12358,-0.26079 -1.00591,-0.18628 -1.602,-0.44707 -0.89414,-0.40982 -1.49023,-1.08042 -0.55884,-0.6706 -0.93139,-1.45298 -0.37256,-0.81962 -0.5961,-1.71376 -0.22353,-0.9314 -0.3353,-1.82553 -0.11177,-0.85689 -0.18628,-1.82554 -0.0372,-1.0059 -0.0745,-2.04907 0,-1.04316 0,-2.01181 0,-1.0059 0,-1.86279 l 0,-1.11767 -2.30986,0 q 0.14903,-1.67651 0.14903,-3.31576 0.0373,-1.63926 0.18627,-3.31577 l 2.23535,0.0745 0,-5.51385 q 2.12358,0.40981 4.2099,0.44707 2.12358,0 4.24716,0.14902 l -0.0745,5.70014 3.12949,0.18627 q 0,0.26079 0,0.48433 0.0372,0.22353 0.0372,0.48432 0,1.04317 -0.18628,2.04907 -0.14902,0.96865 -0.40981,1.97456 l -2.71967,0 q -0.0745,1.71376 -0.11177,3.42753 -0.0373,1.71377 -0.0373,3.42753 0,0.81963 0.0373,1.49023 0.0745,0.63335 0.29805,1.08042 0.26079,0.44707 0.81962,0.6706 0.55884,0.22354 1.56475,0.22354 1.37846,0 2.75692,-0.18628 1.37847,-0.18628 2.75693,-0.48433 z"
             id="path4180"
             inkscape:connector-curvature="0" />
        </g>
        <g
           transform="matrix(0.98564433,-0.16883499,0.16883499,0.98564433,0,0)"
           style="font-style:normal;font-variant:normal;font-weight:normal;font-stretch:normal;font-size:38.14991379px;line-height:125%;font-family:Slackey;-inkscape-font-specification:Slackey;letter-spacing:0px;word-spacing:0px;fill:#a74242;fill-opacity:1;stroke:none;stroke-width:1px;stroke-linecap:butt;stroke-linejoin:miter;stroke-opacity:1"
           id="text4430">
          <path
             d="m 164.52769,317.56442 q -0.0373,0.96865 -0.11177,2.12358 -0.0373,1.15493 -0.11176,2.34711 -0.0745,1.19219 -0.22354,2.34712 -0.11177,1.11767 -0.29804,2.08632 -0.55884,2.79418 -1.15493,5.51386 -0.55884,2.71967 -1.11768,5.51385 l -4.09813,0.37256 -0.9314,-9.38846 q -0.26079,-2.53339 -0.37255,-5.06678 -0.11177,-2.57065 -0.26079,-5.1413 l 8.68059,-0.70786 z m -0.6706,25.66923 q 0,0.63335 -0.40982,1.2667 -0.37255,0.59609 -0.96865,1.08041 -0.59609,0.48433 -1.30395,0.74512 -0.70786,0.29804 -1.30395,0.29804 -0.55884,0 -1.19219,-0.22353 -0.59609,-0.18628 -1.11767,-0.52158 -0.48432,-0.37256 -0.81963,-0.89414 -0.29804,-0.52158 -0.29804,-1.19218 0,-0.70786 0.40981,-1.2667 0.44707,-0.59609 1.04316,-0.96865 0.63335,-0.40981 1.34121,-0.59609 0.74512,-0.22354 1.37846,-0.22354 1.04317,0 1.86279,0.48433 0.85689,0.48432 1.2667,1.45297 0.0745,0.14903 0.0745,0.29805 0.0373,0.11177 0.0373,0.26079 z"
             id="path4183"
             inkscape:connector-curvature="0" />
        </g>
        <g
           style="font-style:normal;font-variant:normal;font-weight:normal;font-stretch:normal;font-size:40px;line-height:125%;font-family:Slackey;-inkscape-font-specification:Slackey;letter-spacing:0px;word-spacing:0px;fill:#5cb05c;fill-opacity:1;stroke:none;stroke-width:1px;stroke-linecap:butt;stroke-linejoin:miter;stroke-opacity:1"
           id="text4434">
          <path
             d="m 111.49219,314.53073 q 0,3.28125 -0.23438,6.52344 -0.23437,3.24219 -0.46875,6.48437 -4.375,0.39063 -8.71093,0.66407 -4.335943,0.27343 -8.710943,0.27343 -0.390625,0 -1.445312,0 -1.054688,-0.0391 -2.226563,-0.0781 -1.171875,-0.0781 -2.226562,-0.15625 -1.054688,-0.11719 -1.40625,-0.3125 -1.289063,-0.70313 -1.796875,-1.75781 -0.507813,-1.09375 -0.507813,-2.46094 0,-0.46875 0.03906,-1.25 0.03906,-0.78125 0.15625,-1.64063 0.117187,-0.85937 0.3125,-1.60156 0.195312,-0.74219 0.46875,-1.09375 0.351562,-0.46875 1.601562,-0.78125 1.25,-0.35156 2.96875,-0.54687 1.757813,-0.19532 3.75,-0.3125 2.03125,-0.11719 3.867188,-0.15625 1.835937,-0.0781 3.281258,-0.0781 1.44531,0 2.07031,0 0.11719,-0.85937 0.11719,-1.67969 0,-0.0781 0,-0.39062 0,-0.35156 -0.0391,-0.42969 -0.11718,-0.23437 -0.74218,-0.39062 -0.625,-0.15625 -1.5625,-0.23438 -0.898446,-0.0781 -1.992196,-0.11719 -1.054687,-0.0781 -2.070312,-0.0781 -1.015625,0 -1.796875,0 -0.78125,0 -1.132813,0 -2.460937,0 -4.921875,0.11719 -2.460937,0.0781 -4.921875,0.15625 0.15625,-1.48438 0.234375,-3.00782 0.117188,-1.52343 0.03906,-3.00781 2.851562,-0.50781 5.703125,-0.70312 2.890625,-0.23438 5.820312,-0.23438 1.054688,0 2.304688,0.0391 1.25,0 2.5,0.0781 1.249996,0.0391 2.460936,0.15625 1.25,0.11719 2.30469,0.3125 1.09375,0.19531 2.14843,0.70312 1.09375,0.50782 2.03125,1.25 0.9375,0.74219 1.64063,1.71875 0.70312,0.9375 1.01562,2.03125 0.0391,0.11719 0.0391,0.39063 0.0391,0.27344 0.0391,0.625 0,0.3125 0,0.58594 0,0.27343 0,0.39062 z m -8.71094,9.17969 0,-5 q -1.13281,-0.0391 -2.26562,-0.0391 -1.132818,-0.0391 -2.26563,-0.0391 -0.234375,0 -1.328125,0.0391 -1.054688,0 -2.304688,0.0781 -1.210937,0.0781 -2.226562,0.19531 -1.015625,0.11719 -1.171875,0.35157 -0.195313,0.3125 -0.273438,0.66406 -0.03906,0.3125 -0.03906,0.66406 0,0.27344 0.03906,0.74219 0.03906,0.46875 0.117188,0.97656 0.117187,0.50781 0.234375,0.9375 0.117187,0.42969 0.3125,0.625 0.15625,0.19531 0.507812,0.3125 0.390625,0.0781 0.820313,0.15625 0.429687,0.0391 0.859375,0.0781 0.429687,0 0.664062,0 0.9375,0 1.992188,-0.0781 1.09375,-0.0781 2.1875,-0.15625 1.132812,-0.11719 2.187505,-0.23437 1.05468,-0.15625 1.95312,-0.27344 z"
             id="path4186"
             inkscape:connector-curvature="0" />
        </g>
        <g
           transform="matrix(0.98696042,-0.1609631,0.1609631,0.98696042,0,0)"
           style="font-style:normal;font-variant:normal;font-weight:normal;font-stretch:normal;font-size:40px;line-height:125%;font-family:Slackey;-inkscape-font-specification:Slackey;letter-spacing:0px;word-spacing:0px;fill:#b75555;fill-opacity:1;stroke:none;stroke-width:1px;stroke-linecap:butt;stroke-linejoin:miter;stroke-opacity:1"
           id="text4438">
          <path
             d="m 91.460602,327.97934 q 0,0.42969 0,1.25 0,0.82031 -0.03906,1.875 -0.03906,1.01562 -0.117187,2.14844 -0.03906,1.09375 -0.117188,2.10937 -0.07813,0.97656 -0.234375,1.71875 -0.117187,0.78125 -0.273437,1.09375 -0.664063,1.05469 -1.25,1.60156 -0.546875,0.58594 -1.210938,0.82032 -0.664062,0.23437 -1.523437,0.23437 -0.820313,0.0391 -1.953125,0.0391 -3.75,0 -7.460938,-0.3125 -3.710937,-0.27343 -7.421875,-0.66406 l 0,-5.35156 q 0.351563,0 1.523438,0 1.210937,-0.0391 2.8125,-0.0781 1.601562,-0.0391 3.398437,-0.11718 1.796875,-0.0781 3.359375,-0.19532 1.5625,-0.11718 2.695313,-0.27343 1.132812,-0.15625 1.40625,-0.39063 0.351562,-0.27344 0.546875,-0.82031 0.234375,-0.58594 0.3125,-1.21094 0.117187,-0.625 0.15625,-1.25 0.03906,-0.625 0.03906,-1.01562 0,-0.39063 0,-0.74219 0,-0.35156 -0.03906,-0.78125 -0.585938,1.32812 -1.5625,1.99219 -0.976563,0.66406 -2.1875,0.9375 -1.210938,0.27343 -2.539063,0.3125 -1.328125,0 -2.539062,0 -2.539063,0 -4.921875,-0.19532 -2.34375,-0.23437 -4.179688,-1.13281 -1.796875,-0.89844 -2.929687,-2.69531 -1.09375,-1.83594 -1.09375,-5.03906 0,-3.16407 0.429687,-6.28907 0.429688,-3.16406 1.09375,-6.25 l 8.242188,0.0781 q -0.664063,2.46094 -1.171875,5 -0.507813,2.53906 -0.507813,5.11719 0,1.36718 0.195313,2.22656 0.195312,0.85937 0.703125,1.40625 0.507812,0.50781 1.40625,0.70312 0.898437,0.19532 2.265625,0.19532 0.546875,0 1.328125,-0.0781 0.820312,-0.0781 1.640625,-0.19531 0.859375,-0.15625 1.601562,-0.39063 0.78125,-0.23437 1.210938,-0.58593 0.15625,-0.11719 0.273437,-0.78125 0.117188,-0.66407 0.195313,-1.5625 0.07813,-0.9375 0.117187,-1.99219 0.03906,-1.05469 0.03906,-1.99219 0.03906,-0.9375 0.03906,-1.60156 0,-0.70313 0,-0.89844 0,-1.32812 0,-2.61719 0,-1.32812 -0.07813,-2.65625 1.914063,0.19532 3.75,0.35157 1.875,0.11718 3.789063,0.19531 0.15625,3.78906 0.3125,7.5 0.195312,3.71094 0.390625,7.5 0.07813,0.9375 0.07813,1.91406 0,0.9375 0,1.83594 z"
             id="path4189"
             inkscape:connector-curvature="0" />
        </g>
      </g>
    </g>
    <text
       xml:space="preserve"
       style="font-style:normal;font-weight:normal;font-size:40px;line-height:125%;font-family:sans-serif;letter-spacing:0px;word-spacing:0px;fill:#000000;fill-opacity:1;stroke:none;stroke-width:1px;stroke-linecap:butt;stroke-linejoin:miter;stroke-opacity:1"
       x="326.0788"
       y="192.55789"
       id="text4191"
       sodipodi:linespacing="125%"><tspan
         sodipodi:role="line"
         id="tspan4193"
         x="326.0788"
         y="192.55789" /></text>
  </g>
</svg>
